<?xml version="1.0" encoding="UTF-8" standalone="no"?>
<svg
   height="151.94188"
   viewBox="0 0 326.4764 194.68022"
   width="254.56209"
   version="1.1"
   id="svg88"
   sodipodi:docname="Logo_Binus_University.svg"
   inkscape:version="1.3 (0e150ed6c4, 2023-07-21)"
   xmlns:inkscape="http://www.inkscape.org/namespaces/inkscape"
   xmlns:sodipodi="http://sodipodi.sourceforge.net/DTD/sodipodi-0.dtd"
   xmlns="http://www.w3.org/2000/svg"
   xmlns:svg="http://www.w3.org/2000/svg">
  <defs
     id="defs88" />
  <sodipodi:namedview
     id="namedview88"
     pagecolor="#ffffff"
     bordercolor="#666666"
     borderopacity="1.0"
     inkscape:showpageshadow="2"
     inkscape:pageopacity="0.0"
     inkscape:pagecheckerboard="0"
     inkscape:deskcolor="#d1d1d1"
     inkscape:zoom="2.9124476"
     inkscape:cx="140.60339"
     inkscape:cy="87.383546"
     inkscape:window-width="1920"
     inkscape:window-height="1001"
     inkscape:window-x="-9"
     inkscape:window-y="-9"
     inkscape:window-maximized="1"
     inkscape:current-layer="svg88" />
  <clipPath
     id="a">
    <path
       d="M 0,0 H 841.89 V 595.28 H 0 Z"
       transform="matrix(1,0,0,-1,-201.001,456.36799)"
       id="path1" />
  </clipPath>
  <clipPath
     id="b">
    <path
       d="M 0,595.28 H 841.89 V 0 H 0 Z"
       transform="matrix(1,0,0,-1,-201.001,456.36799)"
       id="path2" />
  </clipPath>
  <g
     clip-path="url(#a)"
     id="g88"
     transform="translate(-56.705995,-61.303201)">
    <g
       fill="#918f90"
       id="g55">
      <path
         d="m 370.355,307.227 h 3.676 v -3.66901 h -3.676 z"
         transform="matrix(1,0,0,-1,-201.001,456.36799)"
         id="path3" />
      <path
         d="m 374.68,307.227 h 3.648 v -3.66901 h -3.648 z"
         transform="matrix(1,0,0,-1,-201.001,456.36799)"
         id="path4" />
      <path
         d="m 378.976,307.227 h 3.67403 v -3.66901 H 378.976 Z"
         transform="matrix(1,0,0,-1,-201.001,456.36799)"
         id="path5" />
      <path
         d="m 383.292,307.227 h 3.66199 v -3.66901 H 383.292 Z"
         transform="matrix(1,0,0,-1,-201.001,456.36799)"
         id="path6" />
      <path
         d="m 370.355,311.469 h 3.676 V 307.8 h -3.676 z"
         transform="matrix(1,0,0,-1,-201.001,456.36799)"
         id="path7" />
      <path
         d="m 374.68,311.469 h 3.648 V 307.8 h -3.648 z"
         transform="matrix(1,0,0,-1,-201.001,456.36799)"
         id="path8" />
      <path
         d="m 378.976,311.469 h 3.67403 V 307.8 H 378.976 Z"
         transform="matrix(1,0,0,-1,-201.001,456.36799)"
         id="path9" />
      <path
         d="m 383.292,311.469 h 3.66199 V 307.8 H 383.292 Z"
         transform="matrix(1,0,0,-1,-201.001,456.36799)"
         id="path10" />
      <path
         d="m 391.91,311.469 h 3.668 V 307.8 h -3.668 z"
         transform="matrix(1,0,0,-1,-201.001,456.36799)"
         id="path11" />
      <path
         d="m 370.355,315.685 h 3.676 v -3.661 h -3.676 z"
         transform="matrix(1,0,0,-1,-201.001,456.36799)"
         id="path12" />
      <path
         d="m 374.68,315.685 h 3.648 v -3.661 h -3.648 z"
         transform="matrix(1,0,0,-1,-201.001,456.36799)"
         id="path13" />
      <path
         d="m 383.292,315.685 h 3.66199 v -3.661 H 383.292 Z"
         transform="matrix(1,0,0,-1,-201.001,456.36799)"
         id="path14" />
      <path
         d="m 387.595,315.685 h 3.672 v -3.661 h -3.672 z"
         transform="matrix(1,0,0,-1,-201.001,456.36799)"
         id="path15" />
      <path
         d="m 391.91,315.685 h 3.668 v -3.661 h -3.668 z"
         transform="matrix(1,0,0,-1,-201.001,456.36799)"
         id="path16" />
      <path
         d="m 374.68,319.923 h 3.648 v -3.664 h -3.648 z"
         transform="matrix(1,0,0,-1,-201.001,456.36799)"
         id="path17" />
      <path
         d="m 378.976,319.923 h 3.67403 v -3.664 H 378.976 Z"
         transform="matrix(1,0,0,-1,-201.001,456.36799)"
         id="path18" />
      <path
         d="m 383.292,319.923 h 3.66199 v -3.664 H 383.292 Z"
         transform="matrix(1,0,0,-1,-201.001,456.36799)"
         id="path19" />
      <path
         d="m 387.595,319.923 h 3.672 v -3.664 h -3.672 z"
         transform="matrix(1,0,0,-1,-201.001,456.36799)"
         id="path20" />
      <path
         d="m 396.215,319.923 h 3.685 v -3.664 h -3.685 z"
         transform="matrix(1,0,0,-1,-201.001,456.36799)"
         id="path21" />
      <path
         d="m 374.68,324.151 h 3.648 v -3.668 h -3.648 z"
         transform="matrix(1,0,0,-1,-201.001,456.36799)"
         id="path22" />
      <path
         d="m 378.976,324.151 h 3.67403 v -3.668 H 378.976 Z"
         transform="matrix(1,0,0,-1,-201.001,456.36799)"
         id="path23" />
      <path
         d="m 383.292,324.151 h 3.66199 v -3.668 H 383.292 Z"
         transform="matrix(1,0,0,-1,-201.001,456.36799)"
         id="path24" />
      <path
         d="m 387.595,324.151 h 3.672 v -3.668 h -3.672 z"
         transform="matrix(1,0,0,-1,-201.001,456.36799)"
         id="path25" />
      <path
         d="m 391.91,324.151 h 3.668 v -3.668 h -3.668 z"
         transform="matrix(1,0,0,-1,-201.001,456.36799)"
         id="path26" />
      <path
         d="m 396.215,324.151 h 3.685 v -3.668 h -3.685 z"
         transform="matrix(1,0,0,-1,-201.001,456.36799)"
         id="path27" />
      <path
         d="m 400.524,324.151 h 3.67 v -3.668 h -3.67 z"
         transform="matrix(1,0,0,-1,-201.001,456.36799)"
         id="path28" />
      <path
         d="m 409.159,324.151 h 3.668 v -3.668 h -3.668 z"
         transform="matrix(1,0,0,-1,-201.001,456.36799)"
         id="path29" />
      <path
         d="m 383.292,328.38 h 3.66199 v -3.667 H 383.292 Z"
         transform="matrix(1,0,0,-1,-201.001,456.36799)"
         id="path30" />
      <path
         d="m 387.595,328.38 h 3.672 v -3.667 h -3.672 z"
         transform="matrix(1,0,0,-1,-201.001,456.36799)"
         id="path31" />
      <path
         d="m 396.215,328.38 h 3.685 v -3.667 h -3.685 z"
         transform="matrix(1,0,0,-1,-201.001,456.36799)"
         id="path32" />
      <path
         d="m 404.84,328.38 h 3.667 v -3.667 h -3.667 z"
         transform="matrix(1,0,0,-1,-201.001,456.36799)"
         id="path33" />
      <path
         d="m 378.976,332.61 h 3.67403 v -3.671 H 378.976 Z"
         transform="matrix(1,0,0,-1,-201.001,456.36799)"
         id="path34" />
      <path
         d="m 383.292,332.61 h 3.66199 v -3.671 H 383.292 Z"
         transform="matrix(1,0,0,-1,-201.001,456.36799)"
         id="path35" />
      <path
         d="m 387.595,332.61 h 3.672 v -3.671 h -3.672 z"
         transform="matrix(1,0,0,-1,-201.001,456.36799)"
         id="path36" />
      <path
         d="m 391.91,332.61 h 3.668 v -3.671 h -3.668 z"
         transform="matrix(1,0,0,-1,-201.001,456.36799)"
         id="path37" />
      <path
         d="m 396.215,332.61 h 3.685 v -3.671 h -3.685 z"
         transform="matrix(1,0,0,-1,-201.001,456.36799)"
         id="path38" />
      <path
         d="m 404.84,332.61 h 3.667 v -3.671 h -3.667 z"
         transform="matrix(1,0,0,-1,-201.001,456.36799)"
         id="path39" />
      <path
         d="m 426.382,332.61 h 3.68799 v -3.671 H 426.382 Z"
         transform="matrix(1,0,0,-1,-201.001,456.36799)"
         id="path40" />
      <path
         d="m 383.292,336.844 h 3.66199 v -3.668 H 383.292 Z"
         transform="matrix(1,0,0,-1,-201.001,456.36799)"
         id="path41" />
      <path
         d="m 391.91,336.844 h 3.668 v -3.668 h -3.668 z"
         transform="matrix(1,0,0,-1,-201.001,456.36799)"
         id="path42" />
      <path
         d="m 400.524,336.844 h 3.67 v -3.668 h -3.67 z"
         transform="matrix(1,0,0,-1,-201.001,456.36799)"
         id="path43" />
      <path
         d="m 409.159,336.844 h 3.668 v -3.668 h -3.668 z"
         transform="matrix(1,0,0,-1,-201.001,456.36799)"
         id="path44" />
      <path
         d="m 396.215,341.074 h 3.685 v -3.671 h -3.685 z"
         transform="matrix(1,0,0,-1,-201.001,456.36799)"
         id="path45" />
      <path
         d="m 404.84,341.074 h 3.667 v -3.671 h -3.667 z"
         transform="matrix(1,0,0,-1,-201.001,456.36799)"
         id="path46" />
      <path
         d="m 400.524,345.298 h 3.67 v -3.668 h -3.67 z"
         transform="matrix(1,0,0,-1,-201.001,456.36799)"
         id="path47" />
      <path
         d="m 409.159,345.298 h 3.668 v -3.668 h -3.668 z"
         transform="matrix(1,0,0,-1,-201.001,456.36799)"
         id="path48" />
      <path
         d="m 417.762,345.298 h 3.674 v -3.668 h -3.674 z"
         transform="matrix(1,0,0,-1,-201.001,456.36799)"
         id="path49" />
      <path
         d="m 396.215,349.537 h 3.685 v -3.67401 h -3.685 z"
         transform="matrix(1,0,0,-1,-201.001,456.36799)"
         id="path50" />
      <path
         d="m 417.762,353.766 h 3.674 v -3.67401 h -3.674 z"
         transform="matrix(1,0,0,-1,-201.001,456.36799)"
         id="path51" />
      <path
         d="m 430.69,353.766 h 3.677 v -3.67401 h -3.677 z"
         transform="matrix(1,0,0,-1,-201.001,456.36799)"
         id="path52" />
      <path
         d="m 417.762,357.996 h 3.674 v -3.677 h -3.674 z"
         transform="matrix(1,0,0,-1,-201.001,456.36799)"
         id="path53" />
      <path
         d="m 417.762,362.224 h 3.674 v -3.672 h -3.674 z"
         transform="matrix(1,0,0,-1,-201.001,456.36799)"
         id="path54" />
      <path
         d="m 422.085,366.454 h 3.66199 v -3.67497 H 422.085 Z"
         transform="matrix(1,0,0,-1,-201.001,456.36799)"
         id="path55" />
    </g>
    <path
       d="m 360.299,315.384 h 9.38103 v -1.759 H 360.299 Z"
       fill="#231f20"
       transform="matrix(1,0,0,-1,-201.001,456.36799)"
       id="path56" />
    <g
       clip-path="url(#b)"
       id="g87">
      <path
         d="m 0,0 c -1.507,0.164 -1.432,-0.31 -3.425,-0.631 -1.992,-0.327 -3.122,-2.39 -1.125,-2.161 2.001,0.246 2.877,0.322 4.635,1.049 C 1.834,-1.032 0,0 0,0 m 1.528,-7.408 c -2.075,0.231 -1.91,-0.476 -2.484,-0.759 -0.719,-0.354 1.358,-0.679 2.963,-0.614 1.594,0.093 1.594,1.132 -0.479,1.373 m 18.411,-43.336 h 0.578 15.148 C 31.291,-55.642 21,-63.935 -2.315,-72.209 -43.658,-86.905 -84.063,-69.264 -60.407,-35.673 -37.276,-2.792 -0.637,4.958 3.198,5.594 7.02,6.235 13.417,6.633 10.304,5.68 7.186,4.709 1.361,2.314 1.692,1.445 2.007,0.56 5.835,1.519 7.976,1.847 10.144,2.16 10.144,0.647 8.864,0 7.594,-0.631 6.557,0 7.347,-0.788 8.156,-1.592 7.678,-2.144 6.384,-2.708 5.118,-3.267 1.603,-3.021 0.402,-4.151 -0.795,-5.252 2.63,-5.252 5.033,-4.3 c 2.4,0.953 2.943,1.196 5.594,1.354 2.626,0.154 0.153,-1.443 1.43,-1.998 1.28,-0.556 7.749,0.72 6.071,-0.308 -1.674,-1.046 3.196,-1.046 -0.167,-2.008 -3.353,-0.955 -34.792,-4.47 -58.894,-20.272 -24.108,-15.8 -27.296,-48.515 13.729,-40.376 29.91,5.934 42.42,19.592 47.01,26.549 v -9.385 z"
         fill="#918f90"
         transform="matrix(1,0,0,-1,148.83979,102.77347)"
         id="path57" />
      <path
         d="m 0,0 c 0,10.805 8.747,19.554 19.546,19.554 10.813,0 19.562,-8.749 19.562,-19.554 0,-10.795 -8.749,-19.544 -19.562,-19.544 C 8.747,-19.544 0,-10.795 0,0"
         fill="#f68b1e"
         transform="matrix(1,0,0,-1,116.33838,142.37168)"
         id="path58" />
      <path
         d="M 0,0 C -0.854,1.924 0.02,4.186 1.945,5.053 3.883,5.902 6.15,5.039 7.008,3.107 7.879,1.173 7.008,-1.091 5.069,-1.952 3.138,-2.815 0.87,-1.934 0,0"
         fill="#ffffff"
         transform="matrix(1,0,0,-1,122.62448,133.85309)"
         id="path59" />
      <path
         d="m 0,0 c 0,0.879 -3.751,0.951 -4.307,0.151 -0.554,-0.79 -2.549,-0.479 -2.722,-1.192 -0.142,-0.73 1.684,-0.556 3.278,0.069 C -2.14,-0.328 0,-0.88 0,0"
         fill="#918f90"
         transform="matrix(1,0,0,-1,166.24219,97.095798)"
         id="path60" />
      <path
         d="m 0,0 c -0.556,0.632 -4.231,0.878 -5.349,0.322 -1.124,-0.567 -2.556,-1.131 -3.271,-1.131 -0.717,0 0.327,-0.876 2.239,-0.876 1.908,0 1.673,0.489 3.585,0.166 C -0.879,-1.838 0.554,-0.645 0,0"
         fill="#918f90"
         transform="matrix(1,0,0,-1,169.03809,99.57037)"
         id="path61" />
      <path
         d="M 0,0 C -1.985,-0.483 -2.467,-0.721 -3.514,-0.966 -4.551,-1.204 -3.589,-2 -1.274,-1.52 1.042,-1.05 1.755,-0.884 2.871,-0.81 4,-0.721 3.831,0.312 2.469,0.395 1.123,0.47 0,0 0,0"
         fill="#918f90"
         transform="matrix(1,0,0,-1,163.68939,102.92148)"
         id="path62" />
      <path
         d="M 0,0 C -0.606,0.907 -2.476,0.317 -3.275,-0.162 -4.056,-0.648 -3.908,-0.717 -2.555,-0.958 -1.192,-1.2 0.042,-0.406 0,0"
         fill="#918f90"
         transform="matrix(1,0,0,-1,172.14688,102.20419)"
         id="path63" />
      <path
         d="M 0,0 C -0.499,0.238 -4.465,-0.322 -5.102,-0.163 -5.743,0 -6.621,-0.797 -7.981,-0.797 c -1.355,0 -3.502,-0.086 -2.707,-0.958 0.801,-0.877 4.233,-0.404 5.74,-0.077 1.532,0.31 3.115,1.035 4.557,0.711 C 1.038,-1.433 0.201,-0.053 0,0"
         fill="#918f90"
         transform="matrix(1,0,0,-1,177.0947,104.04358)"
         id="path64" />
      <path
         d="m 264.611,315.447 h 48.198 v -1.762 h -48.198 z"
         fill="#231f20"
         transform="matrix(1,0,0,-1,-201.001,456.36799)"
         id="path65" />
      <path
         d="m 337.792,240.183 h -1.742 v 48.2 h 1.742 z"
         fill="#231f20"
         transform="matrix(1,0,0,-1,-201.001,456.36799)"
         id="path66" />
      <path
         d="m 337.792,340.122 h -1.742 v 48.188 h 1.742 z"
         fill="#231f20"
         transform="matrix(1,0,0,-1,-201.001,456.36799)"
         id="path67" />
      <path
         d="m 396.258,315.384 h 139.65499 v -1.759 H 396.258 Z"
         fill="#231f20"
         transform="matrix(1,0,0,-1,-201.001,456.36799)"
         id="path68" />
      <path
         d="m 0,0 c 0,1.934 1.573,3.508 3.518,3.508 1.946,0 3.51,-1.574 3.51,-3.508 0,-1.943 -1.564,-3.518 -3.51,-3.518 C 1.573,-3.518 0,-1.943 0,0"
         fill="#d82c25"
         transform="matrix(1,0,0,-1,334.77543,141.85898)"
         id="path69" />
      <path
         d="M 0,0 C 0,1.931 1.559,3.506 3.509,3.506 5.455,3.506 7.028,1.931 7.028,0 7.028,-1.946 5.455,-3.527 3.509,-3.527 1.559,-3.527 0,-1.946 0,0"
         fill="#d82c25"
         transform="matrix(1,0,0,-1,132.4057,64.644199)"
         id="path70" />
      <path
         d="m 0,0 c 0,1.075 -0.291,1.925 -0.875,2.543 -0.593,0.622 -1.49,0.932 -2.695,0.932 h -7.982 v -7.044 h 7.921 c 1.24,0 2.163,0.334 2.756,1.006 C -0.291,-1.884 0,-1.036 0,0 m -0.838,13.966 c 0,0.797 -0.213,1.481 -0.663,2.043 -0.451,0.55 -1.271,0.832 -2.488,0.832 h -7.563 v -5.755 h 7.563 c 1.179,0 2.001,0.261 2.467,0.793 0.459,0.517 0.684,1.216 0.684,2.087 M 9.847,0.186 c 0,-3.719 -1.126,-6.592 -3.368,-8.626 -2.251,-2.043 -5.667,-3.062 -10.262,-3.062 h -17.408 v 36.265 h 17.523 c 4.48,0 7.723,-0.813 9.711,-2.439 C 8.02,20.695 9.025,18.367 9.025,15.319 9.025,13.343 8.59,11.83 7.742,10.8 6.902,9.763 5.872,8.898 4.661,8.206 6.321,7.523 7.608,6.531 8.498,5.233 9.402,3.946 9.847,2.259 9.847,0.186"
         fill="#231f20"
         transform="matrix(1,0,0,-1,181.54489,204.42879)"
         id="path71" />
      <path
         d="m 396.425,276.702 h 10.273 v -36.26 h -10.273 z"
         fill="#231f20"
         transform="matrix(1,0,0,-1,-201.001,456.36799)"
         id="path72" />
      <path
         d="m 0,0 -8.659,11.966 c -0.418,0.555 -0.881,1.235 -1.448,2.045 -0.557,0.816 -1.108,1.628 -1.631,2.436 -0.537,0.812 -1.036,1.59 -1.507,2.318 -0.453,0.712 -0.823,1.287 -1.062,1.697 0.069,-0.41 0.112,-0.988 0.154,-1.733 0.038,-0.749 0.069,-1.556 0.1,-2.439 0.038,-0.877 0.061,-1.786 0.061,-2.719 V 11.091 0 h -9.634 v 36.26 h 8.855 L -6.79,25.537 c 0.415,-0.549 0.911,-1.233 1.472,-2.076 0.575,-0.815 1.136,-1.647 1.685,-2.482 0.554,-0.826 1.057,-1.612 1.507,-2.326 0.451,-0.728 0.78,-1.285 0.981,-1.654 -0.068,0.406 -0.121,0.981 -0.149,1.73 -0.034,0.745 -0.078,1.548 -0.122,2.434 -0.021,0.888 -0.037,1.782 -0.037,2.72 v 2.492 9.885 H 8.181 V 0 Z"
         fill="#231f20"
         transform="matrix(1,0,0,-1,234.59958,215.92589)"
         id="path73" />
      <path
         d="m 0,0 c -0.804,-2.03 -1.935,-3.705 -3.375,-4.996 -1.433,-1.288 -3.109,-2.233 -5.069,-2.819 -1.961,-0.581 -4.062,-0.884 -6.347,-0.884 -2.279,0 -4.39,0.303 -6.324,0.884 -1.936,0.586 -3.604,1.531 -4.998,2.819 -1.389,1.291 -2.488,2.966 -3.28,4.996 -0.815,2.033 -1.202,4.502 -1.202,7.354 v 20.769 h 10.254 V 7.354 c 0,-2.243 0.462,-4.007 1.374,-5.28 0.927,-1.285 2.35,-1.92 4.325,-1.92 1.976,0 3.402,0.635 4.272,1.92 0.887,1.273 1.333,3.037 1.333,5.28 V 28.123 H 1.218 V 7.354 C 1.218,4.502 0.813,2.033 0,0"
         fill="#231f20"
         transform="matrix(1,0,0,-1,278.1904,207.79409)"
         id="path74" />
      <path
         d="m 0,0 c 0,-2.068 -0.378,-3.839 -1.119,-5.334 -0.74,-1.48 -1.781,-2.691 -3.116,-3.626 -1.321,-0.918 -2.897,-1.622 -4.726,-2.073 -1.832,-0.446 -3.835,-0.674 -6.012,-0.674 -2.937,0 -5.741,0.432 -8.417,1.28 -2.675,0.846 -4.962,1.883 -6.874,3.125 l 4.878,7.877 c 0.653,-0.452 1.425,-0.894 2.31,-1.315 0.87,-0.44 1.79,-0.832 2.745,-1.166 0.941,-0.351 1.902,-0.619 2.87,-0.835 0.97,-0.202 1.863,-0.315 2.696,-0.315 1.789,0 3.041,0.178 3.696,0.531 0.678,0.335 1.026,0.94 1.026,1.804 0,0.339 -0.102,0.659 -0.285,0.931 -0.2,0.276 -0.537,0.55 -1.003,0.81 -0.463,0.261 -1.078,0.516 -1.881,0.778 -0.795,0.25 -1.798,0.523 -3.006,0.804 -2.174,0.508 -4.08,1.061 -5.69,1.651 -1.64,0.587 -2.981,1.324 -4.041,2.205 -1.075,0.878 -1.885,1.938 -2.422,3.193 -0.529,1.236 -0.8,2.767 -0.8,4.6 0,1.689 0.337,3.245 1.006,4.662 0.686,1.42 1.641,2.622 2.885,3.627 1.24,1.003 2.733,1.774 4.499,2.33 1.764,0.556 3.73,0.833 5.909,0.833 3.111,0 5.808,-0.364 8.106,-1.088 2.296,-0.727 4.417,-1.76 6.345,-3.105 L -5.29,13.634 c -1.625,1.098 -3.24,1.948 -4.866,2.531 -1.623,0.59 -3.371,0.884 -5.234,0.884 -1.521,0 -2.52,-0.205 -3.002,-0.615 -0.478,-0.423 -0.719,-0.957 -0.719,-1.614 0,-0.341 0.092,-0.651 0.273,-0.897 0.182,-0.263 0.521,-0.506 0.952,-0.731 0.461,-0.217 1.07,-0.454 1.815,-0.681 0.758,-0.217 1.739,-0.474 2.907,-0.747 2.278,-0.552 4.256,-1.152 5.911,-1.809 C -5.598,9.291 -4.235,8.526 -3.168,7.627 -2.093,6.72 -1.298,5.648 -0.776,4.408 -0.263,3.164 0,1.7 0,0"
         fill="#231f20"
         transform="matrix(1,0,0,-1,313.082,204.79308)"
         id="path75" />
      <g
         fill="#0097da"
         id="g85">
        <path
           d="m 0,0 c -6.134,0 -10.269,4.137 -10.269,11.538 v 14.261 h 5.08 V 11.61 c 0,-4.062 1.959,-6.64 5.189,-6.64 3.229,0 5.224,2.504 5.224,6.568 v 14.261 h 5.08 V 11.61 C 10.304,4.245 6.458,0 0,0"
           transform="matrix(1,0,0,-1,170.5874,256.00398)"
           id="path76" />
        <path
           d="m 0,0 -9.326,13.86 c -0.616,0.945 -1.452,2.213 -1.777,2.867 0,-0.943 0.072,-4.136 0.072,-5.551 V 0 h -5.007 v 25.4 h 4.863 L -2.178,11.974 C -1.56,11.031 -0.727,9.76 -0.4,9.106 c 0,0.945 -0.072,4.138 -0.072,5.553 V 25.4 H 4.536 V 0 Z"
           transform="matrix(1,0,0,-1,203.28018,255.60558)"
           id="path77" />
        <path
           d="m 415.711,226.163 h 5.08 v -25.4 h -5.08 z"
           transform="matrix(1,0,0,-1,-201.001,456.36799)"
           id="path78" />
        <path
           d="m 0,0 h -4.935 l -9.035,25.4 h 5.624 l 4.79,-14.696 c 0.472,-1.415 0.98,-3.267 1.198,-4.173 0.217,0.944 0.689,2.685 1.161,4.173 L 3.483,25.4 h 5.551 z"
           transform="matrix(1,0,0,-1,238.83979,255.60558)"
           id="path79" />
        <path
           d="M 0,0 V 25.4 H 17.635 V 20.429 H 5.08 v -4.391 h 7.294 V 11.104 H 5.08 V 4.971 H 18.179 V 0 Z"
           transform="matrix(1,0,0,-1,252.5918,255.60558)"
           id="path80" />
        <path
           d="M 0,0 H -6.64 V -6.53 H 0 c 2.358,0 3.629,1.089 3.629,3.301 C 3.629,-0.942 2.25,0 0,0 m 3.011,-20.464 -4.535,9.145 H -6.64 v -9.145 h -5.08 V 4.937 H 0.108 c 4.79,0 8.746,-2.65 8.746,-8.056 0,-3.811 -1.633,-6.205 -4.863,-7.476 l 4.863,-9.869 z"
           transform="matrix(1,0,0,-1,287.8974,235.14168)"
           id="path81" />
        <path
           d="m 0,0 c -4.246,0 -7.945,1.777 -9.869,4.607 l 3.665,3.266 C -4.427,5.806 -2.141,4.97 0.29,4.97 c 3.012,0 4.428,0.836 4.428,2.758 0,1.632 -0.871,2.358 -5.661,3.447 -4.68,1.088 -7.947,2.577 -7.947,7.584 0,4.608 4.064,7.437 9.072,7.437 3.955,0 6.858,-1.487 9.253,-3.991 L 5.77,18.649 C 4.137,20.318 2.322,21.263 0,21.263 c -2.722,0 -3.628,-1.162 -3.628,-2.286 0,-1.597 1.088,-2.105 5.115,-3.048 C 5.516,14.985 9.979,13.606 9.979,8.091 9.979,3.266 6.931,0 0,0"
           transform="matrix(1,0,0,-1,310.7207,256.00398)"
           id="path82" />
        <path
           d="m 527.434,226.163 h 5.08006 v -25.4 H 527.434 Z"
           transform="matrix(1,0,0,-1,-201.001,456.36799)"
           id="path83" />
        <path
           d="M 0,0 V -20.392 H -5.079 V 0 h -7.293 V 5.009 H 7.294 V 0 Z"
           transform="matrix(1,0,0,-1,349.1465,235.21398)"
           id="path84" />
        <path
           d="m 0,0 v -10.051 h -5.08 v 9.943 l -9.615,15.458 h 5.842 l 3.592,-6.026 c 0.907,-1.522 2.285,-4.026 2.758,-4.97 0.471,0.944 1.815,3.375 2.758,4.97 l 3.592,6.026 h 5.769 z"
           transform="matrix(1,0,0,-1,373.56639,245.55478)"
           id="path85" />
      </g>
      <path
         d="M 0,0 C 0,1.94 1.577,3.515 3.518,3.515 5.452,3.515 7.023,1.94 7.023,0 7.023,-1.937 5.452,-3.511 3.518,-3.511 1.577,-3.511 0,-1.937 0,0"
         fill="#d82c25"
         transform="matrix(1,0,0,-1,132.4375,219.57918)"
         id="path86" />
      <path
         d="M 0,0 C 0,1.937 1.561,3.513 3.507,3.513 5.453,3.513 7.013,1.937 7.013,0 7.013,-1.937 5.453,-3.512 3.507,-3.512 1.561,-3.512 0,-1.937 0,0"
         fill="#d82c25"
         transform="matrix(1,0,0,-1,56.705995,141.80237)"
         id="path87" />
    </g>
  </g>
</svg>
