<svg version="1.2" xmlns="http://www.w3.org/2000/svg" viewBox="0 0 1549 1108" width="1549" height="1108"><defs><clipPath clipPathUnits="userSpaceOnUse" id="cp1"><path d="m-2747-2930h4790v6773h-4790z"/></clipPath></defs><style>.a{fill:#bb8740}.b{fill:#c6203e}.c{fill:none;stroke:#000;stroke-miterlimit:10;stroke-width:5}.d{fill:#fff}</style><g clip-path="url(#cp1)"><path fill-rule="evenodd" class="a" d="m1253.7 731.1c33.1 3.7 33 17.4 31.1 21.6-1.8 4.2-24.6 85.2-30.2 95.9-5.6 10.7-19 15.8-55.3 11.6-36.3-4.2-76-19-76-19 0 0-8.2 23.7-9.8 26.9-1.9 4.1-12.9 19-34.7 11.7-21.9-7.3-138.3-56.2-314.6-59.3-101.7-1.8-176.9 15.4-237.1 32.9-44.4 13-87.2 28.5-92.3 30.7-26.3 5.1-31.5-8.8-33-15.2-1.9-7.4-7.8-27.4-7.8-27.4 0 0-37.9 14.5-74.2 18.7-36.3 4.2-51.5-0.6-57.1-11.3-5.6-10.7-28.4-91.7-30.2-95.9-1.9-4.2-1.1-16.3 31.9-20 0.4-0.1-0.1-0.6-0.8-1.6-4.5-6.3-17.2-24-17.2-24 0 0 14-4.8 45.2-5.3 9.8-0.2 11.5 5.3 13.2 10.9 1.8 5.6 12.7 39.7 12.7 39.7 0 0 24.1-8.4 39.8-15.3 15.7-6.8 42.8-23.4 57.5-11.1 2.9 4.3 9.3 27.3 9.3 27.5 0 0 0-0.3 2.1-0.9 16.5-5.7 54.4-18 108.4-30.5 59.6-13.8 138.5-28.8 232.7-27.6 101.1 1.3 180 18.9 235.3 32 49.8 11.7 82.5 21.4 92.4 24.4 1.3-5.9 5.1-21.7 7.6-25.2 14.6-12.3 42.8 3 58.6 9.8 15.7 6.8 40.7 14.1 40.7 14.1 0 0 8.9-31.7 10.3-37.4 1.4-5.6 1.9-11.2 13.5-10.7 32.1 1.2 45.2 5.2 45.2 5.2 0 0-12.7 17.8-17.2 24.1zm-829.6 22.7q0 0 0 0 0 0 0 0zm784.5-2.8c8.3 1.2 21.8 6.5 32.9 7.4 17.6 1.6 26.3-1.4 31.1-13.2-14.2-14-55.2-1.1-51.9-32.7-5 12.9-7.7 25-12.1 38.5zm-963.9-5.5c5.9 8.9 14.9 14.7 32.4 13.2 11.1-1 24.2-3.9 32.4-5.1-4.3-13.5-7.9-27.9-12.9-40.7 3.3 31.5-34.1 23.5-51.9 32.6zm148 88.1c-4.8-16.9-9.7-33.9-14.8-51-1.6-5.6-4.7-12.9-4.9-17.4-0.2-3.5 2.1-8.4 2.7-9.9 5.5-12.8 27.9-11.5 29.5-24.6-8.3-5.5-15.9 3.9-23.3 7.2-14.7 6.6-28.5 13.1-44.1 18.7-10.7 3.8-21.3 8.5-32.9 11.1-22.1 5.1-55.4 5.1-64.2-14.6 7.5 25.6 16.8 53.4 24.6 78.7 1.3 4 1.5 8.3 3.1 11.6 3.3 6.6 12.1 9.3 20.2 9.8 19.3 1.2 38.2-2.4 55.8-5.8 17.5-3.3 34.3-8 48.3-13.8zm24.1-77.4c-1.7-4.5-3.4-12.9-5.4-18.8-5.6 11.1-21.1 12.3-29 21.1 11.4 3 24.5 0.2 34.4-2.3zm718.1 1.9c-7.9-8.7-23.4-9.9-29-20.9-2 5.7-2.3 11.1-4 15.7 9.8 2.4 21.6 8.3 33 5.2zm141.7-5.3c-8.7 19.7-39.5 13.5-61.7 8.5-11.6-2.7-22.3-4.7-33.1-8.5-15.6-5.5-30-11.3-44.7-17.9-7.3-3.3-17.9-9.1-25-4.5 1.6 13.1 23.6 11.9 29.5 24.6 1.4 3 2.5 8 2.3 11.5-0.2 4.5-2.9 10.2-4.5 15.8-5.1 17.1-10 34.1-14.8 50.9 14 5.9 30.8 10.5 48.3 13.9 17.6 3.4 36.5 7 55.9 5.8 8-0.5 16.8-3.2 20.1-9.8 1.6-3.3 1.9-7.6 3.1-11.6 7.8-25.4 17.1-53.1 24.6-78.7z"/><path class="b" d="m381.3 768.4c0 0 6.4 4.2 22.5 0.4 7.8-1.8 13.2-4.2 29.2-8.9 66.8-19.5 196.9-56.1 323.2-56.1 138.6 0 289.6 43.7 350.6 60.8 17.7 5 28.5 2.8 28.5 2.8 0 0-28 92.8-29.7 97.2-2.6 6.7-14 9.7-26.5 6.1-43.6-12.4-147.2-58.6-320.9-59-188.9-0.5-278.5 52.3-326 62.2-14.9 3.1-19.9-5-19.9-5zm833.6-7c-11.5-2.7-22.3-4.7-33-8.5-15.6-5.6-30-11.4-44.7-17.9-7.4-3.3-19.1-9.4-25-4.5 1.5 13.1 23.6 11.9 29.5 24.6 1.3 2.9 2.4 8 2.3 11.5-0.2 4.5-2.9 10.1-4.6 15.7-5 17.1-9.9 34.2-14.7 51 14 5.9 30.7 10.5 48.2 13.9 17.7 3.3 36.5 7 55.9 5.8 8-0.5 16.9-3.2 20.1-9.9 1.6-3.2 1.9-7.5 3.1-11.6 7.9-25.3 17.1-53 24.6-78.6-8.7 19.7-39.5 13.5-61.7 8.5z"/><path class="a" d="m908.7 346.5l-26.5 52.2-23.9 23.9 10.4 18c0 0-4.2 17.7 1.8 25.1 6.1 7.5 9.4 10.8 9.4 10.8l21.6-32.2c0 0-10-10.7-7.2-20.5 2.8-9.7 19.1-29.3 19.1-29.3l1.4-29.8zm294.4 196c-0.2-5.4-2.1-9.7-5.7-12.7-4.6-3.9-10.7-4.6-14.4-4.7 0.4-2.5 0.6-5.1 0.5-8-0.1-6.8-2.3-13-6.1-17.8 4.8-4 7.4-8.6 7.5-13.6 0.1-7.4-5.3-13.3-7.8-15.6 1.5-17.3-5.4-28.9-20-33.8-9-3-16 4-17.6 5.8-3-1.2-6.2-1.7-9.4-1.3-4.9 0.7-8.6 3-10.5 6.7-1.7 3.4-1.5 7.8 0.4 11.2 0.7 1.1 0.9 2.1 1 2.6-23.2 0.6-29.5 14.7-31.1 23.1-0.9 4.1-1.2 8.7-1.3 12.1-3.7-2.1-7.6-3.4-10.1-4.1 0.7-5.1 0-10.3-0.5-13 11-7.5 11.8-16.4 11.2-21.3 5.3-0.6 9.4-2.6 12.2-6 4.1-4.8 4.4-11.2 4.2-14.8 5.1-1.1 9-3.5 11.8-7.3 4.8-6.6 4.4-15.3 4-19 13.9-11.3 10.1-27.5 5.5-35.7 3.5-6.9 4.1-13.1 1.8-18.5-2.9-7.1-10-10.7-13.5-12-0.3-7.9-2.9-14.2-7.9-18.5-7.8-7-19.1-6.9-23.1-6.7-2.3-2.4-8-7.8-15.4-9.7-7-1.7-11.5 2.1-15.1 5.3-1.9 1.6-3.6 3.1-5.5 3.8-4 1.5-12 1-22.3 0.4-4.8-0.3-10.2-0.7-16.1-0.9-20-0.6-34.1 4.9-38.6 15.4-2.9 6.6-3.2 11.3-3 13.9q-4.2 2.8-4.3 6.5v0.2c-8.1-1.5-17.7 2.9-20.2 13.3-2.3 9.6 3 15.7 6.2 19.4q0.5 0.6 0.9 1.1c1.3 1.5 1.5 4.2 1.5 6.1-4.1 0.7-9.6 3.4-11.3 10.3-1 3.5-0.8 6.6 0.5 9.5-6.8-1.6-10.5-1.5-12.4 0.6l-0.1 0.2c-3.7 5-4.1 8.9-3.6 11.7-3.6 0.7-9 2.5-12.5 7.2-2.3 2.9-3.4 4.4-4 5.3-2.6 0.3-4.8 0-6.6-0.6q-0.3-0.1-0.6-0.2c-0.7-0.3-1.4-0.7-1.9-1.2-2.8-2.2-3.5-6.1-3.6-8.9-0.2-6.3 1.3-8.5 1.7-9l0.6-0.5c20.8-22.4 27.4-31.4 30.7-42 4.1-12.8 1.1-27.6-4.1-34.5-4.1-5.5-11.1-4-15.7-1.7-0.6 0.1-1.2 0.4-1.7 0.9q-0.3 0.2-0.7 0.5l0.2 0.3q0 0.1 0 0.1c-1.7 4.6-2.5 14 4.6 19.2-0.9 0.4-1.9 1-2.7 1.7-1.4-1.8-3-3-4.3-3.5-1.4-0.7-3-0.1-3.7 1.3-0.7 1.4-0.1 3 1.3 3.7 0.1 0 5.3 2.6 4.1 10.1-1.7 10.2-4.9 16.7-10.9 21.5l-0.6 0.6c-7 5.7-13.6 11.2-10.4 19.1 1.6 3.9 4 5.7 6.3 6.3-0.2 1.7-0.4 3.7-0.3 6.1 0.2 5.5 2 9.9 5.3 12.8-5.9 4.4-16.6 14.4-18.6 30.1-2.7-3.7-4.8-8-6.4-13.1-4.3-13.8 2.1-20.5 2.4-20.7l-3.9-4.1q-1.3 1.3-2.1 1c-2.1-0.6-4.7-6.1-5.7-9.9-0.4-1.5-1.9-2.4-3.4-2-1.5 0.4-2.4 1.9-2 3.4 0.5 2 3.4 11.9 9.3 13.8-1.7 4.4-2.7 11.1 0.1 20.2 5.9 18.8 18.2 29.1 38.8 32.3q0.3 0 0.4 0c0.2 0 0.3 0 0.4 0 5.3 14.8 16.4 29.3 42.2 32.2 0.9 2.4 2 4.5 3.1 6.2 2.3 3.5 5.3 6.2 8.7 8.3-3.8 4-13.6 14-20.6 18-5.5 3.1-6.5 2.3-10-0.6-1.2-0.9-2.5-2-4.2-3.1-0.9-0.5-1.8-1.1-2.7-1.8-6.9-4.7-17.4-11.9-29-3.7l-0.3 0.2q-0.5 0.5-0.9 1c-0.5-0.1-0.8 0-1.4-0.1-0.3 0-0.8 0-1.3 0-3.3-0.1-9.5-0.2-13.8 2.9-4.4 3.3-7.5 8.2-8.4 9.6-31.7 0.9-57.3 27-57.3 59 0 32.5 26.5 59.1 59.1 59.1 32.6 0 59.1-26.6 59.1-59.1 0-3.4-0.3-6.6-0.9-9.8 1.4-0.2 13.4-1.9 18.3-7.8 3.6-4.4 16.1-18 34.6-20.9-14.2 19.8-6.1 43.6-1.7 56.5q0.6 1.7 1 3.2c3.6 10.8 3.8 13.3-1.1 20.2-2.7 3.7-14.9 2.5-22.1 1.8-6.2-0.6-9.8-0.9-12-0.1-2.4 1-3.9 2.4-4.8 3.9-11.1-4.4-20.6-0.8-25.7 4.1-3.6 3.3-5.1 7.4-4.1 10.5 2 5.5 11.4 7 21.4 8.6 2.6 0.4 5.1 0.8 7.1 1.3 2.2 0.5 6.3 1.5 11.4 2.8 13.3 3.4 33.3 8.4 45.5 10.2 9.9 1.5 27.5 7.5 41.7 12.4 9.8 3.4 18.3 6.3 22.7 7.2 2.8 0.5 5.6 1 8.3 1 2.8 0 5.5-0.5 7.9-2.1 3.3-2.3 5.4-6.5 6.4-13 0.5-3 0.7-5.6 0.9-8 0.7-8 1-10.7 9.9-13.4 9.6-2.8 10.8-5.4 9.7-12.7-0.4-3-0.9-7-0.3-12.9 1.3-12 4.8-13.3 11.8-15.8 2.2-0.7 4.5-1.6 7.1-2.8 1.7-0.8 3.3-1.6 4.9-2.3 8.4-3.8 15.8-7.1 25.4-21.3 10-14.9 6.8-35.8 5.7-41.5q1.7-2 3.3-4c5.2-6.5 6.7-7.5 9-5.7 1.4 1.1 2.8 2.6 4 4 2.7 3 5.5 6.1 9.4 6 3-0.1 5.9-1.9 9.1-5.8l0.4-0.4 0.1-0.6c1.1-4.1 2.1-8.5 1.2-12.6 1.6-0.4 3.5-1.2 5.2-2.8 3.5-3.2 5.1-8.3 4.9-15.3zm-449.6 131.7c-1-3.8-3.6-8.6-7.2-11.1 2.7-4 4.4-9.9-0.5-15.8-5.7-6.7-13.2-7.4-16.6-7.3-2-2.5-6.8-7.2-14.6-7.2q-5.1 0-10.6 2.8c-0.9-1.7-2.3-3.9-4.4-5.9 1.7-0.4 3.5-1 5.2-1.8 1.8 1.1 5.1 2.6 8.9 2.6 3.3 0 6.3-1 9-3 5.4-4 6.2-12.7 4-19.3-2.5-7.6-8.3-11.8-15.2-10.9l-5.1-7.6c1.1-2.6 1.2-6.5-2.1-10.1 0.2-0.6 0.8-1.8 2.5-3.8 3.8-4.7 3.5-10.4-0.8-15.4 0.6-5.3 1.8-23.2-10.9-30.4-11.6-6.6-23.5-7.9-27-8.1-2.3-1.8-9.4-6.8-18.2-6.8-4.6 0-8.9 1.3-12.8 3.9-2.8-2.9-8.5-7.6-16.5-7.6q-0.9 0-1.8 0.1c1.4-2.1 2.9-4.5 4-7 0.3-1.7 0.2-2 1.3-1.7 7.4-0.8 28.5-4.6 39-25.1 3.5-7.7 4.6-20.8 2.3-28.5 3.4-0.7 8.2-3.5 9.6-12.6 0.7-2-0.3-6.4-9.2-14.1-8.9-7.7-23.7-24.9-30.5-38.2-0.7-1.3-1.8-3.2-2.5-4.6l-0.3-1.4c0 0-4-4.1-1.4-2.4-5.9-12.7-8.5-25.5-8.6-25.7-0.3-0.8-0.9-1.4-1.7-1.7-0.2-0.1-1.7-0.5-3.8-0.5-3.5 0-9.9 1.3-13.4 10.5-4.9 12.9-3.7 31.1 2.7 41.3 3.1 5 9.5 11.5 15.6 17.7 5.4 5.6 12.2 12.6 13 15.1 1 3.5 0.8 9.2-1.4 12.4-1.1 1.5-2.3 2.3-3.9 2.4-4.7 0.3-8 0.9-10 1.3-2-3.8-7-11.3-15.5-11.7-0.1-3-0.9-7.3-3.7-10.5-2.7-3.1-6.6-4.4-11.5-3.9 0.2-3.7-0.2-9.3-3.3-13.6q-3.1-4.3-8.5-5.6c0.2-1.2 1-3.4 3.6-6.4 3.8-4.4 5.8-11.4 5-17.8-0.6-4.9-2.6-8.8-5.8-11.1-4.6-3.3-10.1-3.8-13.6-3.7 0-2.8-1.1-5.9-4.2-8.2 0.2-3.1 0.1-9.4-4-15.6-4.6-7.1-12.9-11.9-24.6-14.2-9.9-2-20.1-3-30.4-3-12.1 0-20.8 1.4-24.3 2-2.8-3-9.9-9.7-17.2-9.7q-0.8 0-1.7 0.1c-7 1.1-13.7 7.2-16.5 10.1-2-0.7-5.5-1.5-9.6-1.5-5.8 0-10.8 1.7-14.9 5-8.2 6.6-9.6 17.4-9.8 22.8-8.2 0-13.9 4.5-15.4 12.4-1.9 9.3 0.5 14.8 2.4 17.5-2.3 3.7-6.5 11.8-4.2 18.1 2.1 5.7 7.5 12.2 9.9 15.1-1.2 3-3 9.4-0.4 15.8 2.2 5.5 7 9.6 14.2 12.3-0.3 4.7 1.2 14.5 16.8 22.1-0.4 5.3 1.3 13.6 10.3 18.6 0 2.8 0.1 8.5 0.3 12.8-2.7 0.2-6.5 1.2-10.6 4.4 0.8-7.8 0.3-18.2-6.1-24.3-7.8-7.3-19.4-9.7-25.3-10.4 1-3.8 1.8-9.9-1-14.6-2.1-3.4-5.6-5.4-10.4-5.9-4.3-0.4-7.8 0.7-10 1.7-2-3-6-7.4-13.3-7.4-3.1 0-6.6 0.8-10.2 2.6-13.3 6.4-15.5 20.7-14.8 28.7-2 1.9-5.9 6.2-6.9 12.7-0.9 5.9 0.7 12 4.7 18.2-3.5 3.9-10.7 13.8-6.6 27.3-5.6 0.3-15.3 2.2-18.2 11.3-3.2 10.2 1.3 17.3 6.7 20.9q0 0.1 0.1 0.2c-0.7 5.1-1.2 17.8 8.2 21.4q2.7 1.1 5 1.1c5.5 0 8.5-4 10.8-7.2 1.1-1.5 2.2-3 3.4-3.8 0-0.1 0.1-0.1 0.2-0.1 2.3 0 6.3 4.2 8.8 7.7 0.2 0.5 0.5 0.9 0.8 1.2 0.9 1.4 1.4 2.5 1.5 3.1 0.1 0.5 0 1.9-0.1 3.4-0.5 7.5-1.6 23.1 6.2 34.9 9.3 14.2 11.8 17 45.1 33 2.1 2.1 4.1 6 2.5 16.5-1.6 10.8 0.7 17.5 0.8 17.8 0.4 1.1 1.4 1.9 2.6 1.9 0.2 0 14.2 0.1 15.9 8.6 0.4 2.2 0.6 4.7 0.7 7.4 0.5 9.2 1.2 21.7 15.8 21.7q2.3 0 5-0.5c10.3-1.7 21.5-4.9 33.3-8.4q6.7-1.9 13.6-3.9 0.2 0 0.4-0.1 0.2 0 0.4-0.1c8-2.2 16.2-4.2 24.7-5.8 1.6-0.3 3.4-0.6 5.2-1q2.5-0.3 5.5-1 4.3-0.8 9-1.7c25.6-4.8 57.6-10.8 80.4-14 7.1-1 13.9-1.5 19.9-2 18.8-1.5 33.7-2.7 33.7-17.2 0-7.7-5.3-12.2-14.1-12.2-1.6 0-3.4 0.2-5.2 0.5 0.7-2.6 1.2-5.7 0.5-8.9 5.7 1.9 14.3 4.7 19.5 6.2 3.4 1 5.7 1.8 7.2 2.3-0.6 1.7-1 3.9-0.6 6.5 0.7 4.2 3.5 8.1 8.1 11.5 0.4 1 1.1 2.8 1.6 4.3 0 0 2.1 4.5 2.9 4.4 0.3-0.1 20.7-3.2 37.4-3.2 1.3 0 2.7 0 4 0.1 4.1 0.2 7.9-1.5 10.1-4.4 1.9-2.4 2.5-5.4 1.7-8.1z"/><path fill-rule="evenodd" d="m751.9 682.3c-2.3 2.9-6.1 4.7-10.2 4.4-1.3 0-2.6 0-4 0-16.7 0-37.1 3.1-37.3 3.1-0.9 0.1-1.8-0.2-2.4-0.8-0.6-0.6-0.6-1.4-0.8-2.4 0 0-0.9-4.5-1.3-5.5-4.7-3.3-7.4-7.2-8.1-11.5-0.4-2.5 0-4.8 0.6-6.5-1.5-0.5-3.8-1.3-7.2-2.2-5.3-1.6-13.9-4.4-19.5-6.2 0.6 3.2 0.2 6.3-0.5 8.8 1.7-0.3 3.5-0.5 5.1-0.5 8.9 0 14.1 4.6 14.1 12.2 0 14.6-14.9 15.7-33.7 17.2-6 0.5-12.8 1.1-19.9 2.1-22.7 3.1-54.7 9.1-80.4 14q-4.6 0.8-8.9 1.6-3.1 0.7-5.6 1.1-2.7 0.5-5.2 0.9c-8.5 1.6-16.7 3.6-24.6 5.8q-0.3 0.1-0.5 0.2-0.2 0-0.4 0.1-6.8 1.9-13.5 3.9c-11.9 3.4-23 6.7-33.4 8.4q-2.7 0.4-5 0.4c-14.5 0-15.2-12.5-15.7-21.6-0.2-2.7-0.3-5.3-0.8-7.4-1.7-8.5-15.7-8.7-15.8-8.7-1.2 0-2.3-0.7-2.7-1.8-0.1-0.3-2.4-7-0.7-17.8 1.6-10.6-0.5-14.4-2.6-16.5-33.2-16-35.7-18.9-45.1-33.1-7.8-11.8-6.7-27.4-6.2-34.9 0.1-1.5 0.2-2.8 0.2-3.3-0.1-0.7-0.7-1.8-1.5-3.1q-0.6-0.5-0.8-1.2c-2.6-3.6-6.6-7.8-8.8-7.8-0.2 0-0.3 0.1-0.3 0.1-1.1 0.9-2.2 2.3-3.3 3.8-2.4 3.2-5.3 7.2-10.8 7.2q-2.4 0-5-1c-9.5-3.7-8.9-16.3-8.3-21.5v-0.2c-5.4-3.5-9.9-10.7-6.7-20.9 2.8-9 12.5-10.9 18.2-11.3-4.1-13.4 3-23.3 6.6-27.2-4.1-6.3-5.7-12.4-4.8-18.2 1-6.5 4.9-10.9 7-12.8-0.7-7.9 1.5-22.3 14.8-28.7q5.4-2.6 10.2-2.6c7.2 0 11.3 4.4 13.2 7.5 2.3-1.1 5.8-2.1 10-1.7 4.9 0.5 8.4 2.4 10.4 5.8 2.8 4.7 2 10.8 1.1 14.7 5.8 0.7 17.4 3 25.2 10.3 6.5 6.1 6.9 16.5 6.1 24.4 4.1-3.3 8-4.3 10.7-4.5-0.3-4.3-0.4-9.9-0.4-12.7-8.9-5.1-10.7-13.4-10.2-18.7-15.6-7.6-17.1-17.4-16.8-22.1-7.3-2.7-12.1-6.8-14.3-12.2-2.6-6.4-0.8-12.8 0.5-15.9-4.5-4.8-8.5-8.6-9.9-15.1-1.4-6.6 1.9-14.4 4.1-18.1-1.8-2.6-4.2-8.1-2.4-17.5 1.6-7.8 7.2-12.3 15.5-12.4 0.2-5.3 1.6-16.1 9.7-22.7 4.1-3.4 9.1-5 15-5 4 0 7.5 0.8 9.6 1.4 2.7-2.8 9.5-9 16.5-10.1 0.5-0.1 1.1-0.1 1.7-0.1 7.3 0 14.4 6.8 17.1 9.8 3.5-0.7 12.3-2.1 24.4-2.1 10.2 0 20.5 1 30.4 3 11.6 2.3 19.9 7.1 24.6 14.3 4 6.2 4.2 12.4 3.9 15.6 3.2 2.2 4.3 5.4 4.2 8.2 3.6-0.1 9.1 0.4 13.7 3.6 3.1 2.3 5.2 6.2 5.8 11.1 0.7 6.4-1.2 13.5-5 17.9-2.6 3-3.4 5.1-3.6 6.4 3.6 0.8 6.4 2.7 8.4 5.5 3.1 4.3 3.5 9.9 3.4 13.6 4.9-0.5 8.8 0.9 11.4 3.9 2.9 3.2 3.6 7.6 3.7 10.5 8.6 0.4 13.5 7.9 15.5 11.8 2.1-0.5 5.4-1 10-1.4q2.4-0.2 3.9-2.3c2.2-3.3 2.5-9 1.4-12.4-0.8-2.6-7.5-9.5-12.9-15.1-6.2-6.3-12.5-12.8-15.6-17.8-6.4-10.2-7.6-28.3-2.7-41.2 3.4-9.2 9.9-10.6 13.4-10.6 2.1 0 3.5 0.5 3.7 0.5 0.8 0.3 1.5 0.9 1.8 1.7 0 0.2 5.7 16.2 11.7 28.9q0 0 0 0v0.1q1 2.2 2.1 4.2c6.8 13.3 21.4 31.2 30.3 38.9 9 7.8 9.1 12.3 8.4 14.4-1.4 9.1-6.2 11.8-9.7 12.5 2.3 7.8 1.2 20.8-2.3 28.5-10.4 20.6-31.6 24.4-39 25.1-0.7 0.4-0.6 0.4-1.3 1.8-1.1 2.4-2.5 4.8-3.9 7q0.9-0.1 1.8-0.1c7.9 0 13.7 4.7 16.4 7.5 4-2.6 8.3-3.9 12.8-3.9 8.8 0 15.9 5 18.3 6.9 3.5 0.2 15.4 1.4 27 8 12.6 7.3 11.5 25.2 10.8 30.4 4.4 5 4.7 10.7 0.8 15.4-1.6 2-2.3 3.2-2.5 3.9 3.4 3.5 3.3 7.4 2.1 10.1l5.1 7.6c7-0.9 12.8 3.3 15.3 10.9 2.1 6.5 1.4 15.2-4.1 19.2-2.7 2-5.7 3-8.9 3-3.9 0-7.1-1.5-9-2.6-1.6 0.9-3.4 1.4-5.2 1.8 2.1 2.1 3.5 4.2 4.4 5.9 3.7-1.9 7.3-2.8 10.7-2.8 7.7 0 12.6 4.8 14.6 7.3 3.4-0.1 10.9 0.5 16.6 7.3 4.9 5.8 3.2 11.8 0.4 15.8 3.6 2.4 6.3 7.3 7.3 11 0.7 2.8 0.1 5.7-1.7 8.1zm-22-36.7c-0.9 0-1.5 0.1-1.5 0.1q-0.1 0-0.1 0-0.1 0-0.2 0.1c-2.3 0.1-10.6 6.3-15.5 10.1-1.9 1.4-3.7 2.8-5.4 4-4.6 3.3-9 4.1-12.2 4.1-0.3 0-0.6 0-1 0-0.4 0.9-1.1 2.7-0.7 4.8 0.2 1.4 2.9 4.2 3.3 4.4 0.3 0.1 6.4 2.4 15.4-2 9.8-4.8 22.5-8.2 28.6-9.7 1.6-1.8 4.7-6.1 1-10.5-3.9-4.7-9-5.4-11.7-5.4zm-47.1 9.9c3.6 1.1 8.6 2.4 9 2.5 0.3 0.1 5.9 1.9 12.1-2.6 1.7-1.2 3.5-2.6 5.3-4 6-4.5 10.6-7.8 14-9.7-1.8-1.6-4.6-3.3-8.5-3.3-3.2 0-6.7 1.2-10.4 3.5-0.8 0.5-1.7 0.6-2.5 0.3-0.8-0.3-1.4-1-1.7-1.8 0-0.1-2.2-10.6-12.5-11.4 0 0-5.2 5.4-8.1 6.9 7.1 3 13.9 8.3 14.3 8.6 1.2 0.9 1.4 2.7 0.5 3.9-0.6 0.7-1.4 1.1-2.2 1.1-0.6 0-1.2-0.2-1.7-0.6-3.1-2.4-12.4-8.8-18.2-9.4-8.3-1-12.6-3-12.7-3.1l2.3-5.1c0.5 0.3 13.8 5.8 22.1-6.9l1-1.5c0 0 1.6 0.4 6.3 1 6.4 0.7 12.1-3 12.1-3 0.9-0.7 1.6-1.7 2.1-2.9-7 0.2-24.2 0.8-38.2 0.8-3 0-5.9 0-8.5-0.1-16.3-0.4-35.9-4.9-42.4-16.3q-0.6-1.2-1.1-2.3c3.6 8.8-2 12.2-5.2 14.1-0.9 0.5-1.8 1.1-2.2 1.6-4.4 4.6-9.6 12.3-12.1 23.5 3.8-2.7 9-5.5 15.4-5.9 10.4-0.6 18 1 25.7 10.2 0.5-4.1 1.5-8.9 3.3-11.9 2.9-4.6 3.3-9.2 3.3-9.2 0.2-1.6 1.5-2.7 3.1-2.6 1.5 0.2 2.6 1.5 2.5 3.1 0 0.2-0.6 5.8-4.1 11.6-1.5 2.5-2.4 7.4-2.7 11.4 9.4-3.3 16.2 1.2 17.4 2.1 4.7 1.5 16.6 5.4 23.2 7.4zm-32.9-134.8c-4.1 0-7.9 1.4-11.5 4.3-0.6 0.5-1.3 0.7-2.1 0.6-0.8-0.1-1.4-0.5-1.9-1.2 0 0-0.1 0-0.2-0.2-0.8 0-2.1 0-3.4 0.9-2.1 1.4-3.4 4.6-3.9 9.2l-0.2 1.9-1.8 0.5c-0.1 0-4.1 1.2-5.5 4.5-1 2.5-0.4 5.7 1.8 9.6l1.3 2.4-2.3 1.4c-1.4 0.8-5 3.6-5.3 6.7-0.2 1.6 0.6 3.2 2.3 4.9l2 2-1.9 2c-0.8 0.8-2.9 3.6-2.5 5.8 0.2 1.2 1.2 2.2 2.9 3l2 1-0.6 2.2c0 0.1-2.4 9.5 2.1 17.5 4.3 7.6 19.4 13 37.7 13.5 15.3 0.4 40.8-0.6 47.8-0.9 0.4-5 0-9.8-1-13.6-1-3.7-4-6-4-6-4.1 0.2-14.1 0.7-24 0.7-7.6 0-15.1-0.3-19.7-1.1-0.9 4.2-4.3 8-8.7 9.8-1.7 0.7-3.5 1-5.2 1-2.6 0-5.2-0.7-7.4-2.3-3.4-2.4-4.4-5.2-4.6-7.1-0.3-2 0.2-3.8 0.8-5.2-1.3-0.5-2.4-1.3-3.2-2.1-3.7-3.6-4-9.8-1.1-14.9-0.7-0.8-1.3-1.7-1.8-2.7-2.4-5.1-1.2-12.2 5.1-15.4 1.8-0.9 3.7-1.3 5.7-1.5-2.7-4.2-4.3-10.4-3.5-18.9l0.6-6 4.2 4.4c0.2 0.2 5.1 5 15.2 4.7 6.1-0.1 11 3.9 13.4 11.1 1.3 4.1 1.8 9 0.6 12.2 1.4 0.3 3.2 0.5 5 0.7-0.7-1.5-1.1-3.1-0.8-4.9 0.4-4.1 3.7-8.4 10-8.4 7.1 0 14.5 6.5 18.4 10.5 0.4-5.9-0.1-17.7-8.3-22.4-12.3-7-25.2-7.4-25.4-7.4-0.6 0-1.3-0.3-1.8-0.7-0.1-0.1-6.9-6.1-15.3-6.1zm0.3 47.1c0.8-1.9 1.8-3.5 3-4.8-3.7-2.6-12.8-7.6-18.8-4.6-3.3 1.7-3.8 5.4-2.6 8 0.5 1.1 2.6 4.3 7.4 2.1 1.4-0.7 3.1 0 3.7 1.4 0.7 1.4 0.1 3-1.3 3.7-2 0.8-3.8 1.2-5.4 1.2-1 0-2-0.1-2.9-0.4-1.8 3.3-1.3 6.5 0.3 8 2.1 2.1 6.1 1.5 10.6-1.6 1.2-0.8 3-0.5 3.8 0.7 0.9 1.3 0.6 3-0.6 3.9-3.2 2.2-6 3.3-8.5 3.7-0.5 0.7-1.5 2.4-1.3 4 0.2 1.1 0.9 2.1 2.3 3.1 2.9 2 5.8 1.3 7.3 0.7 2.7-1.1 4.9-3.5 5.4-5.9 0.3-1.9-0.5-4.2-1.5-6.9-1.6-4.5-3.5-10.1-0.9-16.3zm8.4-12.6c-0.6 1.2-1.7 2.1-2.8 2.8 0.8 0.6 1.3 0.9 1.4 1q0.3 0.3 0.5 0.6c1.7-0.8 3.2-1.3 4.6-1.5q0.3-0.2 0.5-0.4c0.7-1.3 0.7-6.9-1.8-11.5-1.7-3-3.9-4.6-6.8-4.5-6.6 0.1-11.5-1.5-14.7-3.2 0.3 11.5 6.2 14.4 8.2 15 2.9 1 5.3 0.2 6.1-1.1 0.7-1.1 0.5-1.5 0.4-1.7-0.5-1.1-3-2.2-4.6-2.5-1.5-0.4-2.5-1.9-2.1-3.4 0.3-1.5 1.8-2.4 3.3-2.1 0.6 0.1 6.7 1.5 8.5 5.8 0.7 1.4 1.1 3.8-0.7 6.7zm22.3 4.8c0.6 0.1 9.9-0.3 14-0.5-3.6-3.4-8.6-7.1-12.6-7.1-3 0-4.3 1.8-4.5 3.4-0.1 1.3 1 3.7 3.1 4.2zm20.5 27.2c0.4-1 0.3-2.5-1.7-4.2q-0.2-0.2-0.3-0.4-0.5-0.5-0.7-1.2c-2.4-0.9-10.6 0.5-14.7 1.2-4.1 0.7-7.8 1.4-10.5 1.4q-1.2 0-2.2-0.2c-4-0.8-6.7-3.9-6.8-7.8-0.2-4 2.6-7.4 7.1-8.6 6-1.6 10.4-0.3 15.8 1.3 1.6 0.5 3.4 1 5.3 1.5 6.5 1.6 10.7-2 11.1-2.3q-0.2-1.6-1.5-3.2h-1c0 0-17.9 1-21.9 1.2 0 0-0.6 0-1.6 0-3.3 0-10.7-0.2-14.3-2.3-2 0.2-6 1.3-8.2 6.4-1.8 4.2-0.4 8.1 1.1 12.2 0.5 1.4 1 2.9 1.3 4.4 6.6 1.7 28.9 1.3 43.7 0.6zm-10-11.6q-3.1-0.8-5.6-1.6c-3.4-1-6-1.7-8.8-1.7-1.3 0-2.6 0.1-4 0.5-1.9 0.5-3 1.6-2.9 3 0 1 0.6 2.2 2.3 2.5 1.8 0.4 6.5-0.4 10.6-1.2 3.2-0.5 6.3-1 9.1-1.3q-0.3-0.1-0.7-0.2zm8.6 0.1c-0.2 0.1-0.4 0.1-0.6 0.2q0.3 0 0.5 0.1 0.1-0.1 0.1-0.3zm-104.4 114.9c-0.5-2.2-2.9-4.4-6.6-4.6-4.3-0.3-7.4 1.8-9.1 3.3 1.1 1.7 1.7 3.8 1.8 6.9q6.1-1.1 12-2.1c1.8-0.6 2.3-1.9 1.9-3.5zm-19.4 6.6c0.1-5.5-1.5-6.1-6.8-7.7l-0.3-0.1c-2.1-0.7-5.6 0.2-9.9 1.4-5.1 1.4-11.3 3.1-19.2 3.4-7 0.2-12.1-1.4-15.8-5.1-4.8-4.8-6.7-12.9-6.1-25.5 1-18.2-0.6-24-7.5-27.8-2.5-1.4-5.1-1.6-7.8-0.8-3.4 1.1-5.9 3.9-6.7 5.4-0.6 1.4-0.6 3.8 0.5 5.6 1.1 1.8 3.1 2.8 5.8 2.9 6 0.2 6.5-1.8 6.7-2.6q0.1-0.3 0.2-0.5c0.5-1.5 2-2.2 3.5-1.8 1.5 0.5 2.2 2.1 1.8 3.5-1.3 4.9-5.4 7.2-12.4 6.9-4.6-0.1-8.3-2-10.3-5.4-2-3.3-2.3-7.7-0.8-10.9 1.3-2.9 5-6.7 10-8.4 4.1-1.3 8.4-0.9 12.2 1.2 10 5.6 11.3 14.7 10.4 33-0.5 10.7 0.9 17.7 4.5 21.3 2.5 2.5 6.3 3.6 11.5 3.4 7.3-0.3 13.3-1.9 18-3.2 5.2-1.4 9.4-2.5 13.1-1.3l0.3 0.1c1.6 0.5 3.1 1 4.5 1.6 1.7-1.7 4.9-4.1 9.3-5-0.8-1.3-2.6-3.1-7.1-4.4-4.8-1.5-8.9-0.7-13.7 0.1-4.4 0.8-9.4 1.7-15.6 0.9-5.3-0.7-8.6-2.2-10.5-4.9-2.7-3.6-1.8-8.4-0.9-13.4l0.3-1.7c0.6-3.2 1.7-6.1 2.9-9.1 2.3-6 4.9-12.7 5.1-24.9-0.5-27.9-11.3-35.1-20-40.9q-1.4-0.9-2.7-1.8c-1.2-0.9-2.5-1.5-3.9-2.1q-0.4 0-0.7-0.2c-7.1-2.5-15.9-1.9-17.4-1.4-1.5 0.6-2 0.8-3.2 0.8-4.6 0-10.7-3.3-15.5-6.4-0.9-0.4-0.8-0.3-1.3-0.5-0.6-0.1-14.2-2-20.9 9.5-1 4.3-3.3 7.3-5.7 9.3 5.7 1.8 10.3 5.4 13.4 10.5 4.5 7.5 5.5 14.1 2.9 19.7-2.8 6.1-9.4 9.2-14.5 10-5.9 0.9-11.8-0.5-15.5-3.8-3.1-2.7-4.6-6.5-4.5-10.8 0.3-9.7 8.8-12.6 13.3-12.7 1.5 0 2.8 1.2 2.8 2.7 0.1 1.6-1.1 2.8-2.7 2.9-0.8 0-7.6 0.5-7.8 7.2-0.1 2.7 0.8 4.9 2.5 6.5 2.5 2.2 6.8 3.1 11 2.5 3.6-0.6 8.4-2.7 10.3-6.9 1.8-3.7 0.9-8.6-2.6-14.4-2.9-4.7-7.1-7.6-12.6-8.7q-2.5-0.5-4.9-0.5h-0.2c-0.1 0-0.5 0-1 0-5.6 0.2-10.6 2.1-13 3.8-8.6 6.3-17.4 15.5-9.3 31.5 6.1 5.6 18.9 14.3 41.7 16.6 0.8 0.1 1.3 0.1 1.4 0.1q4.8 0.5 10.2 0.5h3.2l-0.4 3.2c-0.1 0.2-2.9 20.1 5 30.1 2.5 3.2 5.9 5 10.3 5.4q0.5 0.1 1 0.3c7.9 0 15.4 1.6 20.5 10.1q0.7 1.1 1.3 2.1c3.9 6.6 5.5 9.3 14 8.3q3.1-0.6 6.4-1.2 0.8-0.2 1.7-0.4c0.3-0.1 0.5-0.1 0.8-0.1q3.2-0.6 6.6-1.2c9.6-1.9 20.2-3.8 30.8-5.8zm7.1-24.7c-0.5-4.2-0.3-8.1 0.2-11.6-1 0.6-2.1 1.3-3.4 1.9-1.7 0.7-3.5 1.2-5.3 1.5 1.1 5.2 8.3 8.1 8.5 8.2zm20.4-60.5c1-1.1 2.2-1.9 3.5-2.6 3.4-2.1 5.2-3.1 1.9-9.1-1.5-2.6-3.2-4.2-5.3-4.7-3.2-0.8-6.3 1.2-6.3 1.3l-1.8 1.1-1.6-1.4c-0.3-0.2-7.9-6.6-17.8-2.3-9.7 4.3-9.5 17.2-9.4 17.4v2.1l-2 0.6c-6.6 2.1-13.8 10.5-13.9 10.6-0.2 5.6-0.9 10.2-1.8 14q0.2 0.4 0.2 0.8c0 0 0.4 4.6 5.1 11.4 4.9 6.9 15.4 9.9 23.4 6.4 7-3 7.2-7.4 5.1-16.8-1.4-6.1-7.3-7.6-7.6-7.6-0.4-0.1-0.6-0.2-1.5-0.1-3.4 1.5-5.9 3.4-6.8 5.8-0.5 1-0.8 2.4 0.2 3.9 2.3 3.3 4.2 3.2 4.3 3.2l0.4 2.8 0.5 2.7c-0.1 0-0.4 0.1-1 0.1-1.7 0-5.4-0.7-8.8-5.7-1.9-2.7-2.2-6.1-0.8-9.3 2.4-5.4 8.8-9.4 17.8-10.8 7.4-1.2 10.9-6 11.6-9.7 0.5-2.7-0.3-5-2.2-6.1q-2.3-1.4-4-1c-1.7 0.5-2.7 2.4-2.7 2.4-0.7 1.4-2.4 1.9-3.8 1.2-1.3-0.7-1.9-2.3-1.2-3.7 0.2-0.4 2.1-4.1 6.2-5.2 2.7-0.8 5.5-0.3 8.5 1.5 3.8 2.4 5.7 7 4.7 12-1 5.1-5.3 11.4-14.2 13.7 2.4 1.7 4.9 4.4 5.8 8.6 0.3 1.4 0.7 2.8 0.9 4.3 1.9-15.5 8.8-25.9 14.4-31.8zm10.3-14.4q0.5 0.9 0.9 1.8c-2.2-5.6-2.2-11.3-1.8-14.8-4.1-0.8-28.1-4.4-72.3 3.8 4.8 5.9 8.8 14.5 9.9 28.6 2.6-2.6 6.3-5.5 10.6-7.2 0.4-4.7 2.3-16 12.8-20.6 10.3-4.5 18.7-0.2 22.1 2 1.9-0.9 5.3-1.9 8.9-1.1 3.6 0.9 6.6 3.4 8.9 7.5zm-0.8-78.7c-2 2-4.9 4.3-8.8 6.5q0 0.1-0.1 0.2c-0.4 2.1-4.6 21.3-15.2 24.4-6.8 2.1-14.7 2.8-21.8 2.8-3.5 0-6.9-0.2-9.7-0.5q-0.7-0.1-1.3-0.5-1.7 0.6-3.7 1.1-2.4 0.6-4.8 0.6c-4.8 0-9.1-1.9-12.3-5.3-3.9-4.2-5.5-10.1-3.9-15 0.5-1.5 2.1-2.3 3.5-1.8 1.5 0.4 2.3 2 1.8 3.5-0.9 2.9 0.1 6.8 2.7 9.5 1.6 1.8 5.4 4.6 11.7 3 11.6-2.8 14.5-5.7 20.9-15.7 8.5-16.4 0.2-35.9-0.9-38.4-12.4 3.2-20.9 3.7-23.3 3.8-1.7 6.2-6.2 10.9-10.3 15.3-1.3 1.4-2.6 2.8-3.8 4.2-7.5 8.7-13.6 14.3-13.9 14.5l-2.2 2-1.8-2.3c-0.1 0-4-4.7-15.9-16 1.5 6.5 2.8 15.4 1.6 24.2-1 7.5 0.3 15.3 1.3 21.5 0.7 4.2 1.3 7.8 1.1 10.7 4.1-0.2 10.2-0.1 15.9 1.9 1.4 0 5.8-0.5 7.5-4.5 3.4-8.3 11.1-10.9 15.1-9.5 1.8 0.5 3.5 2.3 4.4 4.6 4.1-3 8.7-4.5 13.8-4.5 2.5 0 6.4 1.6 8.8 4.4q0.2 0 0.3 0c4.5 0.4 16.5-0.3 22.7-2 5.7-1.6 6.5-2 6.8-8.2 0.6-8.9 5.8-11.4 6.4-11.7 1.4-0.6 3 0 3.6 1.4 0.7 1.4 0.1 3-1.3 3.7-0.2 0.1-2.7 1.6-3.1 6.9-0.5 8.9-3.2 11.1-10.9 13.3-5.7 1.5-14.8 2.3-20.8 2.3q-0.9 0-1.7 0c-0.2 1.6-0.9 3.6-3 5.6-2.7 2.6-5.5 3.5-8.1 3.5-3.3 0-6.2-1.5-8-3.3-1-1.1-1-2.9 0-4 1.1-1 2.9-1 4 0 0.9 0.9 4.2 3.6 8.2-0.2 1.7-1.7 1.3-2.5 1.2-2.9-0.7-1.7-3.9-3.3-5.1-3.3-4.2 0-8 1.4-11.3 4.1-1.3 1-2.5 2-3.6 2.7-1.2 1.3-2.9 2.6-5.7 3.5q-0.3 0.1-0.6 0.2-0.3 0.1-0.7 0.2c-1.5 0.3-3-0.6-3.4-2.1-0.4-1.5 0.5-3 2-3.4q0.4 0 0.7-0.1c0.6-0.3 1.9-1.1 3.6-2.3q0.2-0.3 0.3-0.6c0.1-1.2-0.9-2.4-1.3-2.5-1.2-0.4-5.8 0.7-8.1 6.3-1.3 3.1-3.4 5-5.6 6.2q0.7 0.5 1.4 0.9c2.4 1.7 5.1 3.4 7.7 5.7 39.3-7.6 63.5-6.3 73.5-5.1q-0.3-0.7-0.4-1.4c-0.6-3.5 1-6.7 2.3-8.7-2.2-2.9-2.5-5.7-2.3-7.7 0.5-4.2 3.7-7.5 5.9-9.3q-3.2-6.9-0.9-12.2c1.6-4 5.1-6.1 7.3-7.1 0.8-5.5 2.9-9.4 6.2-11.6 0.4-0.3 0.8-0.5 1.3-0.7-2.2-1.4-5.1-2.6-8.4-2.6q-3.7 0-7.5 1.8zm-115 53.2c1.6-1.8 0-6.1-0.6-9.9q-0.1-0.2-0.2-0.4c-1.4-4.9-7.7-8.9-12.7-12.2-1.5-1-3-1.9-4.2-2.8l-1.4-1c-4.7-3.3-5.7-4.2-12-13.3-2.2-3.3-4.6-5-6.7-5q-0.3 0-0.6 0c-1.5 0.3-2.6 1.4-2.9 2.4-3.8 12 12.5 24.8 18.6 29.7 1 0.8 1.8 1.4 2.3 1.8 5.2 4.7 18.7 12.6 20.4 10.7zm-10-72.2c-1.7-3.8-2-7.2-1.7-10.3-4.4 0.5-8.5 0.7-12.2 0.7-12.3 0-21.2-2.2-26-3.8 0.1 3.3 0.2 7.8 0.4 11 5.5 1.1 21.6 3.7 39.5 2.4zm-41.5-19.9c0.2 0 15.5 7.1 41.1 3.8 2.1-6.1 7-9.8 9.6-11.4 0-0.2 0.1-0.4 0.1-0.6-0.6 0.1-1.4 0.2-2 0.2-4 0-8.1-2.2-10.8-6.1-2.9-4.2-3.8-9.8-0.8-14.7-1.1-0.1-2.1-0.3-3.1-0.6-4.9-1.6-7.9-5.8-8.3-11.4q-0.1-2 0.3-3.8c-2.4-0.1-4.7-0.9-6.7-2.3-1-0.7-1.9-1.6-2.7-2.5-0.2 2.7-1.5 5.4-4.2 7.3q-1.7 1.2-3.6 1.8c-0.1 0.2-0.2 0.4-0.3 0.6-0.2 0.2-3.9 6.1-0.6 11.5 1.9 3.1 5.9 4.1 9.1 3.8 2.7-0.3 4.2-1.4 4.5-2.3 0.7-1.9 0.3-4-0.9-5.1-0.8-0.8-2-1-3.5-0.4-1.4 0.6-3-0.1-3.6-1.5-0.6-1.5 0.1-3.1 1.6-3.7 3.5-1.4 6.9-0.8 9.4 1.6 2.8 2.6 3.7 7 2.3 11-1.1 3.2-4.6 5.4-9.3 5.9q-0.8 0.1-1.7 0.1c-4.3 0-9.7-1.6-12.6-6.4-3.5-5.7-2.2-11.5-0.8-14.8q-1.6-0.3-3.2-1.1c-4.7-2.3-7.5-7.4-7.6-13.8-0.1-2.2 0.4-4.2 1.3-5.9-2.5-0.2-5.2-1-7.4-2.7-3.2-2.4-6.5-7.2-4.4-16.9q0.6-2.8 1.9-5.2-0.1 0.1-0.3 0.1c-1.5 0-3.1-0.4-4.6-1.1-4.4-2.1-7.4-6.9-7.6-12.3-0.2-4.6 1.5-8.9 4.7-12 1.9-1.9 4.3-3.2 6.7-3.7-1.6-2.4-2.5-5.2-2.6-8.2-0.2-5.5 2.2-10.8 6.7-14.7 7-5.9 15.5-2.9 19.8-0.6 1.6-4.6 5.1-8.2 9.5-9.5 4.6-1.5 11.6-1.6 15.9 1.6 2.5 1.8 3.8 4.6 3.8 7.9 0 8.6-8.7 10.8-13.3 10.8 0 0-2-0.1-2.4-2.6-0.4-2.6 2.4-3 2.4-3 0.3 0 7.7-0.1 7.7-5.2 0-1.5-0.5-2.6-1.5-3.4-2.5-1.9-7.5-1.9-11-0.8-2.8 0.9-4.9 3.1-5.9 6.3-1 3.2-0.5 6.6 1.4 8.9q0.1 0.1 0.2 0.2c2.4 4 13.6 4.9 21.7 5.6 6 0.4 11.2 0.9 14.8 2.2-2.9-4.2-4.4-9.1-4.7-9.9l-1.6-5.7 5.5 2.4c4.8 2.1 8.6 2.7 19.5 1 1.1-0.1 2.8-0.7 4.7-1.4 7.3-2.6 18.4-6.6 28.2 1 5.2 4.1 7.9 5.5 9.1 6 0-2.6-0.5-6.7-3.2-10.7-3.8-5.7-10.8-9.7-20.9-11.7-9.6-1.9-19.4-2.9-29.3-2.9-14.9 0-24.7 2.2-24.8 2.2-1 0.3-2.1-0.1-2.8-0.9-2.1-2.5-8.6-9-13.9-9q-0.4 0-0.9 0c-5.7 0.9-12.4 7.3-14.4 9.7-0.8 0.9-2.1 1.2-3.2 0.7 0 0-4.2-1.6-9.3-1.6-4.6 0-8.4 1.2-11.4 3.7-8.7 7-7.7 21.1-7.7 21.2 0.1 0.9-0.3 1.7-0.9 2.3-0.7 0.6-1.6 0.8-2.4 0.7 0 0-0.9-0.2-2.1-0.2-5.7 0-9.1 2.7-10.2 7.9-2 10.3 2 13.9 2.1 14 1.2 1 1.4 2.6 0.6 3.8-1.7 2.4-5.6 10.2-4.7 14.8 1.5 7.2 9.9 14.5 10 14.6 0.8 0.9 1 2.2 0.4 3.3 0 0-3.5 6.7-1 12.9 1.8 4.3 6.2 7.6 13 9.7 0.8 0.3 1.4 0.8 1.7 1.4 0.4 0.7 0.4 1.5 0.2 2.2-0.2 0.4-3.1 10.8 15.2 18.9 1.2 0.5 1.9 1.9 1.6 3.2-0.1 0.4-2.3 10.3 8.4 15.5zm114-116.2c-0.1-1-0.6-2.2-2.1-3.2q-0.2 0.3-0.7 0.7c0.2 0.7 0.3 1.8 0.1 3.1q1.5-0.4 2.7-0.6zm-74.2 43.9c-0.3-4.4-2.5-12.6-14.1-14.3-2.8-0.5-5.3-0.6-7.5-0.5-3.4 0.3-5.9 1.3-7.3 3-1.7 1.9-1.8 4.6-1.6 6.5 0.3 2.5 1.4 4.6 3 5.8q0.4 0.3 0.8 0.5c1.1 0.3 1.9 0.7 2.8 0.6q0.4 0 0.8 0c3.2-0.5 2.6-6.2 2.6-6.3-0.1-1.5 1-2.9 2.5-3.1 1.5-0.1 2.9 1 3.1 2.5 0.1 1.2 0.1 2.7-0.2 4.3 1.6-0.5 3.2-0.8 4.7-0.9 2.8-0.2 6.5 0.4 10.4 1.9zm-4.7-17c4.2-9.2 12.7-12.4 21.6-13.7-0.4-0.9-1.1-2.4-2.3-4.1-3.4-3.8-10.8-8.1-26.6-9-11.8-0.7-20.9-1.8-26.2-3.1 0.8 7.1 3.6 21.2 13.6 24.3 5 1.6 6.4 2.2 6.4 2.2q2.3 0.1 4.9 0.5c3.5 0.6 6.3 1.6 8.6 2.9zm33.7-14.7q2.6-0.1 4.9-0.3 4-0.3 7.6-0.6-0.2-3.4 0.3-6c-2.3 0.1-4.5 0.3-6.7 0.3-7 0-13.3-0.9-18.1-2.6q1.2 1.4 2.2 2.8c2.1 2.5 3.1 4.9 3.6 6.7 2.1-0.1 4.2-0.2 6.2-0.3zm34.6-7.4c1.6-1.5 2.2-3.1 2.3-4.4-0.8 0.2-1.6 0.3-2.6 0.3-0.6 0-1.5-0.1-2.5-0.1-3.3-0.4-8.9-0.9-11.7 1.9-1.6 1.6-2.3 4.4-2.1 8.1 6.8-0.9 12.4-2.6 16.6-5.8zm2.2-10.2q-3.4-1.9-8.3-5.6c-7.3-5.8-16.3-2.6-22.8-0.3-2.2 0.8-4.1 1.5-5.7 1.7-7.6 1.2-12.4 1.5-16.8 0.5 1.4 2.7 3.2 5.4 5.3 6.3 4.7 2 14 3.6 26.3 2.3l0.6-0.1c0.3-0.3 0.5-0.6 0.8-0.9 4.6-4.6 11.8-3.9 16.1-3.5 0.8 0.1 1.5 0.1 2 0.1 1 0 1.8-0.2 2.5-0.5zm-100.6-10.6c-2-1.3-9.8-5.6-15.2-1-3.2 2.7-5 6.4-4.8 10.2 0.1 3.2 1.6 6 4 7.7q0.9 0.7 1.7 1.2c2.4 0.3 4.6 0.7 6.2 1-1.1-5.4-1.2-9.7-1.2-10.1l-0.1-6.4 4.6 4.1c0.4 0.2 2.3 1 7.9 1.9q0-0.1-0.1-0.2c-1.8-2.4-2.9-5.3-3-8.4zm-20.6 22.9c-1.7-0.1-3.7 0.8-5.2 2.4-1.2 1.1-3.2 3.7-3 7.8 0.1 3.2 1.9 6.2 4.4 7.5 1.3 0.6 3.2 0.9 5.4-0.7 3.9-2.9 2.3-6.3 2-6.9-0.7-1.3-0.3-3 1.1-3.8 1.3-0.7 3-0.3 3.7 1 1.1 1.8 2 5 0.9 8.4 4.3-1.2 8.9-1 12.1-0.6-3.5-3.5-5.9-8.2-7.4-12.8-2.1-0.5-2.4-1-9.1-2-1.7-0.2-3.6-0.2-4.9-0.3zm4.5 41.3c2.9 2.2 7.3 1.8 8.3 1.3l0.8-0.5c3.6-1.9 5.8-3.3 5.5-6.4-0.2-1.6-1.4-2.4-2.3-2.7-1.4-0.5-2.8-0.1-3.5 0.4-1.5 0.8-2.9 1.1-4 0-1-1.1-1-2.9 0-4 2.2-2.2 6-2.9 9.4-1.7q0.4 0.2 0.7 0.4c0.3-2.2 1.1-4.5 2.8-6.5q0.3-0.3 0.6-0.6c-3.3-0.7-10.4-1.5-15.4 1.5-2.7 1.6-4.4 4.1-5.2 7.6-1.1 5.4-0.4 9.2 2.3 11.2zm33.7 16.6c2.2 1.5 4.8 1.6 7.7 0.3q1.3-1.1 3-2c3.5-2.8 2.7-5.5 2.6-5.9-0.5-1.4 0.3-3 1.7-3.5 1.5-0.5 3 0.2 3.5 1.6 0.6 1.4 0.8 3.5 0.1 5.9 2.8-0.2 5.7 0 8.2 0.6 0.1-1.6-0.4-4-3-6.7-5.2-5.6-12.2-7.7-16.7-7.5-3.6 0.2-10 2.2-10.7 8.4-0.5 3.4 1 6.9 3.6 8.8zm8.8 10.2c0.3 4.3 2.5 5.9 4.4 6.5 2.6 0.8 5.9 0.1 7.4-1.6 0.3-0.4 1.4-1.7 0-4.3-0.7-1.4-0.2-3 1.2-3.8 1.3-0.7 3-0.2 3.7 1.2 1.3 2.3 1.6 4.7 1.2 6.8q1.8-0.2 3.6 0.2 1.8 0.3 3.4 1.1c0.3-2.8 0.1-7.2-2.9-11.4-1.8-2.4-10.3-4.3-16.7-2-0.1 0.1-0.3 0.2-0.4 0.2-0.9 0.7-1.7 0.7-3.1 1.9-2 2-1.9 4.3-1.8 5.2zm78.4-4.8c1.4 1.5 2.7 3.3 3.5 5.6 1.3 3.4 1.3 7 0.2 10.8 4.2-0.8 8.1-1.8 11.6-2.7 0.4-1 1-2.9 1.3-6.4 0.3-4.1-5.9-7-9.4-8.2q-3.5 0.5-7.2 0.9zm-30.3 1c-7.6 0-14.6-0.1-19.1-0.2 2.3 5.6 1.6 10.8 1 13.3 3 2.4 5.1 5.2 6.1 6.7q1.1-0.2 2.2-0.2c4-0.7 8.3-0.6 12.5-0.6 4.1 0.1 8.3 0.1 12.5-0.4q6.6-0.9 12.4-1.9c1.7-3.8 2.1-7.2 1-10.1-1.6-4.3-5.8-6.6-6.8-7-6.6 0.3-14.4 0.4-21.8 0.4zm102.4 18.1c-4 0.4-6.7 0.9-8.2 1.2 3.3 5.9 8.8 18.1 6.6 31.7q-1.1 6.9-1.8 11c5-0.7 13.9-2.7 21.8-8.6 1.1-9.3-12.1-27.6-18.4-35.3zm-9.3 45.3c0.4-2.2 1.1-6.2 2.2-13.3 0.7-4.6 0.4-9.1-0.4-13.1-3.9 2.4-12.4 7.2-29.3 14.3-5.4 2.3-10.4 4-15.1 5.4 1.9 4.5 8 20.6 2.9 36.5 16.9-3.3 25.7-9.4 29.8-13.4 0.2-0.2 7.3-6.4 9.9-16.4zm-52.9 48.8c6.9 0 14.6-0.6 21.1-2.5 4.8-1.5 8.4-10.1 10.3-16-5.5 2.2-12.2 4.3-20.7 5.7l-0.1 0.2c-3.7 5.8-6.5 9.7-10.6 12.6zm15.5-75.4c-16.2 4.8-29.7 7-36.7 7.9q1 1.5 1.9 3.6c1.1 2.9 1.5 5.6 1.6 8.1 4.6-0.2 20.5-1.7 41-10.2 19.8-8.4 27.6-13.4 29.9-14.9-1.3-3.9-2.9-7-4.1-9.2-5.8 3.6-17.4 9.9-33.6 14.7zm-60.1 10.8c1-5.3 0.8-9.5-0.7-11.2-0.4-0.4-1.2-1-2.9-1q-0.2 0-0.5 0c-2.2 0.1-3.3 4.8-3.3 7.4 0 0.9 0.1 1.8 0.3 2.7 1 4 2.9 3.9 3.6 3.8 1.4 0 2.5-0.6 3.5-1.7zm3.5-14.8q1.9 2.2 2.5 5.9c1.9-0.8 4.2-1 6.1-1-2.8-4.3-7.3-9.7-12.7-11.7q-2.2-0.9-4.4-0.8c-5.1 0.9-9.2 3-12 8.4-0.6 1.1-1 2-1.3 2.7 2 0.2 4 0.9 5.8 2.3 0.9-4.1 3.2-8.5 8-8.8 4.3-0.3 6.7 1.5 8 3zm-36-5.1c1.9 2.8 5.6 4.9 8.4 3.1q2.4-1.4 2.5-2.9c0.1-1.8-2-4.1-3.1-4.9-1.1-1-1.4-2.8-0.4-3.9 1-1.3 2.7-1.5 3.9-0.5 0.4 0.3 3.2 2.6 4.5 5.8q1.4-1.2 3-2.1 0.2-0.3 0.6-0.6c-2-2.6-5.7-6.6-10.1-7.4-2.6-0.5-5.1 0.2-7.6 2.2-4.5 3.5-3.9 8.1-1.7 11.2zm3.6 23.4c-1.7 5.7-2.4 12.2 9.8 23.5 8.5 7.9 13.2 12.9 15.6 15.4 2.4-2.3 6.7-6.5 11.4-12.1 1.3-1.4 2.6-2.9 4-4.3 6.4-6.8 12-12.8 8.2-23.3-1-2.3-2.1-3.8-3.2-4.9l-1-0.9c-0.9-0.7-1.5-1-1.8-1.1-2.6-0.2-5.6 0.1-6.4 0.6-0.8 2.7-2.9 10-10.2 10.8-0.7 0.4-1.8 0.3-3.2 0.3-0.8 0-1.6-0.2-2.5-0.5-2.6-1.1-4.5-3.2-5.3-7.5-1.2-5.5-5.9-5.5-7.3-5.3-1.4 0.7-6.5 3.8-8.1 9.3zm-62.7 26.2c-0.3 0.3-4.9 8.7-5.2 10.7 4 2.4 7.4 5.8 9.7 9.9 2.8 5.1 3.4 10.6 2 15.4 4.5 0.6 8.9 2.1 12.5 4.5 6 4.1 9.8 10.3 10.9 18.1q0 0.2 0 0.5c4.4-3.7 9.6-5.3 14.1-5.7-0.1-0.1-0.1-0.1-0.2-0.1-0.3-0.4-1-0.9-1.9-1.6-7-5.5-25.5-20.1-20.6-35.8 1-3.2 4-5.7 7.4-6.2 1.4-0.2 3.5-0.2 5.9 1q0.2-3.8 2.1-7.6c0.6-1.2 1.7-2.1 3-2.4 3.5-0.8 8.9 1.7 18.5 8.8 2.4 1.8 5.6 5.5 8.1 9.8 0-12.8-4.5-24.4-4.5-24.5-0.2-0.4-0.3-0.8-0.2-1.2q-0.3-0.3-0.5-0.7c-4.6 0.5-9.2 0.6-13.4 0.6-17.9 0-31.7-3.1-32.4-3.2q0 0 0 0 0 0-0.1 0c0 0-0.4-0.1-1.2-0.1-2.9 0-8.5 1.2-14 9.8zm195.9-137.7c-1-2.3-1.9-4.6-2.8-6.7q-0.1 0.3-0.2 0.6c-0.6 1.2-1.3 2.3-2 3.3 1.4 0.8 3.2 1.8 5 2.8zm-19.2-6.5c0.9 1.6 2.9 4.1 6.4 2.8 2.1-0.7 3.6-2.3 4.6-4.6 1.5-3.4 1.7-8 0.4-11.3q-0.3-0.8-0.5-1.4-0.3 0-0.7 0c-3.7 0-6.5 2.3-8.2 6.9-0.9 2.4-1.5 4.9-2 7.6zm19 45.6c5.1 5.2 9 9.2 11.5 12.4l0.1-0.1c0.8 0.6 2.4 1.4 3.3 1.1q0.8-0.2 1.4-1.6c1-2.5-1.9-5.5-6.6-9.8-2.1-2-4.4-4.1-6.1-6.3q-0.7-0.9-1.3-1.7c-4.8-6.1-10.1-12.9-7.1-29.5-1.8-1-3.5-2-4.6-2.6q-0.6 0.3-1.2 0.5-2 0.8-3.9 0.8-2.1 0-3.9-0.9-0.6-0.3-1.2-0.7c-0.2 8.1 1.5 16.2 4.8 21.6 2.8 4.5 8.9 10.7 14.8 16.8zm8.7 37.9c5.1 6.5 15.6 20.8 17.7 32.1 2.2-2.4 4.1-5.1 5.8-8.4 4.1-9.2 3.5-24.1 0.8-26.9-0.9-0.9-1.1-2.3-0.4-3.3 0.6-1.1 1.9-1.7 3.2-1.3 0 0 0.5 0.1 1.3 0.1 3.6 0 5.8-2.8 6.6-8.4q0-0.2 0.1-0.5c0-0.4-0.4-3.1-6.6-8.5-9.3-8-24.6-26.7-31.7-40.5q-0.7-1.4-1.4-2.8c-1-0.6-2.3-1.3-3.7-2.1-1.9 12.7 2 17.8 6.2 23.1q0.7 0.9 1.4 1.8c1.5 1.8 3.5 3.8 5.5 5.6 5 4.6 10.6 9.8 7.9 16.1-1.4 3.3-3.6 4.5-5.1 4.9q-0.8 0.1-1.5 0.1c0.9 4.8 0.4 11.2-2.6 15.5q-1.5 2.2-3.5 3.4zm-31.2-9c-0.4 0-0.8 0-1.3 0.1-2.2 1.1-27.9 10.2-27.9 10.2-8.7 2.3-19.4 4.6-32.1 6.3-4.3 0.5-8.3 0.5-12.3 0.4 5.9 4.8 10 11.7 11.7 14.9 5.1-0.6 20.4-2.6 38.8-8.1 17.8-5.1 29.8-12.4 34.2-15.3-1.6-3-5.3-8.5-11.1-8.5zm-16.9-13.9c-0.6 0.1-5.9 1.5-13.4 2.9 3.2 2.3 5.9 5.6 5.5 10.1q-0.2 2.4-0.5 4.2c10.9-3.2 17.8-6.4 20.5-7.7 0-2.2-0.4-5.8-2.3-8-2-2.1-5.3-2.6-9.8-1.5zm-32.8-55.8c-8.1 6-19.1 7.4-32.9 8.4q-2.4 0.1-5 0.3c-12.3 0.5-25 1.2-29.4 12.6 4.9 5.2 6.1 12.1 5.7 16.5 1.7 1.2 3.5 2.6 5.1 4.4 4.8 5 4.8 9.8 4.3 12.5q1.2 0.7 2 1.5c6.4 0.2 38 0.8 51.9-0.6 2.9-0.3 5.7-0.6 8.4-1v-0.2q0.1 0 0.3 0.1c8.7-1.3 15.9-2.9 19.2-3.7 0.2-2.6 0.3-7.9-2.2-11.4-1.1-1.5-2.4-2.4-4.2-3.1 0 0-6.5-0.1-11.4 0.3l-9.1 1.1c-2.9 0.4-6.8 1.5-11 2.6-7.8 2.1-16.7 4.4-23.5 4.4-5.8 0-10.6-2.8-12.7-7.5-2.2-4.8-1.1-10.6 2.8-15.1 3.6-4.2 11.1-5.5 24.1-4.2 0.9 0.1 1.8 0.2 2.7 0.3v-0.1l0.2 0.1c4.1 0.5 8.2 1.1 11.9 1.7 3.4 0.5 6.5 0.9 9.1 1.2 10.3 1.2 15.4-0.4 16.9-1 2.5-3.3 3.9-8.5 3.3-13.1-0.4-3.3-1.6-5.9-3.5-7.2-3.1-2.2-6.1-2.4-8.8-2.4-2.2 0-9.5-0.9-14.2 2.6zm11.2 31.1l-0.6-4q-2.3-0.1-4.9-0.4c-2.2-0.3-4.8-0.6-7.4-1 1.8 1.7 3.6 3.8 4.6 6.3q0 0 0 0 4.5-0.6 8.3-0.9zm-23.8-7c-1.9-0.2-3.7-0.5-5.5-0.6-0.4-0.1-0.7-0.1-1-0.1 0 0-8.8 0.6-9 6.2-0.2 3.8 2 5.7 3.3 6.5 1.7 1 3.7 1.3 4.9 0.6q0.6-0.3 1.2-0.7c5.3-2.9 8.7-5.3 6.3-11.4zm-21.1 5.3c0.1-2.5 0.9-4.5 2.2-6-2.9 0.4-5 1.2-6 2.4-2.5 2.8-3.2 6.3-1.9 9.2 1.2 2.6 3.9 4.1 7.6 4.1 0.5 0 1.2 0 1.8 0-2.5-2.5-3.8-5.9-3.7-9.7zm25.8 5q2.7-0.7 5.1-1.3c-0.7-1.4-2-2.7-3.3-3.8-0.2 2-0.9 3.7-1.8 5.1zm25.7-3.7c0.1-1.1 0.4-2.4 1-3.9q-1.2 0.2-2.6 0.3l0.6 3.6q0.5 0 1 0zm-118.8 19.1c2.5-1.6 5.3-1.5 7.4 0.1-0.1-1.2-0.1-2.4 0-3.7 0.2-1.5 0.6-2.9 1.2-4.2-0.3-0.2-1.1-0.5-2.1-0.4-4.5 0.7-15.4 3.4-15.2 10.5 0.1 4.4 1.7 7.5 4.5 9 2.4 1.2 5.3 0.9 7.5-0.7 2.3-1.6 2.1-4.2 1.3-5.5-0.7-1-1.2-0.6-1.6-0.4-1.3 0.8-3 0.5-3.8-0.8-0.9-1.3-0.5-3 0.8-3.9zm32.4 103.6c-9-6.6-12.3-7.7-13.5-7.8-1.8 3.9-1.7 7.5 0.2 11 5.8 8.4 6.5 8.9 10.5 11.8l1.5 1c1 0.7 2.1 1.5 3.4 2.3q0.5 0.1 1 0.4c2.2 1.3 5.5 2.4 6.6 1.9 0.2-0.1 0.4-0.8 0.4-1.1 0.7-6-5.7-16.2-10.1-19.5zm-30.9 53.2q0-0.5 0.3-1c0.3-1.9 0.4-4.1 0-6.8-0.8-6.2-3.7-11-8.4-14.2-5.5-3.6-13-4.8-19.7-3.1-9.4 2.4-21.3 8.2-25 22-3.2 11.4-2 31.6 12 45.7-3.1-16.2 9.6-25.5 14.3-28.9 1-0.7 2.3-1.4 3.6-2-1.7-0.8-3.3-1.9-4.7-3.4q-4-4.2-3.4-10.5c0.4-5.3 2.5-9.1 6-11.1 6.7-4 16.1 0.2 16.5 0.4 1.4 0.6 2.1 2.3 1.4 3.7-0.6 1.4-2.3 2-3.7 1.4-2-0.9-7.9-2.8-11.4-0.7-1.9 1.1-3 3.4-3.3 6.7-0.2 2.6 0.4 4.7 2 6.3 3.2 3.5 10 4.3 13.2 4.3q0.5 0 0.9 0c1.5-0.3 7.5-1.9 9.4-8.8zm-34.4-58.9c0.4-1.5 0.9-1.8 1.8-3.8-2.4 1.3-5 1.3-7.3 2.5q2.8 0.3 5.5 1.3zm-21.8 1c-2.8-0.6-5.6-1.7-8.1-3.3q1 1.7 1.7 3.6 0.5 1.4 0.8 3.1c1.5-1.1 3.3-2.4 5.6-3.4zm-4 35.2c3.8 3.1 9.6 3.1 10.4 3.3 3.8-3.8 8.2-6.5 12.6-8.4-0.2-0.4-0.4-0.8-0.3-1.3 0-3.1-0.5-7-3.2-8.6-2.2-1.2-5.2-0.5-7.1 0.8-3.2 2-0.9 6.9-0.9 7 0.7 1.4 0.1 3-1.3 3.7q-0.6 0.3-1.2 0.3c-1 0-2-0.6-2.5-1.6-1.6-3.2-3-10.4 2.8-14.1 3.2-2 8.4-3.5 13-0.9 2.7 1.5 5.9 5 5.9 12.8q1.4-0.4 2.8-0.8 2.8-0.7 5.8-0.9c1.6-3.7 1.3-8.2-1-12.4-1.9-3.5-4.8-6.3-8.3-8.2-0.6-0.3-1.1-0.7-1.6-0.9-2.2-1-4.5-1.6-6.9-1.9-13.4-1.3-20.2 7.5-20.5 7.9-0.1 0.2-0.5 1-0.6 1.1-0.4 1.5-6.9 15.5 2.1 23.1zm-50.5-57.8c5.3-3.6 18.8-10.6 37-5q0.2-0.6 0.4-1.1c1.9-4.8 5.7-8.4 10.6-10.2 12.8-4.7 19 2.3 20 8.1 0.4 2.3 0.9 4.4-0.1 6.5-2.2 5.1-9.2 7.7-9.9 8-1.5 0.5-3.1-0.2-3.6-1.7-0.5-1.4 0.2-3 1.7-3.5 1.4-0.6 5.6-2.6 6.7-5 0.3-0.8 0.3-1.4 0-2.2-2.3-5.7-4.4-8.1-12.9-5-3.4 1.3-6 3.8-7.3 7-1.5 3.7-1.2 8.1 0.8 12.1 5 10 15.8 9.6 21.5 9 5.7-0.7 15.2-3.7 17.6-9.5 2.3-5.9 2.5-19.8-3.5-25.4-9-8.4-25-9.1-25.2-9.2-0.9 0-1.7-0.5-2.2-1.2-0.5-0.8-0.6-1.7-0.3-2.6 0.9-2.3 2.8-9.2 0.5-13.1-1.2-1.9-3.2-2.9-6.2-3.2q-0.7-0.1-1.3-0.1c-2 0-3.6 0.4-4.9 0.9-0.3 0.7-9.6 2.8-8.8 16.6 0.1 1.6-1 2.9-2.5 3q-0.1 0.1-0.3 0.1c-1.4 0-2.6-1.1-2.7-2.6-0.1-0.6-1-12.2 6.6-18.4-1.2-2-3.8-5.3-8.8-5.3-2.3 0-5 0.7-7.8 2.1-14 6.7-11.6 23.6-11.5 24.3 0.2 1.1-0.3 2.1-1.1 2.8-0.1 0-5.1 3.7-6.1 10.2-0.6 4.3 0.6 8.8 3.6 13.6zm-5.3 30.3c0.2 0.8 0.6 2.2 1.1 3.9 1.3 4.1 5.3 11.7 17.2 13.3 18.2 2.4 24-1.9 28.8-11.3 2.5-4.8 1.9-8.9 1-11.5-1.4-3.9-4.2-6.6-6.5-7.6-2.6-1.2-7.1-1.4-10.4 0.4-2.2 1.2-3.6 3.2-4 5.8-0.3 2.1 0 3.6 0.9 4.7 1.8 2.2 5.7 2.4 5.8 2.4 1.5 0 2.7 1.3 2.7 2.9-0.1 1.5-1.4 2.8-2.9 2.7-0.7-0.1-6.4-0.3-9.9-4.5-1.3-1.6-2.8-4.5-2.1-9 0.7-4.4 3.1-7.9 6.8-9.9 5.2-2.8 11.6-2.3 15.4-0.6q0.4 0.2 0.9 0.5-0.6-1-1.1-2c-1.6-3.2-2.4-6.6-2.3-9.9-20.6-6.7-34.4 5-35 5.5q0 0 0 0 0 0 0 0c-0.5 0.4-11.3 9.8-6.4 24.2zm24.2 49.5q0.3 0.2 0.6 0.4c3.1 2.8 12.3 10.9 31.5 4.3 0.3-3.2 0.8-6.1 1.5-8.6 1-3.8 2.5-7 4.4-9.8-2.6-0.2-6.6-1.1-10.1-4.2-3.6-3.2-5.8-8-6.5-14.2-4.6 4.1-10.5 6-18.5 6q-4.3 0-9.5-0.7c-14.2-1.9-19.6-11-21.5-16.5-3.9 0-12.5 0.9-14.6 7.4-2.3 7.2 0.7 11.5 3.2 13.6 2.9-4.2 8-6.9 8.7-7.3 1.4-0.7 3.1-0.1 3.8 1.3 0.6 1.4 0.1 3-1.3 3.7-1.6 0.9-6 3.7-7.2 6.7 0 0.1 0 0.3 0 0.4 0 0.1-2.7 14.5 4.5 17.3q1.7 0.7 3 0.7c2.5 0 4-1.9 6.3-5 1.3-1.8 2.6-3.6 4.4-4.9 1.1-0.8 2.3-1.2 3.7-1.2 4.8 0 10.3 5.5 13.6 10.6zm120.8 138.8c-1.3-0.9-2.4-2.1-3.1-3.5-1.2-2.4-1.1-5.4 0.2-8.1 2.2-4.6 7.5-8 15.9-9.9 4.5-1 8.1-1.3 11-1-4.9-4.7-11.7-4.3-20-3.8l-1.8 0.1c-1.8 0.1-3.4 0.3-4.8 0.4-7.8 0.7-12.9 1.1-19-7.1-5.6-7.6-2.7-25.9-1.2-33.6-23.3-2.9-36.6-12.2-42.9-18.2l-0.3-0.3c0 0-0.7-0.5-0.9-0.7-15.9-11.1-21.5-28.3-21.9-42.5q-7.2 2.3-13.5 2.3c-5.7 0-10.8-1.4-15.5-4 0 0.6-0.1 1.1-0.1 1.8-0.5 6.9-1.5 21.2 5.3 31.5 8.5 13 10.1 15.3 43.2 31.3q0.4 0.1 0.7 0.4c4.8 4.4 6.2 11.1 4.6 21.8-1 6.3-0.4 10.9 0.1 13.3 5 0.4 17.1 2.6 19.1 13 0.5 2.5 0.7 5.4 0.9 8.2 0.5 10.1 1.3 16.3 10.1 16.3q1.9 0 4.2-0.3c9.1-1.5 19.1-4.4 29.7-7.4zm-17.2-65.9c-2 9.8-3.6 24.7 0.1 29.7 4.2 5.7 6.7 5.5 14 4.8q0.5 0 1.1-0.1-1.5-1.3-2.8-2.9c-7.4-9.4-7-24.6-6.5-31.2q-3-0.1-5.9-0.3zm51 56.8c-1.2-1.1-2.3-2.4-3.4-3.9q-0.6-0.3-1-0.9-0.1-0.2-0.2-0.4c-1.6-2.9-7.1-3.5-15-1.7-8.6 1.9-11.3 5.1-12.1 6.8-0.7 1.5-0.4 2.7-0.2 3.2 1.3 2.6 6.3 3 14.8 1.1 5.6-1.5 11.3-2.9 17.1-4.2zm25.9-50.1l-0.3 1.8c-0.8 3.9-1.4 7.4-0.1 9.1 0.9 1.3 3.2 2.1 6.7 2.6 5.4 0.7 9.7-0.1 13.9-0.9 2.8-0.5 5.6-1 8.6-1-1.5-2.1-2.4-4.1-2.9-5.4-7.4-0.5-14.7-4.2-18.9-10.2-1.6-2.3-2.7-4.4-3.6-6.2q-0.4 1.1-0.8 2.1c-1.1 2.9-2.1 5.4-2.6 8.1zm111.6 11.9c-1.1-0.9-1.4-2.5-0.6-3.7 0.2-0.3 5.1-8.2 0.6-14.9q0-0.1 0-0.1c-2.9-1.8-7-2.2-12.7 0.6l-0.2 8.5-4.9-7.8c-8.1-12.6-14.6-14.5-25.2-13.9-10.2 0.6-16.2 7.2-18.5 10.1-2.3 2.9-6.3 15.3-3.4 27.5l0.4 1.5c0.1 0.2 0.7 2 0.8 2.6 5.8 0.9 9.4 4.9 10.3 8.6q0.4 1.8 0 3.5 4.1-0.6 8-1.3c-3.9-4.6-7.3-12.2-2.8-20.3 3.5-6.3 8.2-8.4 11.7-9 3.2-2 5.1-4.6 5.1-7.3 0-1.7-0.9-3.3-2.2-4.1-0.7-0.4-1.1-0.4-1.4-0.3-1.3 0.4-2.7 2.4-3.1 3.3-0.7 1.4-2.4 1.9-3.8 1.2-1.4-0.7-1.9-2.3-1.2-3.7 0.2-0.5 2.5-4.9 6.5-6.1 1.9-0.6 3.9-0.3 5.7 0.7 3.2 1.8 5.1 5.3 5.1 9.1 0 2.8-1 5.4-2.9 7.7 2.6 0.9 4.7 2.4 6 4.4 2.1 3.2 3.1 8 0.6 11.3-1.7 2.2-5.3 4.4-13.1 1.9-1.4-0.4-2.3-2-1.8-3.4 0.4-1.5 2-2.4 3.5-1.9 4.2 1.3 6.3 0.9 6.9 0.1 0.7-1 0.4-3.2-0.8-5-0.8-1.3-3.4-2.7-6.6-2.6-2.2 0.1-6.3 1-9.3 6.4-4.9 8.8 4 15.9 4.4 16.3 0.1 0 0.2 0.2 0.3 0.3 3.5-0.6 6.9-1.1 10.2-1.6 7.2-1 14.1-1.5 20.2-2 19.3-1.5 28.5-2.7 28.5-11.6 0-1.8 0-6.7-8.5-6.7-3.9 0-10.8 2.6-11.8 1.7zm57.5-67.4c0.7 6.1 0.9 15.4-3.5 20.7 1.3 0.6 3.1 1.4 5.3 1.4q3 0 5.7-2c2.7-2 3.6-7.8 2-13-0.7-2.1-2.9-7.2-8.2-7.2q-0.6 0-1.3 0.1zm36.2 72.8c-1.1-4.1-4.5-8.5-6.6-8.5-0.2 0-0.4 0-0.5-0.1-6.1 1.5-17.7 4.7-26.6 9.1-5.3 2.6-9.8 3.3-13.2 3.3q0 0-0.1 0c0.6 1.4 1.2 3.4 1.6 4.3 7.2-0.9 25.1-3.1 39.2-2.6h0.4c2.1 0 4-0.9 5.1-2.3 0.4-0.6 1.1-1.7 0.7-3.2zm450.1-117.8c-1.7 1.5-3.6 2.3-5.3 2.7 0.9 4.1 0.4 9.7-1.7 13.7-2.1 4-6.1 5.7-9.1 5.7-3.9 0.1-6.7-3-9.3-5.9-1.3-1.5-2.6-3-4.1-4-2.3-1.8-3.8-0.8-8.9 5.7q-1.6 2-3.4 4c1.1 5.7 4.3 26.6-5.7 41.4-9.6 14.3-16.9 17.6-25.4 21.4-1.6 0.7-3.2 1.4-4.8 2.3-2.6 1.2-5 2-7.1 2.8-7.1 2.5-10.6 3.7-11.9 15.7-0.6 6 0 10 0.4 12.9 1 7.4-0.1 9.9-9.8 12.8-8.9 2.6-9.1 5.3-9.9 13.4-0.1 2.3-0.4 4.9-0.9 7.9-1 6.6-3 10.7-6.4 13-2.3 1.6-5 2.2-7.8 2.2-2.7 0-5.5-0.5-8.3-1.1-4.4-0.9-12.9-3.8-22.8-7.1-14.2-4.9-31.8-10.9-41.6-12.4-12.3-1.8-32.3-6.9-45.5-10.3-5.2-1.2-9.2-2.3-11.5-2.8-2-0.4-4.5-0.8-7.1-1.2-10-1.6-19.4-3.1-21.3-8.6-1.1-3.1 0.4-7.2 4-10.6 5.2-4.9 14.6-8.4 25.8-4 0.8-1.6 2.3-3 4.7-3.9 2.3-0.8 5.8-0.5 12 0.1 7.3 0.7 19.4 1.9 22.1-1.9 5-6.8 4.7-9.3 1.2-20.2q-0.5-1.4-1.1-3.2c-4.4-12.8-12.5-36.7 1.7-56.5-18.4 2.9-31 16.6-34.6 20.9-4.9 6-16.9 7.7-18.2 7.8 0.5 3.2 0.8 6.5 0.8 9.8 0 32.6-26.5 59.1-59.1 59.1-32.5 0-59-26.5-59-59.1 0-31.9 25.5-58.1 57.3-59 0.8-1.4 3.9-6.3 8.3-9.5 4.3-3.2 10.5-3 13.8-3 0.6 0 1 0.1 1.3 0 0.6 0.1 1 0.1 1.4 0.1q0.5-0.5 1-0.9l0.2-0.3c11.7-8.1 22.1-1 29 3.8q1.4 1 2.7 1.8c1.7 1.1 3.1 2.2 4.2 3.1 3.6 2.8 4.5 3.6 10 0.5 7-4 16.9-14 20.7-17.9-3.5-2.1-6.5-4.9-8.8-8.3-1.1-1.7-2.2-3.8-3-6.2-25.9-2.9-37-17.5-42.3-32.3-0.1 0-0.2 0.1-0.3 0.1q-0.2 0-0.4 0c-20.6-3.3-33-13.6-38.9-32.4-2.8-9-1.8-15.7 0-20.1-5.9-1.9-8.8-11.8-9.3-13.8-0.4-1.5 0.5-3.1 2-3.5 1.4-0.3 3 0.5 3.4 2 1 3.8 3.5 9.4 5.6 10q0.9 0.2 2.1-1l3.9 4c-0.2 0.3-6.7 6.9-2.4 20.7 1.6 5.1 3.7 9.5 6.4 13.2 2.1-15.7 12.7-25.7 18.6-30.2-3.3-2.8-5.1-7.2-5.3-12.8-0.1-2.4 0.1-4.4 0.4-6-2.3-0.6-4.8-2.4-6.4-6.3-3.2-8 3.4-13.4 10.4-19.2l0.7-0.5c5.9-4.9 9.1-11.4 10.8-21.6 1.2-7.5-4-10-4.1-10.1-1.3-0.6-1.9-2.3-1.3-3.7 0.7-1.4 2.4-1.9 3.8-1.3 1.2 0.6 2.8 1.8 4.2 3.6q1.3-1.1 2.7-1.7c-7.1-5.3-6.2-14.7-4.6-19.2q0.1-0.1 0.1-0.1l-0.2-0.4q0.3-0.2 0.6-0.4c0.5-0.5 1.1-0.8 1.7-1 4.6-2.2 11.6-3.8 15.7 1.8 5.3 6.9 8.2 21.7 4.2 34.4-3.4 10.6-10 19.7-30.7 42.1l-0.6 0.5c-0.5 0.5-2 2.7-1.8 9 0.1 2.8 0.8 6.6 3.6 8.9q0.9 0.7 2 1.2 0.2 0 0.5 0.1c1.8 0.7 4 0.9 6.6 0.6 0.6-0.8 1.8-2.4 4-5.3 3.6-4.7 8.9-6.5 12.5-7.2-0.5-2.7 0-6.7 3.6-11.7l0.2-0.2c1.8-2.1 5.5-2.1 12.3-0.6-1.3-2.8-1.5-6-0.5-9.5 1.7-6.8 7.2-9.5 11.3-10.2 0.1-2-0.2-4.6-1.4-6.2q-0.5-0.5-1-1c-3.1-3.7-8.4-9.9-6.1-19.4 2.5-10.4 12-14.9 20.1-13.4q0-0.1 0-0.2 0.2-3.7 4.4-6.5c-0.2-2.6 0.1-7.3 2.9-13.9 4.5-10.4 18.6-16 38.7-15.3 5.9 0.2 11.3 0.5 16.1 0.8 10.2 0.7 18.3 1.2 22.2-0.3 1.9-0.8 3.7-2.3 5.5-3.9 3.7-3.1 8.2-7 15.1-5.2 7.5 1.8 13.2 7.3 15.4 9.7 4.1-0.3 15.3-0.3 23.2 6.6 4.9 4.4 7.6 10.6 7.9 18.5 3.5 1.4 10.5 4.9 13.5 12 2.2 5.5 1.6 11.7-1.9 18.5 4.6 8.3 8.4 24.4-5.5 35.7 0.5 3.7 0.8 12.5-4 19.1-2.7 3.7-6.7 6.2-11.8 7.2 0.2 3.7-0.1 10.1-4.1 14.9q-4.3 5.1-12.3 5.9c0.6 4.9-0.2 13.8-11.1 21.3 0.5 2.8 0.4 13.1 0.4 13.1 0 0 6.2 0.4 10.1 4.1 0.2-3.5 0.5-8 1.3-12.2 1.7-8.4 8-22.4 31.1-23 0-0.6-0.3-1.5-1-2.7-1.9-3.3-2-7.7-0.3-11.1 1.8-3.7 5.5-6.1 10.4-6.7 3.2-0.4 6.5 0 9.5 1.2 1.6-1.8 8.5-8.7 17.5-5.7 14.7 4.8 21.6 16.5 20.1 33.7 2.5 2.3 7.8 8.3 7.7 15.7-0.1 4.9-2.6 9.5-7.5 13.6 3.9 4.8 6 10.9 6.2 17.8q0.1 4.3-0.6 8c3.8 0 9.9 0.8 14.5 4.6 3.5 3.1 5.4 7.3 5.6 12.8 0.3 7-1.4 12.1-4.8 15.3zm-20.3-40.6c-0.1-4.9-1.5-11.9-7.4-17.1-6.2-5.4-16.2-7.6-28.8-6.3l-3 0.7q-0.2 3.4-1.6 7.1c-0.9 2.3-1.8 4.1-2.8 5.8 2.5-1.9 5.4-3 8.6-3.3 6.8-0.6 12.4 2.2 15 7.7 2.3 5 1.6 11-1.9 14.4-5.5 5.5-11.6 3.9-14.1 2.3-1.3-0.9-1.6-2.6-0.8-3.9 0.8-1.3 2.6-1.6 3.8-0.8 0.6 0.3 3.7 1.9 7.1-1.5 1.8-1.8 2.2-5.3 0.8-8.1-0.9-1.9-3.3-5.1-9.4-4.5-3.6 0.3-6.5 2.1-8.6 5.1-3.4 4.8-4 11.6-3.2 14.7 1 4 8.4 18.1 25.2 14.1 15.1-3.7 21.4-11.5 21.1-26.4zm-74.1 96.8c12.7-11.9 13.9-23.1 13.9-34.5 0-11.2-4.5-20.2-13.9-27.6-8-6.4-21.7-4.3-28.5-1.5-5.9 2.5-10 11.8-8.5 19.6 1.7 9.7 8 11.7 13 11.7 3.3 0 6.9-1.9 8.8-4.6 1.7-2.4 2-5.1 1-8.2-0.7-1.9-1.8-3.2-3.2-3.9-3.3-1.6-7.7 0-7.7 0.1-1.5 0.5-3.1-0.2-3.6-1.6-0.6-1.5 0.1-3.1 1.5-3.6 0.3-0.2 6.6-2.6 12.1 0 2.9 1.3 5 3.8 6.2 7.2 1.6 4.8 1 9.4-1.7 13.3-1.5 2.1-3.7 3.8-6.1 5.1q1.7 0.9 3.4 2c8 5.3 14.8 14.7 13.3 26.5zm23.6-65.1c4.6-7.9-3.8-21.1-8.6-24.5-2.4-1.8-11-3.9-18.8-1.5-0.2 0-8.3 3.3-10.4 9.2-1 3.2-1.8 7.7-2.1 10.1 3.5-0.2 7.1 0.1 10.6 1-0.7-3.8 0.4-7.8 3.3-10.7 3.7-3.8 9.1-4.6 13.6-2q5.7 3.5 6.1 8.4c0.5 5-3.6 8.8-4 9.2-0.6 0.5-1.2 0.7-1.9 0.7-0.8 0-1.5-0.3-2.1-0.9-1-1.2-0.9-3 0.2-4 0.7-0.6 2.4-2.6 2.3-4.5q-0.2-2.1-3.4-4.1c-3.3-1.9-5.9 0.1-6.8 1.1-1.7 1.7-2.8 4.8-1.2 7.5 0.4 0.6 2.3 3 3.1 3.6q4.2 3.4 7.3 7.2c0.6-0.3 8.5 1.5 12.8-5.8zm-1.5-25.4c0.4-3.6 1.6-7.4 3.5-10.6-4 3.2-8.5 4-12.3 4-2.4 0-4.4-0.3-5.9-0.6q-0.6-0.1-1-0.1c-3.7-0.5-8.3-2.7-12.5-7.1 1 2.6 1.9 5.4 2.5 8 8.3-1.9 17.8-0.3 21.9 2.7 1.1 0.9 2.5 2.1 3.8 3.7zm-30.6-38.1c-0.5 2.4-0.8 5-1 7.4 0.1 0.1 0 1.1 0.1 1.2 2.3 12.7 12.6 16.1 16.5 16.6q0.6 0.1 1.2 0.2c5.5 0.9 14.8 2.3 19.7-11.1 1.9-4.9 1.9-9 0.1-12.2-2.1-3.9-6.7-5.7-8.9-6.1-1.4-0.3-5.3-0.1-7.7 1.9-1.5 1.1-2.2 2.7-2.3 4.7 0 1.8 0.4 3 1.3 4 1.6 1.6 4.5 1.8 5.5 1.8 1.5 0 2.8 1.2 2.8 2.8 0.1 1.5-1.1 2.8-2.7 2.8-0.6 0.1-6 0.1-9.5-3.5-2.1-2-3.1-4.8-3-8 0.2-3.8 1.7-6.9 4.4-9 4-3.2 9.7-3.5 12.3-3 0.9 0.2 8.8 1.9 12.7 8.9 0.7 1.3 1.2 2.6 1.6 4.1l2.6-0.6c14-1.5 24.8 0.8 32.4 7 3.8-3.1 5.8-6.3 5.8-9.7 0.1-6.6-6.7-12.2-6.8-12.2l-1.2-1 0.2-1.5c1.7-15.6-3.5-25.2-16.1-29.3-4.8-1.7-9 1.5-10.8 3.3q0.6 0.5 1.2 1c4 3.8 6.1 9 5.8 14.3v5.2c0.1 0.6 0.2 1.8-0.6 2.7 0 0-0.8 1.3-2.2 1.3-1.4 0-2.2-1.4-2.2-1.4-0.6-0.7-0.7-1.6-0.6-2.6v-5.4c0.3-3.9-1.2-7.4-4-10-3-2.8-7.2-4.2-11.1-3.7-3.1 0.4-5.2 1.7-6.2 3.7-1 2-0.7 4.4 0.2 5.8 2 3.6 2.3 7 0.8 9.2-1 1.3-2.5 2-4 1.9-18.7 0.3-24.7 10.2-26.3 18.5zm50.8-19.8c-0.1 0.3-0.1 0.5-0.1 0.7zm-70.8 31.7c0 0-16.3 2.8-24.8 2.8-8.8 0-16.6-0.7-19.3-0.9q-0.4 0.6-0.8 1.1c-0.4 2.2-2.6 13.4-2.8 22.4 2.5-2.3 5.5-5.2 7.6-7.7 5.2-6.3 14.4-9.4 18.9-6.4 2.1 1.4 3 4.1 3.3 6.6 1.8-0.5 3.4-0.5 4.5-0.2l0.5 0.2c5.5 2.6 7.2 6.6 7.6 9.5 1.8 12.3-14 27.6-20.9 33.6-0.7 0.6-1.3 1.1-2 1.7 1.9 0 3.8 0.3 5.6 1.1 3.5 1.5 6.2 3.2 8.3 4.9 0.2-8.3 4.5-17.6 12.2-20.8 2.3-0.9 5.3-1.8 8.6-2.4 0.2-1.4 1.1-7.9 2.5-12.6 2-5.2 5.6-9 10.6-11.3-0.9-4.9-1.5-9.3-5.8-15.3-4.4-5.9-13.8-6.3-13.8-6.3zm-24.3 15.9c-1.2-0.7-7.4 0.4-11.5 5.4-3.5 4.1-8.8 8.8-11.6 11.2q0 0 0.1 0.1l0.4 2.5c0.5 2.4 1 4.6 1.2 6.6 10.3-3.4 18.4-13.3 20.8-17.9q0.7-1.4 1.6-2.4c0.1-2.6-0.4-5.1-1-5.5zm-26.1 51c2 0.4 8.5 0.4 20.5-10.1 12.5-10.9 20-22.1 19.1-28.6-0.3-2.2-1.7-3.9-4.1-5.1-0.9-0.1-3.3-0.1-5.1 3.3-3.4 6.4-13.2 17.7-25.4 21-0.2 2.2-0.7 4.3-1.9 6.5-2.4 4.9-4.3 9.2-3.1 13zm-45.6-91q0.9-1.7 2.1-3-0.4 0-0.8 0c-13.2 0-44.9-7.2-67.5-23.1-0.9 1.7-2.3 4.6-3.5 8.1 2.5 2.5 26.8 25.8 66.7 28.1q0.4 0 0.7 0.1c-0.3-4 0.8-7.3 2.3-10.2zm-25.4-35q-0.1 0.1-0.1 0.1 5.5 1.8 12.6 3.5c-0.8-4.5-0.3-10.8 4.2-16.4-4.6-0.3-8.9-0.6-12.1-1-7.1 5.2-5.6 10.2-4.9 12.3 0.1 0.6 0.3 1 0.3 1.5zm54.3 9.6c0.3-0.4 0.7-1 1-1.4 1.5-2.3 3.8-5.7 8.1-7.9-0.5-2.5-1-7.8 1.9-12.7q0.2-0.3 0.4-0.5c-2.2 0.2-5.2 0.3-9.1 0.5-6.1 0.3-19.7 0.4-32.3-0.1-9 7-6.3 15.9-5.7 17.4 9.7 2 21.5 3.7 35.7 4.7zm-34.5-101.3c2.1-1.4 3.5-3.3 7.7-6.1 3.7-2.8 14.9-7 32.6-2 17.3 5 24.2 3.9 24.2 3.9l-1.6 3.9c-0.8 2.3-10.7 12.2-19.3 13.5-5.2 0.7-9.1 1-12.5 1-1.4 0-2.8 0-4.1-0.1 0.1 0.9 0.2 1.8 0.1 2.8-0.2 1.1-0.6 2.1-1.1 3 2.8 0.2 12.5 0.4 14 0.5q1.8 0.1 3.8 0.2 0-0.6 0.2-1.1c6.4-13.4 25.1-15.5 42.5-15.9q2.6-0.1 4.8-0.2c1.5-0.9 2.8-2.8 3.6-5.1q0.5-1.7 0.6-3.5c-0.2-0.5-0.2-1.1-0.1-1.6-0.1-1.9-0.7-3.7-1.6-5.3-1.9-3.2-6-4-9.2-3.4-1 0.2-4.4 1.1-4.9 4-0.7 4.6 2.2 5.6 3.1 5.8 1.5 0.4 2.5 1.8 2.2 3.3-0.4 1.5-1.8 2.5-3.3 2.2-3.7-0.7-8.7-4.5-7.5-12.2 0.7-4.3 4.3-7.6 9.4-8.6 5.2-0.9 11.8 0.6 15 6.1 0.8 1.3 1.3 2.7 1.8 4.1 1.2-0.6 2.7-1.2 4.4-1.7 5.9-1.2 11 0.2 14.6 4 4.4 4.6 6.2 12.4 4.3 19.3-0.3 1.3-0.8 2.4-1.4 3.4 2.5 0.9 4.7 2.3 6.4 4.3 2.9 3.5 4.2 8.5 3.5 14-0.6 4.7-4.4 8.3-9.9 9.3-0.9 0.1-1.8 0.2-2.6 0.2 2.9 4.6 4.3 10.5 3.2 15.2-1 4.6-4.1 7.7-8.7 8.7q-2.7 0.6-5.2 0.7c2.2 4.1 3 8.9 1.7 13.1-1.4 5-5.5 8.2-11.2 8.6-0.1 0-0.3 0-0.5 0 1 3.7 1.5 9-1.6 14.2-2.1 3.5-5.6 5.5-9.3 5.5q-1.2 0-2.4-0.3c-4.9-1.1-8.6-5.2-9-9.8-0.3-3.5 0.9-5.7 2-7 2.6-2.8 6.5-2.9 7-2.9 1.5 0 2.7 1.3 2.7 2.8 0 1.6-1.2 2.8-2.7 2.8-0.5 0-2.1 0.2-2.9 1.1-0.1 0.2-0.7 0.9-0.6 2.7 0.2 2.2 2.2 4.3 4.7 4.9 1.3 0.3 3.9 0.3 5.7-2.7 2.9-4.9 1-10.3 0.1-12.4-3.8-1.7-6-5.2-6.4-8.8-2.1 1.9-4.9 2.9-8 2.9-0.5 0-1.1 0-1.6-0.1 1.4 6.3-0.6 14.1-5.6 15.9-1.5 0.7-3.2 0.9-4.8 1 1.1 1.9 1.8 4 2.1 6 0.7 5.2-1.6 8-4.9 10.7-2 1.6-5.4 2.4-8.4 2.4q-1.4 0-2.8-0.4 0.4 1.2 0.7 2.3c3.7 1.8 7.1 5.4 8.9 10.7 10.8 0.8 34.9 1 43.1-5.4 6.2-5 4.6-14.2 4.4-14.5l-1.5-3.9h4.2q7.8 0.1 11.3-4c4.1-5 2.7-13.1 2.7-13.1l-0.6-3 3-0.3c4.8-0.6 8.4-2.4 10.6-5.5 4.7-6.4 2.8-16.3 2.8-16.4l-0.4-1.7 1.5-1.1c16.2-11.9 5-29.9 4.5-30.7l-0.9-1.4 0.9-1.4c3.3-5.9 4-10.9 2.3-15.1-2.8-6.9-11.7-9.4-11.8-9.4l-2.1-0.6v-2.2c0.1-7.1-1.9-12.6-6-16.2-7.6-6.8-20.2-5.2-20.3-5.2l-1.5 0.2-1-1.2c-0.1-0.1-5.8-7.1-13.4-9-4-0.9-6.4 0.9-10.1 4.1-2.1 1.9-4.3 3.8-7.2 4.8-5.1 2-13.2 1.5-24.6 0.8-4.7-0.4-10.1-0.7-15.9-0.9-17.6-0.6-29.8 3.8-33.3 12-2.2 5-2.6 8.6-2.6 10.5zm99.3 2.2c4.2-0.9 6-1.9 6-1.9l4.6-2.7-0.4 5.3c0 0.4-0.4 5.8-2.1 12.5 2.3 0.1 9.4-0.1 10.9-6 1.4-5 0.1-10.9-2.9-14.1-2.3-2.4-5.4-3.2-9.3-2.3-2.4 0.6-4.1 1.5-5.1 2.2q-0.1 2.4-0.8 4.7-0.4 1.2-0.9 2.3zm-0.2 80.5q5-0.3 6.3-4.6c1.3-4.4-1-10.3-5-13.3-4.5-3.4-8.4-3-10.4-2.4 0.7 2.1 0.9 4.3 0.8 6.5 1.4-0.9 3.1-1.5 5.2-1.7 1.5-0.1 2.9 1 3 2.6 0.1 1.5-1 2.9-2.5 3-3.7 0.3-4.8 2.9-4.6 5 0.1 1.8 1.2 3.5 3.2 4.4q0.5 0.1 1 0.3 1.3 0.4 3 0.2zm13.9-22.2c2.5-0.6 3.9-2.1 4.5-4.5 1-4.5-1.6-11.3-5.6-14.5-5-3.9-13-3.1-16.3-2.6 2.4 2.1 4 4.8 4.6 7.6q0.1 0.3 0.1 0.6c2.4-1.9 5.2-2.2 6.9-1.9 1.6 0.3 2.6 1.7 2.3 3.2-0.2 1.6-1.7 2.6-3.2 2.3-0.9-0.1-3.1 0-4 3.5-0.2 1.2-0.5 3.5 1.1 5.1 1.7 1.7 5.2 2.2 9.6 1.2zm8.3-24.2c2.4-0.4 5-1.8 5.3-4.5 0.5-3.9-0.3-7.4-2.2-9.7-1.6-1.9-4-3-7-3.3-3.1 1.7-6.6 2.2-9.4 2.2q-1 0-1.8 0-0.2-0.1-0.4-0.1c-1.5 4.2-3.5 8.5-6.2 12 2.9-0.1 6.5 0.1 9.8 1.2-0.8-4.6 2-8 3.9-9.2 1.3-0.9 3-0.6 3.9 0.7 0.8 1.3 0.5 3-0.8 3.9-0.6 0.4-2.5 2.1-0.9 5.1 0.7 1.4 3.2 2.1 5.8 1.7zm-41 4.5c-9.7 1.9-13.5 9.2-14.8 13.1 2.2-0.8 4.7-1.3 7.5-1.6 1.9-0.1 3.8 0 5.4 0.3-0.1-2.9 0.9-5.7 3.1-7.4 1.2-1 2.9-0.8 3.9 0.4 0.9 1.2 0.7 3-0.5 3.9-1.1 0.9-1.2 3-0.4 4.6 1 1.9 2.9 2.4 5.5 1.5 4.5-1.5 5.4-5 4.8-7.8-0.8-3.4-3.8-6.6-8.7-7.3-2.3-0.4-5.2 0.3-5.8 0.3zm-25.1 31q1.7-0.7 3.8-1.1c2.4-0.5 4.6-0.6 6.6-0.3 0.1-1.8 0.7-3.5 1.8-4.7 1.2-1.4 3-1.9 4.7-1.5 1.4 0.4 2.4 1.9 2 3.4-0.3 1.3-1.5 2.1-2.7 2.1h-0.1c-0.1 0.4-0.3 1.3 0 2.3q0.2 0.5 0.5 0.9 0.9 0.7 1.6 1.5 1.4 0.9 3.4 1.2c3.8 0.6 5.9-1.1 6.9-2.6 2-2.9 2.1-7.3 0.3-10.5-1.4-2.4-4.3-5.1-10.5-4.6-12.2 0.9-16.7 9-18.3 13.9zm14.3 6.7q-0.9-0.7-1.6-1.4c-1.6-1.2-4.1-1.7-7.7-0.9-4.8 1-8.1 3-9.8 5.9-1.8 3-1.7 6.4-1.5 8.3 1.4-0.2 2.8-0.3 4.3-0.2q1.3 0.1 2.5 0.3c-0.2-2 0.2-4.1 1.5-6.3 0.7-1.4 2.4-1.9 3.8-1.1 1.3 0.8 1.8 2.5 1 3.8q-1.5 2.7-0.3 4.1c1.2 1.4 4.4 2.1 7.4 0.9 1.5-0.5 3.4-5.4 1.9-10.3-0.3-1.1-0.7-2.1-1.5-3.1zm-22.7 39.5c-1.8-4.6-6.3-12.1-16.2-10.5-8.3 1.4-10.3 10.2-10.7 12.3 1.8 0.4 3.2 1 4 1.4 0.4 0.2 0.8 0.5 1.1 0.7 0.1-2.9 0.5-6.1 2.2-8.4 1.4-1.8 3.4-2.9 5.8-3.1 2.4-0.2 4.5 0.6 6.1 2.2 1.8 1.8 2.7 4.6 3.1 7.3 1.4-1 2.9-1.7 4.6-1.9zm-9.8 8c0.1-3.5-0.3-7.9-1.9-9.5-0.5-0.5-0.9-0.6-1.7-0.6-0.7 0.1-1.3 0.4-1.7 0.9-1.6 2.3-1.1 8-0.5 10.6 1.1 1.1 2.4 2.5 3 2.5 0.4-0.1 1.2-1.5 1.9-2.5q0.4-0.7 0.9-1.4zm14.7-17.6c0.7 2.3 1.6 2.8 2 2.9q2.2 1 7.4-1.6l0.4-0.1c1.6-1.3 2.2-3 1.9-5.4-0.4-3.2-3.6-8.1-10.5-8.4-7.7-0.4-10.5 3.8-12.7 7.2q0 0-0.1 0c2.2 0.9 4.1 2.1 5.7 3.6 0.3-2.7 2.3-4.9 4.1-5.8 1.3-0.8 3-0.3 3.8 1.1 0.7 1.4 0.2 3.1-1.2 3.8-0.7 0.4-1.5 1.1-1 2.2zm-18.6 61.6c9.4-7.5 25.3-23.3 24.6-33.1-0.6-9.2-6.1-13.5-9.7-13.5q-1.7 0-2.8 1.3c-1.1 1.1-7.8 10.8-11 10.8-3.1 0-5.3-2.4-7.6-4.9-1.6-1.7-3.3-3.5-5.2-4.4-0.8-0.4-2.5-1.1-4.4-1.1-2.8 0-4.9 1.4-6.5 4.3-2.1 3.8-6.9 12.8 22.6 40.6zm41.2-34.2c-4.5 0-8.4-0.2-11.1-0.4 0 0.4 0.1 0.7 0.1 1.1 0.3 3.4-0.8 7.1-2.6 10.8 7.9 0.6 27.1 1.6 38.4-1.6 0.8-4.9 0-10.2-0.4-12.5-7.5 2-16.7 2.6-24.4 2.6zm5.7-100.7c0.3-0.1 4.1 0.4 6-0.3 3.8-0.7 6.8-2.4 9-5.1 5.3-6.7 7.5-17 8.4-22.8-3.4 1-8.8 2.1-16.8 2.2-14.5 0.3-31.7 2-37.2 12 8.8 1.2 17.9 3.9 22.7 12 0.5 1.1 3.9 1.7 7.9 2zm-55-26.5c4.7 0.6 11.3 0.4 18.2-0.9 6.9-1.3 10.3-4.6 13.4-7.3-3.3-0.5-10.1-1.8-17.4-3.6-15.5-3.9-20-2.5-25.3-0.9 0 0-6.4 2.4-7.9 6.8 3.8 0 9.2 0.5 14.3 2.6 1.5 0.6 2.9 1.7 4 2.9 0.2 0 0.5 0.4 0.7 0.4zm-20.9-0.3q0.3 4.1 2.6 6.4c2.8 2.9 7.4 3.4 9.9 3.4 1 0 2.1-0.1 3.2-0.3 1.1-0.1 1.6-0.6 1.7-1.7 0.3-1.9-1-4.7-3.3-5.6-5.1-2.1-10.9-2.3-14.1-2.2zm-8.4-0.4c0 0.8 1.2 2 2.1 2.6q0.4 0.2 0.7 0.6c0 0 0.1 0.2 0.5 0.5-0.4-1.8-0.6-3.8-0.5-6v-0.3q0 0 0 0c-2 1.1-2.8 2.1-2.8 2.6zm-22.5 58.1c1.6 2.6 4.8 4.1 6.9 4.9q0.2 0.1 0.4 0.1l2 0.6v0.2c7.6 1.7 40 2.6 54 1.9 7.1-0.3 10.8-0.7 12.7-0.9 0.8-3.7 3.4-11.1 10.3-15.9 0-0.7-0.2-1.7-0.1-2.2 0.8-4.5 4-11.5 11.3-16.1-1.3-0.5-2.4-1.2-3-1.9l-0.3-0.5c-4.9-8.8-18.1-9.7-27.7-10.3q-2.4-0.1-4.4-0.3c-27.8 0.8-38.4-8.1-40.7-10.5-1.4-0.6-3.6-1.5-4.9-1.6l-0.2-0.1c-5.6-1.3-12.3 1.8-14.1 9.1-1.6 6.8 1.9 10.8 5 14.4q0.5 0.6 1 1.2 0.2 0.2 0.3 0.5c5-0.2 25.6-1.1 32.7-2.4 7.2-1.3 20.2-2.8 27 2.4 2.5 1.9 4 4.6 4.2 7.8 0.5 5.7-1.3 10.6-5 13.8-2.3 2.1-5.4 3.3-7.9 3.3q-0.7 0-1.3-0.1c-2.7-0.6-46.8-9.4-50.6-10.2-1.2 0-6.7 0.4-8.2 6.3-0.7 2.6-0.5 4.7 0.6 6.5zm31.2-14.4v0.6q2.3 0.5 4.7 1c-0.4-0.8-0.8-1.6-1-2.5-0.3-1.5-0.3-2.9-0.2-4.3-1.5 1.2-3.1 3-3.5 5.2zm28.9-4.1c0 3.4-1.4 6.6-4.3 9.7 1.9 0.4 3.9 0.6 4.3 0.7 0.6 0.1 2-0.3 3.9-2.1 2.2-2 3.2-5.1 2.9-8.9-0.2-1.6-0.8-2.9-2.1-3.8-1.6-1.3-4-2-6.8-2.3 1.1 1.7 2.1 4 2.1 6.7zm-29.9-4.5c-4 0.3-8.1 0.5-11.7 0.7-0.9 1.9-0.9 4.3-0.7 5.9 2.4 0.4 5 1 7.8 1.5v-0.2c0.6-3.4 2.5-6 4.6-7.9zm-17.7 1q-1 0-1.8 0.1c0.2 1.5 0.3 2.9 0.2 4.1q0.6 0.1 1.2 0.2c0-1.3 0-2.8 0.4-4.4zm42 3.6c0-2.6-1.8-4.6-2.6-5.5q-2.1-0.4-3.9-0.4c-3 0-5.3 0.9-6.6 2.5-1.4 1.7-1.3 3.8-1 5.3 0.9 4.1 7.9 4.8 10.2 4.9 2.6-2.3 3.9-4.6 3.9-6.8zm-70 32.9c0.4 0.4 4.7 4.5 16.3 9q-1.3-7.5 4.2-13.3c-5.3-1.6-15.4-5.8-18.7-4.1-3.9 5.4-2 8.2-1.8 8.4zm-14.6 10.7l-2.1 3.6c24.6 18.2 61.4 24.9 68.9 23 5.1-1.2 7.8-8.3 8.7-12.4-43.8-5.1-60-16.7-64-20.1-5.1-1.3-11.3 5.7-11.5 5.9zm-0.5-79.9c3.8 2 5.6 1.8 6.3 1.5 0.9-0.3 1.3-1.2 1.8-2.4l0.2-0.5q0.1-0.1 0.1-0.2c-0.8-4.4-2.3-8.2-4.1-10.7-2.1-2.7-7.2-4.5-8.5-0.1-1.4 4.3-0.1 10 4.2 12.4zm-23.6 59.2c0.7-1.2 1.4-1.9 1.9-2.3 19.9-21.5 26.2-30.1 29.3-39.7 1.1-3.5 1.6-7.2 1.6-10.9q-0.5 0.3-1 0.5-1.3 0.5-2.9 0.5c-0.4 0-2.5 0.5-3.1 0.5-0.1 0-5 0.1-6.9 2.9 0.6 2 0.8 4.4 0.3 7.1-1.8 11.5-5.8 19.3-12.8 25l-0.6 0.6c-7.4 6.1-10.3 8.9-8.8 12.7 1 2.4 2.2 3 3 3.1zm10.7 69.3c-0.9-3-1.5-6-2-8.8-2.3-13.6 3.8-27.4 6.6-32.8q-3.6 0.2-6.6-0.6c-4.1 2.7-19.1 14-18.9 33 5.3 4.6 12.2 7.6 20.9 9.2zm42.4 32.2c-1.5-8-1-19.1 4-34.3-22.1-6.5-36.5-18-42-23-1.1 4.8-1.8 10.1-0.8 15.3 3 17.5 10.2 37.9 38.8 42zm-72.6 42.9q5.1 0.4 10 1.7c0-0.4 0.2-0.9 0.5-1.2 0.6-0.8 1.5-1.7 2.6-2.5-0.1-0.5-0.1-1.6 0.1-2.1 0-0.1 0.4-1.6 1.3-3-2.7 0-6.9 0.1-9.5 1.9-2 1.5-3.7 3.6-5 5.2zm48.7 58.9c0-29.7-23.9-53.7-53.6-53.7-29.6 0-53.5 24-53.5 53.7 0 29.6 23.9 53.6 53.5 53.6 29.7 0 53.6-24 53.6-53.6zm60.9-44.6c0.6 0 1.4 0 1.9 0 13.2-13.3 29.2-12.3 34.4-11.7-0.9-5.6 1.8-11.1 4-15.3 2.1-4.2 1.4-7.7-0.1-15.3l-0.4-2.1c-0.2-0.1-0.1-16.7 0.7-22.5-7.3 7.8-14.9 13.5-15 13.6l-1.9 1.4-1.7-1.6c-16.8-15.6-24-25.4-26.5-33.3-1 0.2-1.3-0.1-2-0.1h-0.2c-7.5-0.4-14.4-1.6-20.9-3.1-6 18.2-6 32.6 0 41.8 3.9 5.9 10.3 9.4 18.5 10 5.1 0.4 8.8-0.6 10.9-3 3.4-3.8 2-10.3 2-10.3-0.3-1.5 0.6-3 2.1-3.4 1.6-0.3 3 0.7 3.3 2.2 0.2 0.3 2 9.2-3.2 15.2-2.9 3.3-7.2 5-13 5q-1.2 0-2.5-0.1c-3.1-0.2-6-0.9-8.6-1.8-2.2 2.4-14.4 15.3-23.3 20.4-3.4 1.9-6 2.7-8.2 2.7-3.1 0-5.3-1.5-8.1-3.7-1.1-0.9-2.2-1.9-3.7-2.8-0.9-0.6-1.8-1.2-2.8-1.9-8-5.5-14.7-9.2-22.5-3.9-1.3 1.3-2.4 2.9-3.1 4.3 3.8-0.6 8.4 0 13.4 3.3 7.7 4.5 12.2 8.9 15.5 12.1 4.6 4.5 6.5 6.4 12.4 5.5 8.8-1.3 13.6-4.6 16-6.4-1.5-2.2-2-4.8-1.6-7.2 0.7-3.7 5.5-9.9 18.6-8.9 0-3 1.2-4.7 2.4-5.8 4-3.2 10.9-1.3 15.7 1.3 5.1 2.8 9.2-0.3 9.4-0.4 1.2-0.9 3-0.7 3.9 0.5 0.9 1.2 0.7 3-0.5 3.9-0.3 0.2-7.1 5.4-15.5 0.9-4.1-2.3-8.3-2.8-9.4-1.9-0.5 0.5-0.5 1.8 0 3.6 0.4 0.5 2.1 2.7 6.4 2.7 1.6 0 2.8 1.2 2.8 2.8 0 1.5-1.2 2.8-2.8 2.8-5.9 0-9.1-2.8-10.6-4.6-10.4-1.4-14.5 2.1-14.9 4.1-0.4 2.2 1.1 4.9 5.3 5.8 1 0.2 1.5 0 1.8-0.2 1.1-0.8 1.6-2.7 1.7-3.3 0.2-1.6 1.6-2.6 3.1-2.4 1.5 0.2 2.6 1.6 2.4 3.1 0 0.5-0.7 4.8-3.9 7.1-1.3 0.9-2.8 1.4-4.4 1.4q-0.9 0-1.9-0.2c-1.3-0.3-2.5-0.8-3.6-1.4q-0.2 0.2-0.4 0.3c-2.4 1.9-8.2 6.3-19.2 7.9q-1.8 0.3-3.3 0.3c-6.4 0-9.7-3.3-13.8-7.3-3.2-3.2-7.3-7.1-14.5-11.3-8.1-5.4-13.3-1.3-14.8 0.3 17.9 6.5 31.8 21.6 36.8 40.2 0.2 0 0.3-0.1 0.5-0.1 3-0.4 11.6-2.2 14.6-5.8 4.2-5.1 19.6-21.7 42.3-23.4zm-42.9 101.3c-0.1-2.2-1-3.5-2.8-4.4-2.9-1.2-5.7-1.7-8.3-1.7-5.1 0-9.3 2-11.9 4.5-2.2 2.1-2.8 4.1-2.6 4.6 0.8 2.4 11.7 4.1 16.9 5q2.6 0.4 4.9 0.8 0.3-0.3 0.7-0.5c0.9-0.6 3.3-4.6 3.1-8.3zm55.3 22.3c1.7 0.2 3.5 0.6 5.5 1-0.1-2.1 0.1-3.5 2.4-8.9l0.2-0.4c5.5-9.3 6.9-10.1 14.1-11.4 2.9-0.5 7-1.2 13.2-3.2 17.2-5.4 10.9-32.4 10.8-32.7l-0.7-3.1 3.2-0.3c20.4-1.9 35.8-7.8 52.4-20.2 7-15.8-5-25.5-8.9-28.1-8.8-5.9-21.9-7.7-28.5-0.7-4.5 4.8-6.7 9.3-6.5 13.6 0.2 5.7 4.6 9.6 6 11 1.7 1.5 6 3.4 9.9 2.7 2.9-0.5 5.2-2.4 6.9-5.7q2-3.8 0.8-6.4c-1.2-2.5-4.7-3.9-5.8-4.2-1.5-0.3-2.4-1.8-2.1-3.3 0.4-1.5 1.9-2.5 3.4-2.1 0.3 0.1 7.1 1.8 9.6 7.3 1.5 3.3 1.2 7.1-0.9 11.3-3.1 6-7.6 8-10.9 8.6q-1.4 0.2-2.7 0.2c-5.2 0-9.8-2.4-11.9-4.3-1.9-1.7-7.5-6.9-7.9-14.8-0.2-5.9 2.5-11.8 8.1-17.7 3-3.3 7-5.2 11.3-5.9q-1.2-1.3-2.1-2.8c-0.9-0.2-4.5-9.6-13.6-12.6-6.1-2.1-15.3 2.5-18.4 4.7l-0.9 0.6-11.3-1.7c-1.1-0.2-21.6-4-35.6 14.7-13 17.6-5.4 39.9-1.3 51.9q0.6 1.8 1.1 3.3c3.8 11.7 4.5 16.3-1.9 25.2-4.6 6.4-17.1 5.1-27.2 4.1-3.5-0.3-8.4-0.8-9.5-0.4-1.6 0.7-2 1.5-2 2.2 1.3 1.7 1.9 3.8 2 6.1 3.6-1.6 7.9-1.2 10.8-0.9 6.2 0.6 18 3.8 22.2 4.9h0.4c15.3 0 17.1-7.9 18.1-28.7 0.9-19.7 3.8-25.5 14.2-28.3 5.5-1.5 11.8 1.1 14.6 6 2.4 4.4 1.4 9.4-2.7 13.3q-4.9 4.7-9.6 3.8c-4.6-0.9-6.7-5.4-7-5.9-0.6-1.4 0-3.1 1.4-3.7 1.4-0.6 3.1 0 3.7 1.4 0.1 0.1 1.2 2.4 3 2.7 1.5 0.3 3.4-1.1 4.7-2.3 1.5-1.5 3.1-3.9 1.6-6.5-1.3-2.4-4.8-4.3-8.3-3.4-6.1 1.7-9.1 3.3-10 23.2 0.8 20.6-7 37.6-25.3 33.9-5.5-1.1-15.3-4.3-21.5-4.9-7.5-0.7-10.3 0.1-11.3 5.8q-0.1 0.2-0.1 0.4c1.7 0.4 3.7 0.9 5.8 1.4 13.2 3.4 33 8.4 45 10.2zm156.2-116.1c-5.3 2.7-10.3 3.7-14.8 3.7-5.6 0-10.2-1.5-13.4-2.9-0.5 12.1-3.6 24.9-20.2 38-15.6 12.3-30 19.2-47.6 22.4 1.8 7 4.8 26.2-0.1 35.1-2.7 4.9-7.8 6.3-12.8 6.3-6.8 0-13.6-2.6-14.2-2.9-4.4 1.2-7.5 1.8-9.9 2.2-5 0.9-5.7 1-9.1 6.7 5.1-1.3 13-2.1 20.4 1.9 7.8 4.2 8.2 9 7.8 11.5-0.4 2.1-1.7 4-3.5 5.3q1.9 0.7 3.9 1.4c9.6 3.3 18 6.1 22 7 5.4 1.1 9.4 1.5 11.8-0.2 2-1.4 3.4-4.5 4.2-9.3 0.4-2.9 0.6-5.4 0.8-7.6 0.8-8.4 1.3-14.5 13.8-18.3 6.5-1.9 6.5-1.9 5.9-6.6-0.5-3-1.1-7.6-0.4-14.3 1.6-15.4 8.1-17.7 15.5-20.4 2.1-0.7 4.2-1.5 6.6-2.6 1.7-0.8 3.3-1.6 4.9-2.3 8.4-3.7 14.4-6.4 23.1-19.4 7.7-11.3 6.4-27.5 5.3-34.7zm-124.4 115.4c-8.8-4.8-19.2-0.6-20.6 0-1.4 1.7-0.1 2.6-0.1 3.1 6 1.7 12.9 3.9 19.8 6.2 0.3-0.3 0.8-0.5 1.2-0.5 2.4-0.4 4.4-1.7 4.7-3.2 0.3-1.6-1.6-3.7-5-5.6zm22.9-53.4c-0.8 0.1-1.6 0.2-2.4 0.3 1.8 10.6 1.1 27.1-10.6 34.1 5 1 11.2 1.4 13.5-2.8 4.2-7.6 0.7-27.3-0.5-31.6zm147.6-102.6c-0.2-3.9-1.4-6.7-3.8-8.7-3.8-3.3-9.7-3.4-12.1-3.3-3.4 9.4-11 15.3-23.5 18.3-2.5 0.6-4.9 0.9-7.1 0.9-7.1 0-12.6-2.8-16.7-6.4 0 2.9-0.6 5.7-2.1 8.3-3.9 6.7-9.5 8.6-13.6 8.6h-0.1c2.9 5.3 4.5 11.1 4.8 17.5 3.6 2.1 15.3 7.3 28.3-1.1 1.3-1.5 2.6-3 3.8-4.6 4.3-5.4 9.6-12.1 16.8-6.7 1.8 1.4 3.4 3.2 4.8 4.8 1.8 2.1 3.6 4 5 4 0.7 0 2.1-0.4 4.5-3.2 2.7-4.9 1.6-9.2 0.2-11.6l-2.9-4.9 5.7 0.8c0 0 2.8 0.2 5-1.8 2.1-2 3.2-5.8 3-10.9z"/><path class="c" d="m858.6 425.8c0 0 2.9-5.2 15.4-19.6 12.6-14.3 32.7-52.3 35.2-62.5"/><path class="a" d="m761.2 461.1c-82.4 0-149-66.6-149-149 0-82.4 66.6-149 149-149 82.3 0 148.9 66.6 148.9 149 0 82.4-66.6 149-148.9 149z"/><path class="c" d="m761.2 461.4c-82.6 0-149.3-66.7-149.3-149.3 0-82.6 66.7-149.3 149.3-149.3 82.5 0 149.2 66.7 149.2 149.3 0 82.6-66.7 149.3-149.2 149.3z"/><path class="b" d="m761.5 440.9c-71.1 0-128.6-57.5-128.6-128.7 0-71.2 57.5-128.7 128.6-128.7 71.2 0 128.7 57.5 128.7 128.7 0 71.2-57.5 128.7-128.7 128.7z"/><path class="a" d="m597.3 57.1c2.1 3.2 3.6 6.9 5.4 10.3 4.1-0.8 7.6-2.2 11.6-3.1-1.3 3.3-1.8 7.4-3.1 10.7q4.8 2.8 10.7 4.5c-2.6 2.8-5.9 4.8-9.4 6.7 1.5 3.7 3.5 6.9 5.4 10.3-2.9 0.6-7.6-0.8-11.6-0.5-1.4 3.1-2 7-2.7 10.8-3.5-1.9-5.4-5.4-8.5-7.6-3.9 1.4-6.1 4.5-9.8 6.2-0.7-3.5-0.7-7.7-1.4-11.2-4.3 0.4-7.3-0.7-11.6-0.4 1.8-3.2 4.1-6 6.3-8.9-1.3-4-7.4-5.5-7.6-9 3.9-0.5 7.3-1.6 10.7-2.7-0.5-3.6-1.2-7.1-1.3-11.1 3.4 1.4 6.7 3.1 10.2 4.4 2.9-2.5 4.8-5.9 6.7-9.4zm22.8 314.3c1.3-0.2 0.4 1.6 1.4 1.8-0.9 1-2.3-0.8-1.4-1.8z"/><path  d="m681.3 861.3h1.4c0 0 0.3 54.5 0.3 57.3 0 2.8 6.4 6.6 6.4 6.6v1.2h-22l0.1-1.2c0 0 6.9-3.9 6.9-6.3v-39.8h-10.7v-1.4c2.6-0.8 7.5-3.8 9.8-6.1 3.3-3.2 5.3-6.4 7.4-10.3zm106.4 0h1.3c0 0 0.3 54.5 0.3 57.3 0 2.8 6.4 6.6 6.4 6.6v1.2h-22.6v-1.2c0 0 7-3.9 7-6.3v-39.8h-10.8v-1.4c2.6-0.8 7.6-3.8 9.9-6.1 3.2-3.2 5.9-6.4 8-10.3zm-76.4 66.1c-1.2-2.6 12.8-3.6 23.8-12.8 13.3-11.2 19.1-35.3 0.8-43.5-12-5.4-25.1 5.2-21.9 17.4 2.8 10.8 17.7 10.6 25.9 5.4-1.8 6-8 9.4-14.3 9.8-13.9 0.9-23.9-8.8-21.4-23.7 1.8-10.8 16.6-21.1 32.1-17.4 12.9 3.1 21 14.5 19.3 31.8-2.1 20-24.1 31.6-44.3 33zm132.3-37.1c7 3.5 16.5 7.2 15.2 17.9-2.6 20.6-41.5 24.1-47.8 5.4 0.8-0.7 2.3-0.7 2.7-1.8 6.1 15.1 38.6 8.8 33-9.4-2.3-7.7-11.6-9.1-23.2-8.5v-4.9c11.5 1.3 20.7-1.8 19.2-11.2-1-6.1-11.1-8.9-18.3-6.7-3.5 1-5.1 2.2-7.4 4.8-0.5 0.6-1.2 1.1-2.4 0.6q0-1.1 0.2-2.1c3.3-14.8 34.5-14 38.2 0.7 1.2 9.4-3.9 12.5-9.4 15.2zm-357.3-698.1l10.1 18.6 21.2-5.6-5.3 20.1 20.4 8.2-16.6 12.3 9 19.6-21.4-1.5-4.9 20.8-15.3-14.1-17.4 12.6-2.9-20.9-22.3-1.2 11.9-16.8-15.9-14.4 20.8-6.5-3.5-21.1 19.7 8z"/><path class="a" d="m485.7 203.9l7.5 13.9 16.1-3.7-4 14.8 15.6 5.8-12.8 8.6 7.2 14.5-16.2-0.1-3.4 15.1-11.7-10.3-13.1 9.3-2.3-15.7-16-0.8 8.3-12.5-11.5-10.9 15.1-4.8-2.6-15 15.3 4.9z"/><path  d="m514.3 108.1l13.2 12.1 15.4-10.2 1.2 17.4 18.5 1.1-9.9 14.3 12.5 13.3-17.5 4.5 1.7 18.1-16-7.2-10.5 14.8-8-15.9-18.1 5.1 4.9-16.7-16.6-7.2 14.9-10.8-8.6-15.9 18 1z"/><path class="a" d="m517.2 118.2l9.5 8.8 11.7-7.1 0.8 12.7 13.8 0.3-7.7 10.2 9.5 9.4-12.8 4.3 1.4 12.7-11.9-4.9-7.8 10.7-6-11.7-12.8 3.7 3.3-12-12-5.5 10.6-7.8-6-11.1 13.2-0.2z"/><path  d="m667 15l10.8 9.4 12-8.5 1.4 13.9 14.7 0.4-7.5 11.7 10.2 10.2-13.8 4.1 1.8 14.3-13-5.4-8.1 12.1-6.7-12.5-14.2 4.4 3.5-13.4-13.4-5.3 11.6-9-7.1-12.5 14.3 0.4z"/><path class="a" d="m669.7 23.5l7.6 6.7 9-5.8 0.9 9.9h10.7l-5.8 8 7.6 7.2-9.9 3.5 1.4 9.9-9.4-3.6-5.8 8.5-4.9-9-9.8 3.2 2.2-9.4-9.4-4 8-6.3-4.9-8.5 10.3-0.4z"/><path  d="m760.3 0.1l6.5 10.8 12.5-3.9-2.6 12 12.4 4.3-9.6 7.8 6 11.4-12.8-0.3-2.3 12.6-9.5-8-10.1 8-2.3-12.3-13.2-0.1 6.6-10.3-9.9-8.2 12.2-4.4-2.7-12.5 11.9 4.2z"/><path class="a" d="m760.3 8.3l4.5 7.6 9-2.5-1.9 8.4 8.9 2.8-6.9 5.2 4.4 7.9-9.1 0.4-1.5 8.5-6.8-5.4-7.1 5.5-1.7-8.7h-9l4.3-7.2-6.7-5.8 8.3-3.1-1.8-8.3 8.6 2.3z"/><path  d="m575.1 53.9l14.4 5.8 9.3-13.1 6.5 13.7 15.3-4.9-3.6 14.7 14.3 6.8-12.8 9.2 7.1 14.1-15.3-0.8-3.8 15.3-11.5-10.4-13.1 9.8-1.2-15.1-15.7-0.6 8.7-13.4-12-10.3 14.9-4.7z"/><path class="a" d="m580.8 61.5l10.3 4.1 7.2-9.3 4.5 9.9 11.2-4-3.1 10.6 10.5 4.6-8.9 7.3 5 9.7-11-0.2-2.9 11-8.4-7.5-9.1 6.9-1.1-10.6-11.3-0.7 6.1-9.5-8.3-7 10.6-4.3z"/><path  d="m1042.5 210.3l19.7-8-3.5 21.1 20.8 6.5-15.9 14.4 11.9 16.8-22.2 1.2-2.9 20.9-17.4-12.6-15.4 14.1-4.8-20.8-21.4 1.5 9-19.6-16.6-12.3 20.3-8.3-5.3-20 21.2 5.6 10.2-18.6z"/><path class="a" d="m1030.7 204l-7.4 13.9-16.1-3.7 4 14.8-15.6 5.7 12.8 8.6-7.2 14.5 16.2-0.2 3.3 15 11.7-10.2 13 9.2 2.3-15.6 16-0.8-8.3-12.4 11.5-10.9-15.1-4.7 2.6-15-15.2 4.9z"/><path  d="m1007.1 125.9l17.9-1.1-8.5 16 14.9 10.8-16.7 7.2 4.9 16.7-18-5.1-8 15.9-10.5-14.8-16.1 7.2 1.7-18.1-17.5-4.5 12.6-13.3-10-14.3 18.5-1.1 1.2-17.4 15.5 10.2 13.1-12.1z"/><path class="a" d="m999.2 118.2l-9.5 8.8-11.7-7.1-0.8 12.7-13.8 0.3 7.8 10.2-9.5 9.4 12.7 4.3-1.4 12.7 12-4.9 7.7 10.7 6-11.7 12.8 3.7-3.2-12 11.9-5.5-10.6-7.8 6.1-11.1-13.3-0.2z"/><path  d="m852.9 29.8l14.3-0.5-7.1 12.6 11.6 8.9-13.4 5.4 3.6 13.4-14.3-4.5-6.7 12.5-8.1-12-12.9 5.3 1.8-14.3-13.9-4 10.3-10.3-7.6-11.6 14.7-0.5 1.4-13.8 12.1 8.5 10.7-9.4z"/><path class="a" d="m846.8 23.8l-7.7 6.8-9-5.9-0.9 9.9h-10.8l5.8 8.1-7.6 7.2 9.9 3.6-1.4 10 9.5-3.7 5.9 8.6 4.9-9 9.9 3.2-2.2-9.5 9.4-4.1-8.1-6.3 5-8.5-10.4-0.5z"/><path  d="m939.8 70l14.9 4.7-11.9 10.3 8.6 13.4-15.7 0.6-1.2 15.1-13.1-9.8-11.4 10.4-3.9-15.3-15.3 0.8 7.1-14.1-12.8-9.2 14.3-6.8-3.6-14.7 15.4 4.9 6.4-13.7 9.3 13.1 14.5-5.8z"/><path class="a" d="m935.7 61.5l-10.4 4.1-7.1-9.3-4.6 9.9-11.1-4 3 10.6-10.5 4.6 8.9 7.3-5 9.7 11.1-0.2 2.9 11 8.4-7.5 9 6.9 1.2-10.6 11.2-0.7-6-9.5 8.2-7-10.5-4.3z"/><path fill-rule="evenodd" class="d" d="m761.4 289.4l-59.5-34.5 15.3-26.6 44.2 25.6 44.3-25.6 15.3 26.6zm-80.1 1.2l59.7 34.4-0.1 68.8h-30.7v-51.1l-44.2-25.6zm175.7 26.6l-44.3 25.5v51.2h-30.6l-0.1-68.9 59.7-34.4zm1.9-60.2l-0.9 18.2-81.1 46.9h-0.1l-0.1 93.7-15.3 9.9-15.3-9.9v-93.7l-81.2-46.9-0.9-18.2 16.3-8.3 81.2 46.8 81.2-46.8zm-397.2 559.6q-2.6-2.7-5.2-5.4c-2.7 0.6-5.3 1.3-7.9 2.1-2.4 0.7-4.8 1.6-7.2 2.5 0.2 5 0.6 10.4 1.2 14-0.8 0.2-2.1 0.3-3 0.6-1 0.3-1.7 0.8-2.5 1.2q-0.2-8.5-0.2-17.1c-0.1-15.1 0.1-23.8-0.6-29 0.8 0 1.5-0.1 2.2-0.3 0.7-0.2 1.3-0.6 1.9-0.9 6.6 7 14 14.1 18.3 18.4 4.6 4.4 12.4 12.1 17.5 17.1-0.9 0.2-3.2 0.4-4.8 0.9-1.7 0.5-3.2 1.3-4.3 1.7q-2.7-2.9-5.4-5.8zm-20.9-21.1q0.1 8.1 0.3 16.2c2.2-0.6 4.3-1 6.5-1.7 1.9-0.6 3.6-1.2 5.5-1.9q-6.1-6.4-12.3-12.6zm30.7-1c-2.3-5.6-4.7-11.1-7-16.6 0.5 0 1.1-0.1 1.6-0.3 0.5-0.1 0.9-0.3 1.4-0.5 8.5 4.6 16.3 8.6 26.4 13.7q5 2.5 9.9 5c1.6 0.8 2.3 1.1 4 1.9q-2.4-6.7-4.8-13.3c-1.8-5.1-4-10.1-6.2-14.9 0.8 0 1.7-0.1 2.8-0.3 1.2-0.3 1.9-0.7 2.6-1 2 7.3 3.4 11.6 6.5 20.4 1.2 3.4 4.4 12 5.5 15.1 0.4 1.3 1.6 4.4 2.1 5.9-0.4 0.1-0.8 0.1-1.2 0.2-0.4 0.1-0.8 0.3-1.2 0.4-10.5-6.4-31.3-17.1-40.3-20.9 3.3 8 5.1 12.3 7.8 18.5 1.4 3.4 1.7 4 4.3 9.3-0.6 0.1-2 0.2-2.8 0.4-0.9 0.2-1.6 0.6-2.2 1-1-2.7-2-5.5-3-8.3-0.5-1.6-2.3-6.1-2.9-7.7q-1.7-4-3.3-8zm63.7-34.3c5.3-1.1 10.2-1.1 15.9 0.1q-0.1 3.1-0.2 6.3-0.3 0-0.6 0.1c-1.2-1.3-4.7-5.1-13.9-3.2-10.7 2.2-14.2 10.1-10.4 21.5 1.5 4.5 3.8 8.7 7.9 11.7 3.1 2.4 7.2 4.3 12.8 3.2 2.8-0.6 6-1.9 8-4-1.1-4.3-1.2-4.7-1.5-5.5-0.9-3-1.9-5.9-3-8.9 1.4-0.1 2.9-0.1 4.6-0.4 1.7-0.4 2.5-0.7 3.8-1.2 0.2 2.3 1.9 8.7 2.4 10.3 0.6 2.3 1.1 3.8 1.7 5.5-4.4 3.7-10.5 6.5-16.3 7.8-11.8 2.4-24-2.6-28.7-16-4.2-12.1 0.3-23.6 17.5-27.3zm50.1-9.2c5.3-0.9 10.2-0.7 15.8 0.7q-0.3 3.2-0.6 6.3-0.3 0.1-0.7 0.1c-1-1.3-4.2-5.3-13.5-3.8-10.8 1.7-14.7 9.5-11.7 21 1.2 4.6 3.2 8.9 7 12.1 3 2.5 6.9 4.6 12.5 3.7 2.8-0.4 6.1-1.6 8.2-3.5-0.8-4.4-0.9-4.9-1.1-5.7-0.7-3-1.5-6-2.4-8.9 1.4-0.1 2.9 0 4.5-0.3 1.8-0.2 2.6-0.6 3.9-1 0.1 2.3 1.3 8.8 1.7 10.4 0.5 2.4 0.9 3.9 1.4 5.6-4.6 3.5-10.9 6.1-16.8 7-11.8 1.9-23.6-3.6-27.4-17.3-3.3-12.2 1.9-23.6 19.2-26.4z"/><path fill-rule="evenodd" class="d" d="m642.8 780q-1.8-3.2-3.7-6.3c-2.7 0.2-5.3 0.4-8 0.7-2.5 0.3-5 0.8-7.4 1.2-1.1 5-2.1 10.4-2.4 14.1-0.8-0.1-2-0.2-3 0-1 0.1-1.8 0.5-2.6 0.7q1.9-8.4 3.9-16.8c3.6-14.8 6-23.3 6.6-28.6 0.7 0.1 1.4 0.1 2.2 0 0.7 0 1.3-0.2 2-0.5 4.6 8.1 9.9 16.3 13 21.3 3.2 5.1 8.8 14.1 12.4 19.8-0.9 0-3.1-0.1-4.8 0.1-1.7 0.2-3.4 0.7-4.5 0.9q-1.8-3.3-3.7-6.6zm-14.8-24.4q-1.9 8-3.6 16c2.2-0.2 4.3-0.3 6.5-0.6 2-0.2 3.8-0.6 5.7-0.9q-4.2-7.3-8.6-14.5z"/><path fill-rule="evenodd" class="d" d="m678.6 764.7c1.1 1.2 2.7 3.2 3.8 4.4 5.7 6.6 7.5 8.7 11.9 13.3-1.8 0-3.3-0.1-5.5 0-2.4 0.2-3.1 0.4-5 0.8-1-1.4-2.6-3.6-3.7-5-3.7-4.7-8.2-9.8-12.3-14.2q-0.7 0-1.5 0.1 0.6 4.4 1.2 8.8c0.2 1.8 1.5 9.8 1.7 11.4-1.2 0-2.6-0.1-4.2 0-1.4 0.2-2.8 0.5-4.1 0.8-1.3-12.3-1.4-13.6-3.1-25.7-1.1-8.1-1.2-9-2.8-17 1.5 0 3.2 0 6.5-0.2 1.7-0.2 9.2-1.2 10.7-1.3 4.2-0.3 7.5-0.1 10.5 2.3 2.2 1.7 3.5 4.2 3.7 6.8 0.7 6.9-4.2 10.8-9.8 12.3q1 1.2 2 2.4zm-12.7-3.6c1.3 0 2.8 0 4.4-0.1 6.4-0.6 8.2-5.3 7.8-9.4-0.3-2.6-1-4.8-3.5-6.2-1.9-1.1-4-1.3-6.2-1.1-1.2 0.1-3.6 0.6-4.5 0.7q1 8.1 2 16.1zm63.7 16.1c-4.2 3-8.2 3.8-13.2 4.1-3.8 0.1-7.6 0-11.3 0.2-1.9 0.1-3.9 0.4-5.8 0.6q-0.3-5.7-0.6-11.4c-0.2-2.8-0.3-4.2-0.9-11.6-0.4-3.9-0.6-7.8-1.2-11.7-0.3-2.7-0.6-5.4-1-8.1 1.8 0 3.6 0.1 5.4 0 3.5-0.2 7.3-0.7 11.2-0.9 5.5-0.3 12.5-0.3 18 3.6 5.2 3.7 7.8 9.3 8 15.8 0.2 8.8-3 15.5-8.6 19.4zm-23.2-7.8c0.2 2.8 0.6 5.8 0.9 8.6 1.4 0 6.9 0 8.4 0 4.1-0.2 14.4-3.6 13.8-19.7-0.3-8.1-4.7-17.2-18.2-16.6-2.2 0.2-4.4 0.4-6.6 0.7 0 2.5 0 5.1 0.2 7.6q0.7 9.7 1.5 19.4zm61.4 3.9q-1.3-3.3-2.6-6.6c-2.7-0.2-5.3-0.3-8-0.3-2.5 0-5 0.2-7.5 0.3-2 4.9-3.8 10.1-4.7 13.7-0.9-0.1-2-0.3-3-0.3-1 0-1.9 0.3-2.8 0.4 2.3-5.4 4.5-10.8 6.8-16.3 6.1-14.3 9.9-22.4 11.4-27.6 0.7 0.2 1.4 0.3 2.2 0.3 0.7 0 1.3-0.1 2.1-0.3 3.1 8.6 6.9 17.4 9 22.7 2.4 5.5 6.3 15 8.9 21.1-0.9 0-3-0.4-4.7-0.4-1.8 0-3.5 0.3-4.6 0.3q-1.3-3.5-2.5-7zm-10.4-25.9c-2.2 5.1-4.3 10.3-6.3 15.4 2.2 0.1 4.3 0.2 6.5 0.2 2 0 3.8-0.1 5.8-0.2q-2.9-7.8-6-15.4zm52 24.1c-0.4 5.7-0.2 7.8-0.2 9.9-1.4-0.3-2.7-0.5-4.3-0.6-1.6 0-2.9 0-4.3 0.2 0.6-5 0.9-7.4 1-9q0.5-7.7 1-15.4c0.1-2.7 0.4-8.1 0.4-10.7q0.1-4 0.1-7.9c1.5 0.2 3.2 0.4 6.5 0.6 1.5 0 7.6 0 8.9 0 3.1 0.2 6.5 0.6 9.4 2.9 2.3 1.9 4 4.6 3.5 9.2-0.5 5.9-4.9 12.5-17 11.9-1.9-0.1-2.9-0.3-4.4-0.5q-0.3 4.7-0.6 9.4zm0.8-12.5c1.2 0.2 2.2 0.4 3.4 0.4 7.1 0.4 9.3-5.5 9.6-8.9 0.4-4.9-1.9-8.6-7.2-8.9-1.7-0.1-3.1 0-4.6 0q-0.6 8.7-1.2 17.4z"/><path fill-rule="evenodd" class="d" d="m855 777.5q-0.8-3.5-1.7-6.9c-2.7-0.4-5.3-0.7-8-0.9-2.5-0.2-5-0.3-7.5-0.3-2.5 4.7-5 9.7-6.4 13.2-0.8-0.1-1.9-0.5-2.9-0.5-1-0.1-1.9 0.1-2.8 0.2q4.3-7.9 8.7-15.7c7.8-13.8 12.6-21.6 14.7-26.6 0.7 0.2 1.3 0.4 2.1 0.5 0.7 0 1.4-0.1 2.1-0.2 2.1 8.8 4.8 17.9 6.4 23.4 1.7 5.7 4.5 15.5 6.3 21.8-0.9-0.1-3-0.7-4.7-0.8-1.7-0.2-3.5 0-4.6-0.1q-0.8-3.6-1.7-7.1zm-7.2-26.8c-2.8 4.9-5.5 9.9-8.2 14.9 2.2 0.2 4.3 0.6 6.5 0.7 2 0.2 3.9 0.2 5.8 0.3q-2-8-4.1-15.9zm46.4 18.9c0.8 1.5 1.7 3.7 2.4 5.1 3.6 7.5 4.9 9.9 7.7 15.4-1.6-0.5-3.1-0.8-5.3-1.1-2.4-0.3-3.2-0.3-5-0.3-0.7-1.5-1.6-4-2.3-5.6-2.2-5.3-5.1-11.2-7.7-16.4-0.5 0-1-0.1-1.6-0.1q-0.7 4.4-1.4 8.8c-0.3 1.8-1.4 9.9-1.7 11.6-1.2-0.3-2.5-0.7-4-0.9-1.4-0.1-2.9-0.1-4.3-0.1 2.4-12.2 2.7-13.6 4.5-25.6 1.3-8.2 1.5-9.1 2.2-17.2 1.5 0.3 3.2 0.6 6.5 1 1.7 0.2 9.2 0.7 10.7 0.9 4.2 0.5 7.3 1.4 9.6 4.3 1.6 2.1 2.1 4.8 1.6 7.4-1.3 6.9-7.3 9.7-13.2 10.1q0.7 1.4 1.3 2.7zm-11.3-6c1.2 0.2 2.7 0.5 4.4 0.7 6.3 0.8 9.4-3.5 10.2-7.5 0.5-2.6 0.4-5-1.5-6.8-1.5-1.5-3.6-2.1-5.7-2.3-1.3-0.1-3.7-0.2-4.7-0.2q-1.3 8.1-2.7 16.1z"/><path fill-rule="evenodd" class="d" d="m935.1 787.6q-0.5-3.5-1-7c-2.6-0.5-5.2-1.1-7.9-1.5-2.5-0.4-5-0.6-7.5-0.9-3 4.5-6.1 9.4-7.8 12.8-0.8-0.2-1.9-0.7-2.9-0.8-1-0.1-1.9 0-2.8 0 3.5-5 7-10 10.5-15 9.3-13.1 14.9-20.6 17.6-25.5 0.7 0.3 1.3 0.6 2.1 0.7 0.7 0.1 1.4 0.1 2.1 0 1.1 9 2.8 18.3 3.8 23.8 1 5.8 2.7 15.8 3.9 22.3-0.9-0.2-2.9-0.9-4.6-1.2-1.7-0.3-3.5-0.3-4.6-0.4q-0.5-3.6-0.9-7.3zm-4.3-27.3q-5 7.1-9.8 14.3c2.1 0.4 4.2 0.9 6.4 1.2 1.9 0.3 3.8 0.5 5.8 0.7q-1.1-8.1-2.4-16.2zm37.9 0.2c1.8 9.1 2.7 12.8 5.5 24.4q0.8 3.2 1.6 6.5 1.7-1.8 3.5-3.5c8.9-8.9 13.3-13.4 23.8-24.4 0.4 0.2 0.9 0.4 1.4 0.5q0.7 0.2 1.4 0.1-0.6 2.6-1.2 5.2c-1.7 7.4-3.1 14.2-4.6 21.8-0.7 3.7-2.4 12.8-2.8 16-1.4-0.5-3.3-1.1-4.2-1.3-1.1-0.3-2.3-0.4-4.2-0.6q0.3-1.1 0.5-2.3c0.3-1.2 1.8-6.7 2-7.8 0.6-2.9 3.1-15.6 3.8-18.2-6.5 6.1-17.3 17.1-23.4 24.7-0.4-0.1-0.7-0.3-1.1-0.4-0.4 0-0.8-0.1-1.2-0.1-0.9-5.1-1.7-8-3.8-17.8-0.4-2-2.7-10.5-3.1-12.3-3.5 8.4-7.2 17.7-10.1 26.8-1-0.4-2-0.7-2.7-0.9-1-0.1-1.8-0.1-2.6 0q0.4-1 0.8-1.9c3.5-7.4 14.1-32.3 16.9-39.2 0.5 0.2 0.9 0.3 1.4 0.4 0.5 0.1 1 0.1 1.5 0.1q0.4 2.1 0.9 4.2zm51.1 6.8c1.1 0.4 3.4 1.2 4.4 1.5 1.4 0.3 3 0.5 4.6 0.7-2.3 4.3-6.1 14.8-8.4 20.9-3.2 9-5.5 15.6-6.8 20.6-1.4-0.4-2.7-1-4.1-1.4-1.3-0.3-3.1-0.4-4.4-0.7 3.1-7 6.7-17 10.3-27.4 1.4-3.8 2.9-8.1 4.4-14.2zm22.8 42.2c-1.9 4.6-2.4 6.6-2.9 8.3-1.7-0.6-3.5-1.3-4.3-1.5-1-0.3-1.9-0.4-4.2-0.7 2.1-4.6 4.3-9.1 6-13.7q3.3-8.4 6.6-16.8c0.9-2.2 1.7-4.3 2.5-6.7q-1.6-0.4-3.1-0.8c-0.6-0.2-6.7-1.6-10.1-2.1 0.5-0.7 0.9-1.5 1.2-2.2 0.3-0.7 0.4-1.5 0.5-2.3 4.9 1.6 12 3.5 16.8 4.8 5.3 1.4 10.9 2.9 17.1 4.3-0.6 1-1.1 1.7-1.3 2.2-0.3 0.7-0.4 1.2-0.6 2.2-3.5-1.4-8-2.7-12.4-3.9-0.9 2.2-1.9 4.4-2.8 6.7q-4.5 11.1-9 22.2z"/><path fill-rule="evenodd" class="d" d="m1078.2 821.7q0.2-3.5 0.4-7.1c-2.5-0.9-5-1.8-7.6-2.6-2.5-0.7-4.9-1.3-7.4-1.9-4 4-8 8.4-10.4 11.6-0.8-0.4-1.8-1-2.7-1.2-1.1-0.3-2-0.3-2.9-0.5q6.7-6.7 13.6-13.4c12-11.6 19.1-18.2 22.8-22.7 0.6 0.4 1.2 0.7 1.9 1 0.7 0.2 1.4 0.2 2.2 0.3-0.7 9-0.8 18.4-1 24.1 0 5.9-0.3 16.1-0.4 22.6-0.9-0.3-2.8-1.3-4.5-1.8-1.6-0.5-3.4-0.8-4.5-1.1q0.3-3.6 0.5-7.3zm1.2-27.6c-4.3 4.2-8.6 8.5-12.8 12.7 2.1 0.7 4.1 1.5 6.2 2.1 1.9 0.6 3.8 1.1 5.7 1.5q0.5-8.1 0.9-16.3z"/><path class="b" d="m1244 729.3c2.6-0.4 13.2-16 14.7-19.3-9.4-1.8-20.2-2.4-31.7-2.2-1.6 4-1.5 8.6 0.7 12.6 3.4 6.2 11.9 9.5 16.3 8.9zm28.6 15.9c-14.2-14-55.2-1.1-51.9-32.7-5 12.9-7.7 25-12.1 38.5 8.4 2.8 21.8 6.5 32.9 7.4 17.6 1.6 26.3-1.4 31.1-13.2zm-137.7 12.9c-7.9-8.7-23.4-9.9-29-20.9-2 5.7-2.3 11.1-4 15.6 9.8 2.5 21.6 8.3 33 5.3zm-761.9 7.1c-0.2-3.5 2.1-8.4 2.7-9.9 5.5-12.8 27.9-11.5 29.5-24.6-6.3-4.3-18 0.6-25 4.5-75.9 42.5-130.7 37.6-139.5 17.9 7.5 25.6 16.8 53.4 24.6 78.7 1.3 4 1.5 8.3 3.2 11.6 3.2 6.6 12 9.3 20 9.8 19.4 1.2 38.3-2.4 55.9-5.8 17.5-3.3 34.3-8 48.3-13.8-4.8-16.9-9.7-33.9-14.8-51-1.6-5.6-4.7-12.9-4.9-17.4zm9.4-6.7c6.2 6.1 24.5 0.2 34.4-2.3-1.7-4.5-3.4-12.9-5.4-18.8-5.6 11.1-21.1 12.3-29 21.1z"/><path class="a" d="m434 884.5l1.4-0.5q-0.3 0.1-0.5 0.1c-0.6 0.2-0.9 0.4-0.9 0.4zm0.9-0.4q0.2 0 0.5-0.1l77.2-26.9c-44.4 12.9-72.7 24.8-77.7 27z"/><path class="b" d="m289.4 708.3c0 0 4.8 17.7-13 20.6-2.3 0.4-4.8-0.1-5.9-1.2-1.1-1.1-13.2-16.8-13.2-16.8 0 0 13.7-3.3 32.1-2.6z"/><path class="a" d="m245.5 747.2c-0.2-0.6-0.5-1.1-0.7-1.7 0 0 0.2 0.6 0.7 1.7zm31.4 12.6q-4.9-0.1-9.3-0.5c3.8 0.5 8.3 0.7 13.5 0.5q-2.1 0-4.2 0z"/><path class="b" d="m305.5 739.7c-2.8-9.3-5.7-18.6-8.9-26.8 3.3 31.5-44.6 20.8-51.9 32.6 0.3 0.6 0.6 1.1 0.8 1.7 1.8 3.2 7.4 10 22.1 12.1 2.9 0.3 6 0.4 9.3 0.5 1.4 0 2.8 0 4.2 0 7.9-0.4 17.5-1.8 29.1-4.9-1.6-4.9-3.1-10-4.7-15.2z"/><path fill-rule="evenodd" d="m761.2 461.1c-82.4 0-149-66.6-149-149 0-82.4 66.6-149 149-149 82.3 0 148.9 66.6 148.9 149 0 82.4-66.6 149-148.9 149zm143.3-149c0-79.3-64-143.4-143.3-143.4-79.3 0-143.4 64.1-143.4 143.4 0 79.3 64.1 143.4 143.4 143.4 79.3 0 143.3-64.1 143.3-143.4zm-886.2 772c0 12.2 0.5 16.8 0.9 21.3-3.1-0.5-5.9-0.8-9.5-0.8-3.5 0-6.3 0.3-9.3 0.8 0.7-10.9 0.9-16.1 0.9-19.5l0.3-33.3c0-5.9 0-17.6-0.3-23.1l-0.6-17.1c3.1 0.2 6.6 0.6 13.5 0.6 3 0 15.7-0.6 18.5-0.6 6.5 0 13.5 0.5 19.9 5.1 5.1 3.8 9.2 9.2 9.2 19.1 0 12.9-8 27.7-34.2 27.7-4 0-6.2-0.3-9.3-0.5zm0-27c2.4 0.2 4.7 0.5 7.2 0.5 15.2 0 18.8-13 18.8-20.2 0-10.7-5.3-18.4-16.5-18.4-3.4 0-6.4 0.3-9.5 0.5zm94.5 29.7c0 10.3 0.5 14.8 0.9 18.6-3.9-0.4-8.2-0.8-9.9-0.8-2.3 0-4.3 0.3-9.2 0.8 0.5-10.3 1.4-20.7 1.4-31l-0.2-37.9c0-5-0.1-9.8-0.3-15.1h-6.7c-1.3 0-14.3 0.3-21.2 1 0.4-1.6 0.7-3.4 0.7-5 0-1.6-0.3-3.4-0.7-5 10.7 0.6 25.8 0.8 36.2 0.8 11.3 0 23.2-0.2 36.2-0.8-0.4 2.3-0.6 4-0.6 5.1 0 1.5 0.2 2.7 0.6 4.9-8-0.8-17.6-1-27-1-0.1 4.9-0.2 10.1-0.2 15.2zm138.4-27.1c-7.3-0.3-14.6-0.5-22-0.5-7.7 0-15.4 0.2-23.1 0.5v13.6c0 17.5 0.5 23.6 1.2 32.1-2.1-0.1-5.6-0.8-9.4-0.8-3.2 0-6.4 0.5-9.6 0.8 1.1-20.6 1.2-41.1 1.2-61.7 0-10.6-0.4-20.9-1.3-31.3 2.7 0.2 7.5 0.8 9.7 0.8 2.6 0 7.6-0.6 9.4-0.8-0.7 7.4-1.2 13.3-1.2 38.6 6.7 0.3 13.6 0.6 20.4 0.6 8.3 0 16.4-0.3 24.7-0.6 0-3.5-0.1-19.9-0.3-23.3 0-4.2-0.1-5.3-0.7-15.3 2.6 0.2 7 0.8 9.9 0.8 2.5 0 7-0.6 9.5-0.8-1.7 14.1-1.9 46.9-1.9 61 0 10.7 0 22.3 1.4 32-3.3-0.3-6.7-0.8-9.9-0.8-2.8 0-6.4 0.5-9.2 0.8 0.1-2.4 1.1-18.8 1.1-23.8zm57.8-38.8c9 18.3 12.8 25.5 25.7 48.5l7.3 13 5-8.8c12.8-22.4 18.7-33.6 32.5-61.3 1 0.3 2.1 0.4 3 0.4q1.5 0 2.9-0.4l1.1 11.3c1.5 16 3.2 30.9 5.4 47.2 1.1 8.1 3.9 27.8 5.4 34.6-3.3-0.4-7.9-0.9-9.7-0.9-2.6 0-5.1 0.3-9.3 0.9l-0.4-5.1c-0.2-2.7-0.9-14.7-1.2-17.2-0.7-6.2-3.9-33.6-4.3-39.3-9.1 15.5-24.3 43.1-32.3 61.6-0.9-0.2-1.8-0.3-2.7-0.3-0.8 0-1.8 0.1-2.6 0.3-5.1-10.3-8.5-16-18.7-35.7-2-3.9-11.7-21-13.6-24.5-2.4 18.9-4.7 39.8-5.6 60.2-2.5-0.6-4.7-0.9-6.3-0.9-2.2 0-3.9 0.5-5.7 0.9l0.8-4.3c3.3-16.8 11.4-73 13-88.8 1.1 0.3 2.1 0.4 3.2 0.4 0.9 0 2-0.2 2.9-0.4zm140.5 64.2c6.2 13.5 13 15.6 21 15.6 10.7 0 17.8-7.2 17.8-17 0-10.7-8.6-14.5-11.1-15.6-3.8-1.6-10.2-4.1-14-5.7-13.2-5.8-17.1-12.7-17.1-24 0-11.9 7.1-27.1 31.6-27.1 9.9 0 15.9 2.6 22.5 5.6-2.7 6.6-3 7.7-4.2 12.8h-1.9c-2-7.7-9.2-11.8-17.8-11.8-10.7 0-16 6.7-16 14.7 0 9.9 6.9 12.6 18.9 17.2 10.4 4.1 14.5 5.6 18.4 9.9 5.7 6.1 6.7 14.1 6.7 17.9 0 13.8-9.7 29.7-34.5 29.7-11.6 0-20.4-4.5-25.3-6.9 2.3-7 2.4-8.8 3.1-15.3z"/><path fill-rule="evenodd" d="m573.2 1090.4l-5.7-14.4c-5.8-0.3-11.5-0.6-17.4-0.6-5.4 0-10.8 0.3-16.2 0.6-4.4 10.4-8.7 21.7-10.9 29.4-1.8-0.3-4.3-0.8-6.5-0.8-2.3 0-4.2 0.5-6.1 0.8l15.7-35c13.7-30.6 21.6-48.3 24.8-59.4 1.5 0.4 2.9 0.7 4.5 0.7 1.5 0 2.9-0.3 4.4-0.7 6.5 18.6 14.6 37.6 19.5 49 5.1 11.8 14.1 32.2 20.2 45.4-2.1-0.1-6.8-0.8-10.6-0.8-3.8 0-7.6 0.7-10 0.8zm-22.4-56.2l-13.8 33.4c4.7 0.1 9.3 0.5 14.1 0.5 4.2 0 8.3-0.2 12.5-0.5zm77.1-13.3c8.9 18.3 12.7 25.5 25.6 48.6l7.3 13 5.1-8.8c12.7-22.4 18.7-33.7 32.5-61.3 0.9 0.2 2 0.4 3 0.4q1.4 0 2.8-0.4l1.1 11.2c1.5 16 3.3 30.9 5.4 47.2 1.1 8.2 4 27.8 5.4 34.6-3.2-0.4-7.8-0.8-9.7-0.8-2.6 0-5 0.2-9.2 0.8l-0.4-5c-0.3-2.7-1-14.8-1.3-17.2-0.7-6.3-3.9-33.7-4.3-39.4-9.1 15.5-24.3 43.2-32.3 61.6-0.9-0.1-1.7-0.3-2.7-0.3-0.8 0-1.7 0.2-2.6 0.3-5.1-10.3-8.5-16-18.7-35.7-2-3.9-11.6-21-13.5-24.5-2.5 19-4.8 39.9-5.7 60.2-2.5-0.6-4.6-0.8-6.3-0.8-2.1 0-3.9 0.4-5.6 0.8l0.8-4.2c3.2-16.8 11.4-73.1 13-88.8 1.1 0.2 2 0.4 3.1 0.4 0.9 0 2-0.3 3-0.4zm123.5 63.2c0 12.2 0.5 16.8 0.9 21.2-3.1-0.5-5.9-0.8-9.5-0.8-3.5 0-6.3 0.3-9.3 0.8 0.7-10.8 0.9-16.1 0.9-19.5l0.3-33.2c0-6 0-17.6-0.3-23.2l-0.6-17.1c3.1 0.3 6.6 0.7 13.5 0.7 3 0 15.7-0.7 18.5-0.7 6.5 0 13.5 0.5 19.9 5.2 5.2 3.8 9.2 9.2 9.2 19.1 0 12.9-8 27.7-34.1 27.7-4.1 0-6.3-0.3-9.4-0.6zm0-27c2.4 0.3 4.7 0.6 7.2 0.6 15.2 0 18.8-13 18.8-20.2 0-10.7-5.3-18.5-16.5-18.5-3.4 0-6.4 0.3-9.5 0.6zm156.6 0.5c0 30.3-20.5 49.7-50.6 49.7-28.2 0-50.6-16.7-50.6-46.4 0-34.5 23.6-49.7 51-49.7 25.4 0 50.2 13.9 50.2 46.4zm-50.6 42.7c23.1 0 32-21.7 32-41 0-22.2-8.3-41.1-32-41.1-23.3 0-32 22.5-32 41.1 0 20.2 8.7 41 32 41zm86.9-47.7c6.9 0 22.1-0.1 29.3-1-0.4 1.5-0.7 2.9-0.7 4.9 0 1.9 0.3 3.7 0.7 4.6-3.5-0.2-7.1-0.5-10.4-0.6-6.3-0.2-12.6-0.3-18.9-0.3v36.7c3.5 0 20.9-0.4 32.4-0.9-0.5 1.2-0.7 2.6-0.7 4.5 0 2 0.2 3.4 0.7 4.8-8.1-0.5-16.2-0.8-24.9-0.8-8.2 0-16.7 0.3-25.4 0.8 0.3-5.6 0.6-11.2 0.7-16.9 0.3-7.9 0.5-24.4 0.5-30.6 0-5.7-0.2-31.9-1.2-45.5 6.6 0.4 17.2 0.8 24.6 0.8 6.2 0 15.2-0.5 24.9-0.8-0.4 1.7-0.7 2.7-0.7 4.4 0 2 0.3 3.9 0.7 5l-12.7-0.7c-5.1-0.3-6.4-0.3-18.9-0.3zm94.2 12.1c2.1 2.9 5.1 7.3 7.1 10.2 10.7 15 14.4 19.8 22.9 30.5-3.8-0.4-7.2-0.8-12.1-0.8-5.3 0-6.9 0.2-11 0.8-2-3.1-5-8.2-7-11.3-6.9-10.7-15.3-22.6-22.7-32.9h-3.2v19.2c0 4 0.5 21.5 0.5 25-2.7-0.3-5.7-0.8-9-0.8-3.2 0-6.4 0.4-9.4 0.8 1.1-26.7 1.2-29.7 1.2-55.9 0-17.7 0-19.7-0.9-37.1 3.1 0.2 6.6 0.6 13.5 0.6 3.5 0 19.3-0.6 22.4-0.6 8.8 0 15.5 1 21.3 6.6 4.1 3.9 6.2 9.5 6.2 15.2 0 15-11.2 22.8-23.6 25.1zm-26-9.9c2.6 0.1 5.8 0.4 9.4 0.4 13.5 0 18.6-9.9 18.6-18.8 0-5.6-1-10.5-5.8-14-3.6-2.8-8.1-3.4-12.6-3.4-2.6 0-7.6 0.5-9.6 0.6zm68.1-4.3c0-12.8-0.2-25.5-0.3-38.1 1.1 0.1 2.2 0.3 3.3 0.3 1 0 2-0.2 3.1-0.3 12.9 14.2 24.9 26.9 41.3 42.8l16 15.8c2.6 2.4 3.8 3.4 6.8 5.8v-30.1c0-11.5-0.7-23.2-1.6-34.3 1.6 0.4 3.4 0.8 5.8 0.8 2.4 0 4.1-0.4 5.7-0.8-1.2 16.4-1.5 26-1.5 45.8 0 7.9 0.1 27.4 0.1 34.5 0 3 0.2 10 0.2 13.4-1-0.1-1.9-0.3-2.7-0.3-1 0-1.9 0.2-2.9 0.3-17.2-18.7-50.5-51.9-64.9-65.1 0 18.4 0.1 28.3 0.4 42.7 0.1 7.9 0.2 9.2 1.2 21.7-1.5-0.1-4.2-0.8-6.1-0.8-2 0-3.8 0.4-5.4 0.8l1.1-18.8c0.2-3.7 0.4-13.9 0.4-17.7zm152.8 39.9l-5.7-14.4c-5.9-0.2-11.6-0.5-17.4-0.5-5.4 0-10.8 0.3-16.3 0.5-4.3 10.5-8.6 21.7-10.8 29.4-1.8-0.2-4.4-0.8-6.5-0.8-2.3 0-4.2 0.6-6.1 0.8l15.7-34.9c13.7-30.7 21.6-48.3 24.8-59.4 1.5 0.4 2.9 0.6 4.5 0.6 1.5 0 2.9-0.2 4.3-0.6 6.5 18.6 14.7 37.5 19.6 48.9 5.1 11.8 14.1 32.3 20.2 45.4-2.1-0.1-6.8-0.8-10.6-0.8-3.8 0-7.6 0.7-10 0.8zm-22.4-56.1l-13.8 33.4c4.7 0.1 9.3 0.5 14.1 0.5 4.2 0 8.2-0.3 12.4-0.5zm127.6 52.6c0 10.3 0.6 14.7 1 18.5-4-0.3-8.3-0.8-9.9-0.8-2.3 0-4.4 0.3-9.3 0.8 0.6-10.2 1.4-20.7 1.4-31l-0.1-37.8c0-5.1-0.2-9.8-0.3-15.1h-6.8c-1.2 0-14.2 0.3-21.1 1 0.4-1.7 0.7-3.4 0.7-5.1 0-1.6-0.3-3.3-0.7-5 10.7 0.7 25.7 0.9 36.2 0.9 11.2 0 23.2-0.2 36.2-0.9-0.4 2.3-0.7 4.1-0.7 5.2 0 1.5 0.3 2.7 0.7 4.9-8-0.8-17.7-1-27-1-0.1 4.9-0.3 10-0.3 15.2zm72.1 20.2c-8.1 0-15.3-1.6-21.1-9.5-4.1 2.7-4.6 3.3-8.6 7.9h-4.6c0.8-13.7 1.4-21.7 1.4-49 0-17.8-0.1-26.4-1.6-51.5 2.7 0.5 5.3 0.8 9 0.8 3.8 0 6-0.4 8.3-0.8-0.8 15-0.8 18-1.1 45.8 5.2-7 11.7-11.5 20.8-11.5 13.4 0 28.5 9.5 28.5 32.1 0 18.3-11.2 35.7-31 35.7zm14.1-34.3c0-9-1.2-25.2-16.2-25.2-14.1 0-16.4 15.6-16.4 26.5 0 8.5 0.8 26.8 16.1 26.8 14 0 16.5-16.7 16.5-28.1zm49 6.4c0 6.2 0.1 20.8 0.7 26.3-1.8-0.4-5.2-0.8-8-0.8-2.9 0-5.9 0.4-9 0.8 0.4-5.7 1-13.9 1-28.7 0-4 0.2-22.2 0.2-25.9 0-8.2 0-32.4-1.3-45.9 2.8 0.5 5.9 0.7 9.1 0.8 3.6 0 5.9-0.3 8.5-0.8l-0.5 8.7c-0.7 12.2-0.8 39-0.8 44 0 2.2 0.1 7.5 0.1 9.7 0 0.9 0.1 1.7 0.7 1.7 0.6 0 1-0.1 2-0.9 4.9-4.2 19.7-21.2 24.4-27.8 1.6 0.2 6.2 0.8 8.7 0.8 3 0 5.1-0.1 7.3-0.8l0.3 0.8c-9.5 7.7-18.1 15.3-28 24.1l10.6 14.7c1.5 2 7.7 10.8 9.1 12.6 6.6 8.7 8 10.3 10 12.2l-0.1 0.7c-2-0.2-9.2-0.8-12.6-0.8-2.9 0-6.1 0.4-9.4 0.8-1.5-2.3-7.6-12.6-8.9-14.7l-8.3-12.2c-3.6-5.4-3.9-5.3-4.9-5.3-0.9 0-0.9 1.1-0.9 3.1zm64.8 26.6c-5.3 0-9.7-4.3-9.7-9.6 0-5.3 4.4-9.6 9.7-9.6 5.3 0 9.6 4.3 9.6 9.6 0 5.3-4.3 9.6-9.6 9.6z"/></g></svg>