<?xml version="1.0" encoding="UTF-8"?>
<svg version="1.1" xmlns="http://www.w3.org/2000/svg" width="192" height="192">
<path d="M0 0 C9.4215228 7.39516424 15.56037426 19.03573561 18.07421875 30.6328125 C19.57793546 48.33518783 16.70118195 62.84342128 5.265625 76.84765625 C-4.8560757 87.81107843 -19.16326593 93.3623782 -33.92578125 94.1328125 C-50.29884563 93.3030964 -63.76081899 86.51083117 -74.92578125 74.6328125 C-85.315354 61.58128421 -87.54526047 46.84498109 -85.92578125 30.6328125 C-83.17175768 16.38306133 -74.64178201 4.77109382 -62.9765625 -3.46875 C-42.53362088 -16.18996591 -19.15059336 -13.59575594 0 0 Z " fill="#FDFDFC" transform="translate(129.92578125,25.3671875)"/>
<path d="M0 0 C1.74676025 -0.00430527 1.74676025 -0.00430527 3.52880859 -0.00869751 C5.97949716 -0.0107299 8.43020226 -0.00525814 10.88085938 0.00732422 C14.61365326 0.02338867 18.34536445 0.00744629 22.078125 -0.01171875 C24.46875237 -0.00973617 26.85937907 -0.0058922 29.25 0 C30.90974854 -0.00910904 30.90974854 -0.00910904 32.60302734 -0.0184021 C42.25598402 0.06841903 49.81068791 1.65355541 56.89453125 8.46875 C62.52197125 14.74404427 63.3342405 20.60988135 63.07421875 28.984375 C62.23761205 35.34258593 59.45700614 39.98398836 54.75 44.2734375 C46.86991773 49.63189344 40.55970224 49.86566802 31.16796875 49.8671875 C29.86982742 49.87480103 28.5716861 49.88241455 27.23420715 49.89025879 C24.49320819 49.90365725 21.75249701 49.90529416 19.01147461 49.89941406 C15.52466505 49.89353052 12.03925399 49.92407209 8.55271435 49.96453094 C5.19525882 49.99683455 1.83807863 49.99229146 -1.51953125 49.9921875 C-3.37781303 50.0167804 -3.37781303 50.0167804 -5.27363586 50.04187012 C-13.82232914 49.97433514 -20.90263508 48.584706 -27.31306458 42.58435059 C-33.17485609 36.25728299 -33.83860037 30.30144609 -33.6796875 21.84375 C-33.00084495 14.1676073 -29.45104851 9.97877245 -23.86328125 4.94140625 C-16.3474427 0.28087842 -8.64547839 -0.04744815 0 0 Z " fill="#1AD1A5" transform="translate(81.375,124.6015625)"/>
<path d="M0 0 C4.7522795 3.1075926 8.05458747 6.74193044 10.125 12.0625 C11.19809432 18.85876405 10.99332215 25.42149292 7.3828125 31.41796875 C2.9592555 37.20156346 -2.80792068 40.25413326 -9.8828125 41.3828125 C-15.26821509 41.69960089 -19.49275552 40.15904466 -23.875 37.0625 C-28.42068107 32.81852342 -31.46316719 28.53434638 -32.2109375 22.23046875 C-32.29663684 15.69160939 -32.08958757 10.30446625 -27.875 5.0625 C-20.03197289 -2.14929756 -10.03768508 -4.96762986 0 0 Z " fill="#FF9A05" transform="translate(106.875,46.9375)"/>
<path d="M0 0 C9.4215228 7.39516424 15.56037426 19.03573561 18.07421875 30.6328125 C19.57793546 48.33518783 16.70118195 62.84342128 5.265625 76.84765625 C-4.8560757 87.81107843 -19.16326593 93.3623782 -33.92578125 94.1328125 C-50.29884563 93.3030964 -63.76081899 86.51083117 -74.92578125 74.6328125 C-85.315354 61.58128421 -87.54526047 46.84498109 -85.92578125 30.6328125 C-83.17175768 16.38306133 -74.64178201 4.77109382 -62.9765625 -3.46875 C-42.53362088 -16.18996591 -19.15059336 -13.59575594 0 0 Z M-68.92578125 6.6328125 C-79.54951361 19.43269649 -83.24357331 31.97287042 -82.15332031 48.484375 C-81.64276529 53.30506622 -80.15341755 57.36375099 -77.92578125 61.6328125 C-77.47847656 62.50292969 -77.03117187 63.37304688 -76.5703125 64.26953125 C-69.23890928 77.41888448 -58.14967272 84.32732396 -43.92578125 88.6328125 C-32.31938983 91.36372813 -19.79764183 88.93932901 -9.3984375 83.2578125 C2.53989698 75.41208241 10.60702228 64.5172935 14.07421875 50.6328125 C14.48013346 47.51386948 14.55243057 44.46287731 14.51171875 41.3203125 C14.50414551 40.49289551 14.49657227 39.66547852 14.48876953 38.81298828 C14.19444498 27.79407851 10.66382517 19.37671332 4.07421875 10.6328125 C3.49671875 9.7665625 2.91921875 8.9003125 2.32421875 8.0078125 C-5.88224331 -0.65456412 -17.49517864 -6.91855233 -29.44921875 -7.5546875 C-44.75527534 -7.79909559 -57.71294746 -4.40359558 -68.92578125 6.6328125 Z " fill="#030303" transform="translate(129.92578125,25.3671875)"/>
</svg>
