<svg width="65" height="65" viewBox="0 0 65 65" fill="none" xmlns="http://www.w3.org/2000/svg">
<path opacity="0.2" d="M32.0151 11.0793C30.6531 11.0793 29.2903 11.587 28.2722 12.6051L7.54157 33.338C5.50537 35.3742 5.50826 38.7817 7.54451 40.8179L28.2751 61.5508C30.3114 63.5869 33.7219 63.5898 35.7581 61.5536L56.4887 40.8208C58.5249 38.7847 58.5249 35.3742 56.4887 33.3381L35.7581 12.6051C34.74 11.587 33.3771 11.0793 32.0151 11.0793Z" fill="black"/>
<path d="M32.0151 10.0793C30.6531 10.0793 29.2903 10.587 28.2722 11.6051L7.54157 32.338C5.50537 34.3742 5.50826 37.7817 7.54451 39.8179L28.2751 60.5508C30.3114 62.5869 33.7219 62.5898 35.7581 60.5536L56.4887 39.8208C58.5249 37.7847 58.5249 34.3742 56.4887 32.3381L35.7581 11.6051C34.74 10.587 33.3771 10.0793 32.0151 10.0793Z" fill="#A42A2A"/>
<path opacity="0.2" d="M32.0151 3.07935C30.6531 3.07935 29.2903 3.58699 28.2722 4.60507L7.54158 25.338C5.50537 27.3742 5.50826 30.7817 7.5445 32.8179L28.2751 53.5508C30.3113 55.5869 33.7219 55.5898 35.7581 53.5536L56.4887 32.8207C58.5249 30.7846 58.5249 27.3741 56.4887 25.338L35.7581 4.60507C34.74 3.58699 33.3771 3.07935 32.0151 3.07935Z" fill="black"/>
<path d="M32.0151 2.07935C30.6531 2.07935 29.2903 2.58699 28.2722 3.60507L7.54158 24.338C5.50537 26.3742 5.50826 29.7817 7.5445 31.8179L28.2751 52.5508C30.3113 54.5869 33.7219 54.5898 35.7581 52.5536L56.4887 31.8207C58.5249 29.7846 58.5249 26.3741 56.4887 24.338L35.7581 3.60507C34.74 2.58699 33.3771 2.07935 32.0151 2.07935Z" fill="#CF3D3D"/>
<path opacity="0.2" d="M32.0159 17.0793L22.0159 27.0793L30.7698 35.8333L32.0159 37.0793L42.1252 47.1887L46.3674 42.9465L36.2581 32.8372L42.0159 27.0793L32.0159 17.0793Z" fill="black"/>
<path d="M32.0159 16.0793L22.0159 26.0793L30.7698 34.8333L32.0159 36.0793L42.1252 46.1887L46.3674 41.9465L36.2581 31.8372L42.0159 26.0793L32.0159 16.0793Z" fill="white"/>
<path opacity="0.2" d="M32.0159 2.07935C30.654 2.07935 29.2899 2.58666 28.2718 3.60474L7.54132 24.3372C6.39792 25.4805 5.92128 27.0548 6.0628 28.5774C6.17205 27.3885 6.64852 26.2299 7.54132 25.3372L28.2718 4.60474C29.2899 3.58666 30.654 3.07935 32.0159 3.07935C33.3779 3.07935 34.74 3.58666 35.7581 4.60474L56.4886 25.3372C57.3814 26.2299 57.8592 27.3898 57.9691 28.5793C58.1098 27.056 57.632 25.4805 56.4886 24.3372L35.7581 3.60474C34.74 2.58666 33.3779 2.07935 32.0159 2.07935Z" fill="white"/>
</svg>
