<svg width="211" height="174" viewBox="0 0 211 174" fill="none" xmlns="http://www.w3.org/2000/svg">
<path d="M110.217 24.5627C110.217 38.096 121.229 49.124 134.777 49.124C148.315 49.124 159.341 38.096 159.341 24.5627C159.341 11.0147 148.315 3.06846e-05 134.777 3.06846e-05C121.229 3.06846e-05 110.217 11.0147 110.217 24.5627ZM117.087 24.5627C117.087 14.8107 125.029 6.88004 134.777 6.88004C144.521 6.88004 152.46 14.8107 152.46 24.5627C152.46 34.3147 144.521 42.2467 134.777 42.2467C125.029 42.2467 117.087 34.3147 117.087 24.5627ZM51.1187 24.5627C51.1187 38.096 62.132 49.124 75.6787 49.124C89.2173 49.124 100.243 38.096 100.243 24.5627C100.243 11.0147 89.2173 3.06846e-05 75.6787 3.06846e-05C62.132 3.06846e-05 51.1187 11.0147 51.1187 24.5627ZM57.988 24.5627C57.988 14.8107 65.9307 6.88004 75.6787 6.88004C85.4227 6.88004 93.3613 14.8107 93.3613 24.5627C93.3613 34.3147 85.4227 42.2467 75.6787 42.2467C65.9307 42.2467 57.988 34.3147 57.988 24.5627ZM124.887 24.5587C124.887 30.0134 129.323 34.448 134.773 34.448C140.225 34.448 144.661 30.0134 144.661 24.5587C144.661 23.6214 144.488 22.7307 144.241 21.8707C143.507 22.2147 142.691 22.4227 141.824 22.4227C138.647 22.4227 136.053 19.8334 136.053 16.656C136.053 16.0174 136.183 15.412 136.376 14.8374C135.849 14.7507 135.323 14.676 134.773 14.676C129.323 14.676 124.887 19.108 124.887 24.5587ZM65.788 24.5587C65.788 30.0134 70.224 34.448 75.6747 34.448C81.128 34.448 85.5627 30.0134 85.5627 24.5587C85.5627 23.6214 85.3907 22.7307 85.144 21.8707C84.408 22.2147 83.592 22.4227 82.7267 22.4227C79.548 22.4227 76.9547 19.8334 76.9547 16.656C76.9547 16.0174 77.0853 15.412 77.2787 14.8374C76.7507 14.7507 76.224 14.676 75.6747 14.676C70.224 14.676 65.788 19.108 65.788 24.5587ZM160.553 57.712L160.483 57.764C162.264 58.6907 164.029 59.6374 165.705 60.6587C172.961 65.0947 178.805 70.2013 183.108 75.78L196.999 65.3307L194.935 62.5787C190.12 56.1707 182.748 52.7934 175.287 52.7947C170.149 52.7947 164.969 54.396 160.553 57.712ZM15.528 62.5787L13.4627 65.3307L27.3533 75.78C31.656 70.2013 37.5 65.0947 44.7573 60.6587C46.432 59.6374 48.1973 58.6907 49.98 57.764L49.9093 57.712C45.4933 54.396 40.3133 52.7934 35.1747 52.7947C27.7147 52.7947 20.3427 56.172 15.528 62.5787ZM49.0373 68.876C35.1 77.388 27.424 88.3374 27.424 99.704C27.424 106.593 30.2813 113.316 35.592 119.448C38.984 118.22 42.5827 117.547 46.3 117.547C54.668 117.547 62.544 120.803 68.4933 126.735C72.588 130.84 75.4027 135.956 76.748 141.477C85.7093 143.561 95.3067 144.691 105.231 144.691C115.155 144.691 124.752 143.561 133.715 141.477C135.06 135.956 137.875 130.84 141.971 126.735C147.919 120.803 155.795 117.547 164.163 117.547C167.879 117.547 171.48 118.22 174.869 119.448C180.181 113.316 183.039 106.593 183.039 99.704C183.039 88.3374 175.363 77.388 161.425 68.876C146.507 59.76 126.552 54.7387 105.231 54.7387C83.912 54.7387 63.9573 59.76 49.0373 68.876ZM87.7747 73.9547H122.688C122.685 83.5787 114.852 91.408 105.231 91.408C95.6107 91.408 87.7787 83.5787 87.7747 73.9547ZM184.097 77.1333C189.1 84.1027 191.757 91.7507 191.757 99.704C191.757 101.323 191.627 102.92 191.411 104.507C190.496 111.32 187.605 117.839 182.945 123.82C184.131 124.713 185.283 125.663 186.348 126.732C190.335 130.715 193.083 135.597 194.479 140.912L196.007 138.909C199.992 133.695 201.705 127.241 200.831 120.737C200.005 114.563 196.929 109.068 192.153 105.121L210.464 105.105V101.671C210.464 88.136 199.44 77.1333 185.892 77.1333H184.097ZM24.5707 77.1333C11.0227 77.1333 0 88.136 0 101.671V105.105L18.3093 105.121C13.5347 109.068 10.456 114.563 9.63067 120.737C8.75867 127.241 10.4693 133.695 14.456 138.909L15.984 140.912C17.38 135.597 20.1267 130.715 24.1133 126.732C25.1787 125.663 26.332 124.713 27.5173 123.82C22.8587 117.839 19.9667 111.32 19.052 104.507C18.836 102.92 18.7053 101.323 18.7053 99.704C18.7053 91.7507 21.3627 84.1027 26.364 77.1333H24.5707ZM146.799 131.555C141.803 136.559 139.199 143.483 139.683 150.576L140.092 156.673L145.092 153.153C148.667 150.635 152.507 149.243 155.924 149.243C157.603 149.243 159.991 149.616 161.736 151.359C165.101 154.727 164.349 161.725 159.933 167.997L156.413 172.995L162.515 173.408C163.077 173.44 163.623 173.468 164.176 173.468C170.744 173.468 176.904 170.92 181.527 166.291C186.167 161.649 188.724 155.484 188.724 148.928C188.724 142.357 186.167 136.196 181.527 131.555C176.897 126.924 170.727 124.367 164.163 124.367C157.603 124.367 151.441 126.924 146.799 131.555ZM28.936 131.555C24.2973 136.196 21.74 142.357 21.74 148.928C21.74 155.484 24.2973 161.649 28.936 166.291C33.5587 170.92 39.7187 173.468 46.2853 173.468C46.84 173.468 47.3853 173.44 47.948 173.408L54.0493 172.995L50.5293 167.997C46.1133 161.725 45.36 154.727 48.728 151.359C50.472 149.616 52.86 149.243 54.54 149.243C57.956 149.243 61.796 150.635 65.372 153.153L70.3707 156.673L70.78 150.576C71.264 143.483 68.6587 136.559 63.664 131.555C59.0213 126.924 52.86 124.367 46.3 124.367C39.736 124.367 33.564 126.924 28.936 131.555Z" fill="url(#paint0_linear_114_42)"/>
<defs>
<linearGradient id="paint0_linear_114_42" x1="-0.000268" y1="86.7345" x2="210.463" y2="86.7345" gradientUnits="userSpaceOnUse">
<stop stop-color="#FE743E"/>
<stop offset="1" stop-color="#FE3254"/>
</linearGradient>
</defs>
</svg>
