<svg width="357" height="356" viewBox="0 0 357 356" fill="none" xmlns="http://www.w3.org/2000/svg">
<g clip-path="url(#clip0_1272_3221)">
<path d="M178.355 0.197754L10.9521 59.1108L37.4041 278.438L178.533 356.006L320.389 277.387L346.833 58.0668L178.355 0.197754Z" fill="#B3B3B3"/>
<path d="M330.137 70.7426L177.964 18.8516V337.474L305.492 266.898L330.137 70.7426Z" fill="#AF2B2D"/>
<path d="M29.7371 71.6797L52.4041 267.833L177.963 337.474V18.8447L29.7371 71.6797Z" fill="#DF2E31"/>
<path d="M213.237 177.329L178.242 104.249L147.434 177.329H213.237ZM226.579 208.058H133.815L113.063 259.965L74.46 260.679L177.965 30.4219L285.078 260.678H249.299L226.579 208.057V208.058Z" fill="#F2F2F2"/>
<path d="M177.964 30.4219L178.24 104.249L213.2 177.385H178.043L177.964 208.01L226.577 208.058L249.298 260.688L286.234 261.373L177.964 30.4219Z" fill="#B3B3B3"/>
</g>
<defs>
<clipPath id="clip0_1272_3221">
<rect width="355.809" height="355.809" fill="white" transform="translate(0.988037 0.197754)"/>
</clipPath>
</defs>
</svg>
