<svg width="301" height="181" viewBox="0 0 301 181" fill="none" xmlns="http://www.w3.org/2000/svg">
<path d="M84.9273 66.2658C84.9273 69.9658 85.3273 72.9658 86.0273 75.1658C86.8273 77.3658 87.8273 79.7658 89.2273 82.3658C89.7273 83.1658 89.9273 83.9658 89.9273 84.6658C89.9273 85.6658 89.3273 86.6658 88.0273 87.6658L81.7273 91.8658C80.8273 92.4658 79.9273 92.7658 79.1273 92.7658C78.1273 92.7658 77.1273 92.2658 76.1273 91.3658C74.7273 89.8658 73.5273 88.2658 72.5273 86.6658C71.5273 84.9658 70.5273 83.0658 69.4273 80.7658C61.6273 89.9658 51.8273 94.5658 40.0273 94.5658C31.6273 94.5658 24.9273 92.1658 20.0273 87.3658C15.1273 82.5658 12.6273 76.1658 12.6273 68.1658C12.6273 59.6658 15.6273 52.7658 21.7273 47.5658C27.8273 42.3658 35.9273 39.7658 46.2273 39.7658C49.6273 39.7658 53.1273 40.0658 56.8273 40.5658C60.5273 41.0658 64.3273 41.8658 68.3273 42.7658V35.4658C68.3273 27.8658 66.7273 22.5658 63.6273 19.4658C60.4273 16.3658 55.0273 14.8658 47.3273 14.8658C43.8273 14.8658 40.2273 15.2658 36.5273 16.1658C32.8273 17.0658 29.2273 18.1658 25.7273 19.5658C24.1273 20.2658 22.9273 20.6658 22.2273 20.8658C21.5273 21.0658 21.0273 21.1658 20.6273 21.1658C19.2273 21.1658 18.5273 20.1658 18.5273 18.0658V13.1658C18.5273 11.5658 18.7273 10.3658 19.2273 9.66582C19.7273 8.96582 20.6273 8.26582 22.0273 7.56582C25.5273 5.76582 29.7273 4.26582 34.6273 3.06582C39.5273 1.76582 44.7273 1.16582 50.2273 1.16582C62.1273 1.16582 70.8273 3.86582 76.4273 9.26582C81.9273 14.6658 84.7273 22.8658 84.7273 33.8658V66.2658H84.9273ZM44.3273 81.4658C47.6273 81.4658 51.0273 80.8658 54.6273 79.6658C58.2273 78.4658 61.4273 76.2658 64.1273 73.2658C65.7273 71.3658 66.9273 69.2658 67.5273 66.8658C68.1273 64.4658 68.5273 61.5658 68.5273 58.1658V53.9658C65.6273 53.2658 62.5273 52.6658 59.3273 52.2658C56.1273 51.8658 53.0273 51.6658 49.9273 51.6658C43.2273 51.6658 38.3273 52.9658 35.0273 55.6658C31.7273 58.3658 30.1273 62.1658 30.1273 67.1658C30.1273 71.8658 31.3273 75.3658 33.8273 77.7658C36.2273 80.2658 39.7273 81.4658 44.3273 81.4658ZM124.627 92.2658C122.827 92.2658 121.627 91.9658 120.827 91.2658C120.027 90.6658 119.327 89.2658 118.727 87.3658L95.2273 10.0658C94.6273 8.06582 94.3273 6.76582 94.3273 6.06582C94.3273 4.46582 95.1273 3.56582 96.7273 3.56582H106.527C108.427 3.56582 109.727 3.86582 110.427 4.56582C111.227 5.16582 111.827 6.56582 112.427 8.46582L129.227 74.6658L144.827 8.46582C145.327 6.46582 145.927 5.16582 146.727 4.56582C147.527 3.96582 148.927 3.56582 150.727 3.56582H158.727C160.627 3.56582 161.927 3.86582 162.727 4.56582C163.527 5.16582 164.227 6.56582 164.627 8.46582L180.427 75.4658L197.727 8.46582C198.327 6.46582 199.027 5.16582 199.727 4.56582C200.527 3.96582 201.827 3.56582 203.627 3.56582H212.927C214.527 3.56582 215.427 4.36582 215.427 6.06582C215.427 6.56582 215.327 7.06582 215.227 7.66582C215.127 8.26582 214.927 9.06582 214.527 10.1658L190.427 87.4658C189.827 89.4658 189.127 90.7658 188.327 91.3658C187.527 91.9658 186.227 92.3658 184.527 92.3658H175.927C174.027 92.3658 172.727 92.0658 171.927 91.3658C171.127 90.6658 170.427 89.3658 170.027 87.3658L154.527 22.8658L139.127 87.2658C138.627 89.2658 138.027 90.5658 137.227 91.2658C136.427 91.9658 135.027 92.2658 133.227 92.2658H124.627ZM253.127 94.9658C247.927 94.9658 242.727 94.3658 237.727 93.1658C232.727 91.9658 228.827 90.6658 226.227 89.1658C224.627 88.2658 223.527 87.2658 223.127 86.3658C222.727 85.4658 222.527 84.4658 222.527 83.5658V78.4658C222.527 76.3658 223.327 75.3658 224.827 75.3658C225.427 75.3658 226.027 75.4658 226.627 75.6658C227.227 75.8658 228.127 76.2658 229.127 76.6658C232.527 78.1658 236.227 79.3658 240.127 80.1658C244.127 80.9658 248.027 81.3658 252.027 81.3658C258.327 81.3658 263.227 80.2658 266.627 78.0658C270.027 75.8658 271.827 72.6658 271.827 68.5658C271.827 65.7658 270.927 63.4658 269.127 61.5658C267.327 59.6658 263.927 57.9658 259.027 56.3658L244.527 51.8658C237.227 49.5658 231.827 46.1658 228.527 41.6658C225.227 37.2658 223.527 32.3658 223.527 27.1658C223.527 22.9658 224.427 19.2658 226.227 16.0658C228.027 12.8658 230.427 10.0658 233.427 7.86582C236.427 5.56582 239.827 3.86582 243.827 2.66582C247.827 1.46582 252.027 0.96582 256.427 0.96582C258.627 0.96582 260.927 1.06582 263.127 1.36582C265.427 1.66582 267.527 2.06582 269.627 2.46582C271.627 2.96582 273.527 3.46582 275.327 4.06582C277.127 4.66582 278.527 5.26582 279.527 5.86582C280.927 6.66582 281.927 7.46582 282.527 8.36582C283.127 9.16582 283.427 10.2658 283.427 11.6658V16.3658C283.427 18.4658 282.627 19.5658 281.127 19.5658C280.327 19.5658 279.027 19.1658 277.327 18.3658C271.627 15.7658 265.227 14.4658 258.127 14.4658C252.427 14.4658 247.927 15.3658 244.827 17.2658C241.727 19.1658 240.127 22.0658 240.127 26.1658C240.127 28.9658 241.127 31.3658 243.127 33.2658C245.127 35.1658 248.827 37.0658 254.127 38.7658L268.327 43.2658C275.527 45.5658 280.727 48.7658 283.827 52.8658C286.927 56.9658 288.427 61.6658 288.427 66.8658C288.427 71.1658 287.527 75.0658 285.827 78.4658C284.027 81.8658 281.627 84.8658 278.527 87.2658C275.427 89.7658 271.727 91.5658 267.427 92.8658C262.927 94.2658 258.227 94.9658 253.127 94.9658Z" fill="#252F3E"/>
<path d="M272.027 143.566C239.127 167.866 191.327 180.766 150.227 180.766C92.6273 180.766 40.7273 159.466 1.52733 124.066C-1.57267 121.266 1.22733 117.466 4.92733 119.666C47.3273 144.266 99.6273 159.166 153.727 159.166C190.227 159.166 230.327 151.566 267.227 135.966C272.727 133.466 277.427 139.566 272.027 143.566Z" fill="#FF9900"/>
<path d="M285.727 127.965C281.527 122.565 257.927 125.365 247.227 126.665C244.027 127.065 243.527 124.265 246.427 122.165C265.227 108.965 296.127 112.765 299.727 117.165C303.327 121.665 298.727 152.565 281.127 167.365C278.427 169.665 275.827 168.465 277.027 165.465C281.027 155.565 289.927 133.265 285.727 127.965Z" fill="#FF9900"/>
</svg>
