<svg width="256" height="231" viewBox="0 0 256 231" fill="none" xmlns="http://www.w3.org/2000/svg">
<g clip-path="url(#clip0_1272_3232)">
<path d="M8.30813 0.000683498C5.88503 -0.0305685 3.57213 1.01126 1.98986 2.84669C0.407586 4.68212 -0.282086 7.12329 0.105844 9.51534L34.9246 220.888C35.82 226.228 40.4199 230.153 45.8336 230.198H212.873C216.937 230.25 220.426 227.319 221.075 223.308L255.894 9.55635C256.282 7.1643 255.592 4.72313 254.01 2.8877C252.428 1.05227 250.115 0.0104429 247.692 0.0416949L8.30813 0.000683498ZM154.924 152.768H101.609L87.1731 77.3482H167.843L154.924 152.768Z" fill="#2684FF"/>
<path d="M244.611 77.2422H167.694L154.785 152.602H101.513L38.6108 227.265C40.6046 228.989 43.1465 229.948 45.7821 229.97H212.729C216.79 230.022 220.276 227.094 220.925 223.085L244.611 77.2422Z" fill="url(#paint0_linear_1272_3232)"/>
</g>
<defs>
<linearGradient id="paint0_linear_1272_3232" x1="22417.1" y1="2187.65" x2="13531.9" y2="14803.5" gradientUnits="userSpaceOnUse">
<stop offset="0.18" stop-color="#0052CC"/>
<stop offset="1" stop-color="#2684FF"/>
</linearGradient>
<clipPath id="clip0_1272_3232">
<rect width="256" height="231" fill="white"/>
</clipPath>
</defs>
</svg>
