<svg width="2169" height="2500" viewBox="0 0 2169 2500" fill="none" xmlns="http://www.w3.org/2000/svg">
<g clip-path="url(#clip0_1272_3237)">
<path d="M1095.94 0.283203C490.211 0.283203 0 491.85 0 1099.25C0 1634.04 382.286 2078.39 886.791 2177.25V2491.84C1542.68 2392.68 2123.44 1870.59 2166.78 1185.24C2192.86 772.718 1987.75 351.585 1641.81 147.089C1622.01 135.388 1601.88 123.764 1581.16 113.537C1560.04 103.116 1538.36 92.9656 1516.33 84.171C1509.33 81.2394 1502.47 78.579 1495.41 75.783C1476.17 68.666 1456.75 60.6424 1436.85 54.8132C1329.61 19.3721 1214.97 0.283203 1095.94 0.283203Z" fill="#00A818"/>
<path d="M1322.97 406.352C1285.41 402.488 1245.85 415.596 1218.19 448.376C1198.07 475.286 1185.49 501.339 1172.08 528.24C1131.84 622.388 1145.26 723.263 1205.62 797.247C1299.5 777.065 1379.14 716.96 1419.38 622.811C1432.79 595.911 1440.33 561.444 1440.33 534.543C1444.53 463.093 1385.58 412.791 1322.97 406.352ZM834.667 412.656C773.435 418.502 715.211 467.304 715.211 534.543C715.211 561.444 722.751 595.911 736.172 622.811C776.409 716.96 862.33 777.065 956.224 797.238C1009.87 723.272 1023.7 622.388 983.464 528.24C970.051 501.339 957.478 474.862 937.355 454.689C909.692 421.899 871.413 409.14 834.667 412.656ZM505.648 736.303C399.892 741.742 352.657 875 440.68 944.357C467.504 964.522 493.49 979.239 520.323 992.694C614.2 1033.04 722.76 1019.17 803.242 965.369C783.119 877.949 714.804 797.67 620.91 757.315C587.375 743.869 560.136 736.303 526.609 736.303C519.06 735.455 512.697 735.938 505.648 736.303ZM1538.85 1144.01C1477.42 1142.82 1415.2 1160.82 1364.9 1194.44C1385.02 1281.87 1453.34 1362.14 1547.23 1402.49C1580.76 1415.94 1608 1423.5 1641.53 1423.5C1762.25 1430.23 1821.35 1280.6 1727.46 1213.36C1700.63 1193.17 1674.65 1180.57 1647.82 1167.12C1612.62 1151.99 1575.7 1144.71 1538.85 1144V1144.01ZM623.003 1150.3C586.147 1151.01 549.24 1158.29 514.028 1173.42C480.493 1186.87 454.507 1201.59 434.385 1221.76C347.201 1295.73 405.891 1436.54 526.601 1429.81C560.136 1429.81 594.086 1422.25 620.91 1408.79C714.804 1368.45 781.442 1288.17 794.854 1200.74C744.055 1166.79 684.09 1149.19 623.003 1150.3ZM962.519 1356.26C868.625 1376.43 788.991 1436.53 748.754 1530.68C735.342 1557.58 727.793 1589.95 727.793 1616.85C721.091 1731.17 876.589 1792.54 943.659 1705.11C963.773 1678.21 976.347 1652.15 989.759 1625.25C1030 1537.83 1016.17 1436.96 962.519 1356.26ZM1211.91 1362.56C1158.25 1436.53 1144.43 1537.41 1184.66 1631.57C1198.08 1658.46 1210.65 1684.94 1230.77 1705.11C1304.54 1785.81 1459.62 1726.12 1452.92 1625.25C1452.92 1598.35 1445.38 1563.89 1431.96 1536.99C1391.72 1442.84 1305.81 1382.73 1211.91 1362.56Z" fill="white"/>
</g>
<defs>
<clipPath id="clip0_1272_3237">
<rect width="2169" height="2500" fill="white"/>
</clipPath>
</defs>
</svg>
