<svg width="371" height="513" viewBox="0 0 371 513" fill="none" xmlns="http://www.w3.org/2000/svg">
<g clip-path="url(#clip0_1284_3227)">
<path fill-rule="evenodd" clip-rule="evenodd" d="M365.245 247.01C365.245 348.51 284.87 430.635 185.62 430.635C86.495 430.635 5.995 348.385 5.995 247.01C5.995 145.51 86.37 63.3848 185.62 63.3848C284.745 63.2598 365.245 145.51 365.245 247.01Z" fill="#D33833"/>
<path d="M13.37 292.51C13.37 292.51 0.369999 101.01 176.87 95.5098L164.495 75.0098L68.745 107.135L41.37 138.51L17.37 184.385L3.745 237.76L7.86999 273.385" fill="#EF3D3A"/>
<path d="M62.62 121.635C31.12 153.885 11.62 198.385 11.62 247.635C11.62 296.885 31.12 341.385 62.62 373.635C94.12 405.885 137.62 425.76 185.62 425.76C233.62 425.76 277.12 405.885 308.62 373.635C340.12 341.385 359.62 296.885 359.62 247.635C359.62 198.385 340.12 153.885 308.62 121.635C277.12 89.3848 233.62 69.5098 185.62 69.5098C137.62 69.5098 94.12 89.5098 62.62 121.635ZM54.62 381.385C21.12 347.135 0.494995 299.885 0.494995 247.635C0.494995 195.385 21.245 148.135 54.62 113.885C88.12 79.6348 134.495 58.3848 185.62 58.3848C236.745 58.3848 283.12 79.6348 316.62 113.885C350.12 148.135 370.87 195.51 370.745 247.635C370.745 299.885 349.995 347.135 316.62 381.385C283.12 415.635 236.745 436.885 185.62 436.885C134.495 436.885 88.12 415.635 54.62 381.385Z" fill="#231F20"/>
<path fill-rule="evenodd" clip-rule="evenodd" d="M261.245 248.01L233.87 252.135L196.87 256.26L172.87 256.885L149.62 256.26L131.87 250.76L116.12 233.635L103.745 198.76L100.995 191.26L84.62 185.76L74.995 170.01L68.12 147.385L75.62 127.51L93.37 121.385L107.745 128.26L114.62 143.26L122.87 141.885L125.62 138.51L122.87 122.76L122.245 102.885L126.37 75.5098L126.245 59.8848L138.745 39.8848L160.62 24.1348L198.87 7.75976L241.245 13.8848L278.245 40.5098L295.37 67.8848L306.37 87.7598L309.12 137.01L300.87 179.385L285.87 217.26L271.495 237.135" fill="#F0D6B7"/>
<path fill-rule="evenodd" clip-rule="evenodd" d="M237.995 366.385L140.12 370.51V386.885L148.37 444.385L144.245 449.135L75.87 425.885L71.12 417.635L64.245 340.385L48.495 293.885L45.12 282.885L99.87 245.26L116.995 238.385L131.995 256.885L144.995 268.51L159.995 273.26L166.87 275.26L175.12 310.885L181.245 318.385L196.995 312.885L185.995 334.135L245.495 362.26L237.995 366.385Z" fill="#335061"/>
<path fill-rule="evenodd" clip-rule="evenodd" d="M75.87 127.635L93.62 121.51L107.995 128.385L114.87 143.385L123.12 142.01L125.12 133.76L120.995 118.01L125.12 80.3848L121.745 59.8848L134.12 45.5098L160.745 24.2598L153.245 14.0098L115.62 32.5098L99.87 44.8848L90.995 64.0098L77.37 82.5098L73.245 104.385L75.87 127.635Z" fill="#6D6B6D"/>
<path fill-rule="evenodd" clip-rule="evenodd" d="M103.87 63.2598C103.87 63.2598 114.12 38.0098 155.12 25.6348C196.12 13.2598 157.12 16.7598 157.12 16.7598L112.62 33.8848L95.62 51.0098L88.12 64.6348L103.87 63.2598Z" fill="#DCD9D8"/>
<path fill-rule="evenodd" clip-rule="evenodd" d="M83.37 122.76C83.37 122.76 68.995 74.8848 123.745 68.0098L121.745 59.7598L84.12 68.6348L73.12 104.26L75.87 127.51L83.37 122.76Z" fill="#DCD9D8"/>
<path fill-rule="evenodd" clip-rule="evenodd" d="M105.245 186.385L114.245 177.76C114.245 177.76 118.245 178.26 118.995 183.01C119.62 187.76 121.745 230.885 151.12 254.135C153.745 256.26 129.245 250.76 129.245 250.76L107.37 216.51" fill="#F7E4CD"/>
<path fill-rule="evenodd" clip-rule="evenodd" d="M231.12 173.385C231.12 173.385 232.745 152.635 238.245 154.26C243.87 155.885 243.87 161.385 243.87 161.385C243.87 161.385 230.37 170.26 231.12 173.385Z" fill="#F7E4CD"/>
<path d="M287.87 97.5102C287.87 97.5102 276.62 99.8852 275.495 109.885C274.495 119.76 287.87 111.885 289.87 111.26" fill="#F7E4CD"/>
<path d="M205.12 98.1351C205.12 98.1351 190.12 100.135 190.12 109.76C190.12 119.385 207.245 118.635 211.995 114.51" fill="#F7E4CD"/>
<path fill-rule="evenodd" clip-rule="evenodd" d="M112.12 142.635C112.12 142.635 86.12 126.885 83.37 142.01C80.62 157.01 74.495 168.01 87.495 183.76L78.62 181.01L70.37 159.76L67.62 139.26L83.37 122.885L101.12 124.26L111.37 132.51L112.12 142.635Z" fill="#F7E4CD"/>
<path fill-rule="evenodd" clip-rule="evenodd" d="M124.37 99.5098C124.37 99.5098 135.995 39.2598 194.87 27.6348C243.245 18.0098 268.745 29.6348 278.37 40.6348C278.37 40.6348 235.245 -10.6152 194.245 5.00976C153.245 20.7598 123.12 49.5098 123.745 67.8848C124.87 99.5098 124.37 99.5098 124.37 99.5098Z" fill="#F7E4CD"/>
<path fill-rule="evenodd" clip-rule="evenodd" d="M283.12 47.5098C283.12 47.5098 263.245 46.8848 262.62 64.6348C262.62 64.6348 262.62 67.3848 263.995 70.1348C263.995 70.1348 279.745 52.3848 289.245 61.8848" fill="#F7E4CD"/>
<path fill-rule="evenodd" clip-rule="evenodd" d="M196.245 72.0099C196.245 72.0099 192.87 44.7599 169.495 60.6349C154.495 70.8849 155.87 85.2599 158.495 88.0099C161.245 90.7599 160.495 96.2599 162.62 92.5099C164.745 88.7599 163.995 76.3849 171.495 73.0099C179.12 69.5099 191.495 65.6349 196.245 72.0099Z" fill="#F7E4CD"/>
<path fill-rule="evenodd" clip-rule="evenodd" d="M131.87 256.885L67.62 285.635C67.62 285.635 94.245 391.635 80.62 424.51L70.995 421.135L70.37 380.76L52.62 304.135L45.12 282.885L112.12 237.76L131.87 256.885Z" fill="#49728B"/>
<path fill-rule="evenodd" clip-rule="evenodd" d="M138.495 315.51L147.62 326.635V367.635H136.62C136.62 367.635 135.245 338.885 135.245 335.51C135.245 332.135 136.62 319.76 136.62 319.76" fill="#49728B"/>
<path fill-rule="evenodd" clip-rule="evenodd" d="M138.745 373.885L107.995 375.26L116.87 381.385L138.745 384.76" fill="#49728B"/>
<path fill-rule="evenodd" clip-rule="evenodd" d="M244.12 367.01L269.37 366.385L275.495 429.26L249.62 432.76L244.12 367.01Z" fill="#335061"/>
<path fill-rule="evenodd" clip-rule="evenodd" d="M250.995 367.01L289.245 365.01C289.245 365.01 304.995 325.385 304.995 323.26C304.995 321.135 318.62 265.76 318.62 265.76L287.87 233.635L281.745 228.135L265.37 244.51V308.26L250.995 367.01Z" fill="#335061"/>
<path fill-rule="evenodd" clip-rule="evenodd" d="M267.995 362.26L243.995 367.01L247.37 386.135C256.245 390.26 271.37 379.26 271.37 379.26" fill="#49728B"/>
<path fill-rule="evenodd" clip-rule="evenodd" d="M268.745 242.51L316.62 278.135L317.995 261.76L281.745 228.26L268.745 242.51Z" fill="#49728B"/>
<path fill-rule="evenodd" clip-rule="evenodd" d="M162.495 501.76L148.37 444.26L141.37 401.885L140.245 370.385L204.37 367.01H244.245L240.62 438.885L246.745 494.26L246.12 504.51L194.12 508.635L162.495 501.76Z" fill="white"/>
<path fill-rule="evenodd" clip-rule="evenodd" d="M235.245 366.385C235.245 366.385 231.87 437.51 242.12 488.135C242.12 488.135 221.62 501.135 191.495 504.51L248.995 502.51L255.87 498.385L247.62 386.26L245.495 362.26" fill="#DCD9D8"/>
<path fill-rule="evenodd" clip-rule="evenodd" d="M276.745 423.76L303.37 416.26L353.995 413.51L361.495 390.26L347.87 349.885L332.12 347.885L310.245 354.76L289.245 365.01L278.12 363.01L269.37 366.385" fill="white"/>
<path fill-rule="evenodd" clip-rule="evenodd" d="M276.245 410.135C276.245 410.135 293.995 401.885 296.745 402.635L289.245 365.01L298.12 361.635C298.12 361.635 304.245 397.26 304.245 401.26C304.245 401.26 342.495 403.26 345.995 403.26C345.995 403.26 354.245 387.51 352.12 371.135L359.62 393.01L360.245 405.385L349.245 421.76L336.87 424.51L316.37 423.885L309.495 415.01L285.87 418.385L278.37 421.135" fill="#DCD9D8"/>
<path d="M249.37 361.51L234.37 323.26L218.62 300.635C218.62 300.635 221.995 291.01 226.87 291.01H242.62L257.62 296.51L256.245 321.76L249.37 361.51Z" fill="white"/>
<path fill-rule="evenodd" clip-rule="evenodd" d="M252.37 348.51C252.37 348.51 233.245 311.51 233.245 306.135C233.245 306.135 236.62 297.885 241.495 300.01C246.245 302.01 256.495 307.51 256.495 307.51V294.51L233.12 289.76L217.37 291.76L244.12 354.76L249.62 355.385" fill="#DCD9D8"/>
<path d="M168.62 258.26L149.62 256.26L131.87 250.76V256.885L140.62 266.51L167.995 278.885" fill="white"/>
<path fill-rule="evenodd" clip-rule="evenodd" d="M138.12 260.26C138.12 260.26 159.37 269.135 166.12 267.135L166.745 275.385L147.62 271.26L135.995 263.01L138.12 260.26Z" fill="#DCD9D8"/>
<path fill-rule="evenodd" clip-rule="evenodd" d="M276.62 293.385C264.995 293.01 254.495 291.635 245.37 289.135C245.995 285.385 244.87 281.635 245.745 279.01C248.245 277.135 252.62 277.135 256.495 276.76C253.12 275.135 248.495 274.51 244.62 275.385C244.495 272.76 243.37 271.135 242.62 269.135C249.12 266.76 264.495 251.51 273.245 256.635C277.37 259.01 279.12 272.76 279.495 279.51C279.745 284.885 278.87 290.51 276.62 293.385Z" fill="#D33833"/>
<path d="M276.62 293.385C264.995 293.01 254.495 291.635 245.37 289.135C245.995 285.385 244.87 281.635 245.745 279.01C248.245 277.135 252.62 277.135 256.495 276.76C253.12 275.135 248.495 274.51 244.62 275.385C244.495 272.76 243.37 271.135 242.62 269.135C249.12 266.76 264.495 251.51 273.245 256.635C277.37 259.01 279.12 272.76 279.495 279.51C279.745 284.885 278.87 290.51 276.62 293.385Z" stroke="#D33833" stroke-width="3.125" stroke-miterlimit="5"/>
<path fill-rule="evenodd" clip-rule="evenodd" d="M221.12 274.51C221.12 275.385 220.995 276.26 220.995 277.135C217.37 279.51 211.495 279.51 207.495 281.51C213.37 281.76 217.995 283.135 221.995 285.135C221.87 287.385 221.87 289.51 221.745 291.76C215.12 296.26 208.995 303.135 201.245 307.385C197.495 309.385 184.62 314.635 180.62 313.635C178.37 313.135 178.245 310.385 177.245 307.76C175.37 302.135 170.995 293.26 170.62 284.885C170.12 274.26 169.12 256.51 180.495 258.76C189.745 260.51 200.495 264.76 207.62 268.635C211.995 271.01 214.495 273.885 221.12 274.51Z" fill="#D33833"/>
<path d="M221.12 274.51C221.12 275.385 220.995 276.26 220.995 277.135C217.37 279.51 211.495 279.51 207.495 281.51C213.37 281.76 217.995 283.135 221.995 285.135C221.87 287.385 221.87 289.51 221.745 291.76C215.12 296.26 208.995 303.135 201.245 307.385C197.495 309.385 184.62 314.635 180.62 313.635C178.37 313.135 178.245 310.385 177.245 307.76C175.37 302.135 170.995 293.26 170.62 284.885C170.12 274.26 169.12 256.51 180.495 258.76C189.745 260.51 200.495 264.76 207.62 268.635C211.995 271.01 214.495 273.885 221.12 274.51Z" stroke="#D33833" stroke-width="3.125" stroke-miterlimit="5"/>
<path fill-rule="evenodd" clip-rule="evenodd" d="M227.745 287.135C226.745 281.385 225.62 279.76 225.995 274.635C241.37 264.385 244.37 292.26 227.745 287.135Z" fill="#D33833"/>
<path d="M227.745 287.135C226.745 281.385 225.62 279.76 225.995 274.635C241.37 264.385 244.37 292.26 227.745 287.135Z" stroke="#D33833" stroke-width="3.125" stroke-miterlimit="5"/>
<path fill-rule="evenodd" clip-rule="evenodd" d="M250.12 291.76C250.12 291.76 245.37 284.885 248.745 282.885C252.12 280.885 255.62 282.885 257.62 279.51C259.62 276.135 257.62 274.01 258.245 269.885C258.87 265.76 262.37 265.135 265.745 264.385C269.12 263.76 278.745 262.385 280.12 265.76L275.995 253.385L267.745 250.635L241.745 265.635L240.37 273.135V288.135" fill="#EF3D3A"/>
<path fill-rule="evenodd" clip-rule="evenodd" d="M178.245 314.385C177.37 303.76 176.495 293.01 175.62 282.385C174.12 266.51 179.495 269.26 193.245 269.26C195.37 269.26 206.245 271.76 206.995 273.385C210.745 281.01 200.745 279.26 211.245 285.01C220.12 289.885 235.87 282.01 232.245 271.26C230.245 268.885 221.745 270.51 218.745 268.885C213.37 266.135 207.995 263.385 202.745 260.635C195.995 257.135 180.245 252.01 172.995 256.885C154.62 269.385 174.12 300.635 180.745 313.635" fill="#EF3D3A"/>
<path fill-rule="evenodd" clip-rule="evenodd" d="M196.245 72.0098C177.62 67.6348 168.37 79.7598 162.745 92.3848C157.745 91.1348 159.745 84.2598 160.995 80.7598C164.37 71.6348 177.745 59.3848 188.745 61.0098C193.37 61.7598 199.87 66.1348 196.245 72.0098Z" fill="#231F20"/>
<path fill-rule="evenodd" clip-rule="evenodd" d="M287.12 93.26H287.995C292.245 102.01 295.87 111.26 301.12 119.01C297.62 127.26 274.12 134.635 274.495 119.76C279.495 117.51 288.245 119.26 292.745 116.51C290.245 109.385 286.495 103.26 287.12 93.26Z" fill="#231F20"/>
<path fill-rule="evenodd" clip-rule="evenodd" d="M205.745 93.5098C209.745 100.885 210.995 108.51 216.745 114.135C219.245 116.635 224.245 119.635 221.87 126.635C221.245 128.26 217.12 131.885 214.62 132.635C205.745 135.26 184.995 133.135 191.995 122.135C199.37 122.51 209.245 126.885 214.745 121.635C210.495 114.635 202.995 101.26 205.745 93.5098Z" fill="#231F20"/>
<path fill-rule="evenodd" clip-rule="evenodd" d="M283.745 167.885C270.37 176.51 255.495 185.76 233.495 183.635C228.87 179.51 226.995 170.51 231.62 164.51C233.995 168.635 232.495 176.01 239.12 177.135C251.495 179.26 265.995 169.51 274.995 166.135C280.495 156.76 274.495 153.385 269.495 147.385C259.245 135.01 245.495 119.76 245.995 101.26C250.12 98.26 250.495 105.885 251.12 107.26C256.495 119.76 269.87 135.76 279.745 146.51C282.12 149.135 286.12 151.635 286.62 153.385C287.745 158.51 283.245 164.51 283.745 167.885Z" fill="#231F20"/>
<path fill-rule="evenodd" clip-rule="evenodd" d="M107.37 158.885C103.12 156.51 102.12 146.01 97.245 145.635C90.245 145.26 91.495 159.26 91.495 167.51C86.62 163.135 85.745 149.635 89.37 142.635C85.37 140.635 83.495 144.885 81.245 146.26C84.245 125.385 111.995 136.635 107.37 158.885Z" fill="#231F20"/>
<path fill-rule="evenodd" clip-rule="evenodd" d="M292.245 176.635C285.995 188.51 277.245 201.51 258.995 201.885C258.62 198.01 258.37 192.26 258.995 189.885C272.995 188.635 281.62 181.51 292.245 176.635Z" fill="#231F20"/>
<path fill-rule="evenodd" clip-rule="evenodd" d="M204.745 184.385C216.37 190.51 237.87 191.135 253.62 190.76C254.495 194.26 254.495 198.51 254.495 202.76C234.12 203.635 210.12 198.635 204.745 184.385Z" fill="#231F20"/>
<path fill-rule="evenodd" clip-rule="evenodd" d="M202.495 195.761C210.495 216.011 238.245 213.636 261.62 213.136C260.62 215.761 258.37 218.886 255.62 220.011C248.12 223.011 227.495 225.386 217.12 219.886C210.495 216.386 206.245 208.511 202.745 203.886C200.87 201.511 192.245 195.761 202.495 195.761Z" fill="#231F20"/>
<path fill-rule="evenodd" clip-rule="evenodd" d="M282.745 307.385C273.245 323.635 264.245 340.26 252.995 354.51C257.745 340.635 259.745 317.51 260.37 299.885C270.37 295.26 278.745 300.885 282.745 307.385Z" fill="#81B0C4"/>
<path fill-rule="evenodd" clip-rule="evenodd" d="M333.62 365.635C322.995 367.76 315.62 378.01 305.245 377.385C310.995 369.385 320.87 366.01 333.62 365.635Z" fill="#231F20"/>
<path fill-rule="evenodd" clip-rule="evenodd" d="M338.37 382.135C329.745 383.01 319.62 384.385 310.87 383.76C314.995 377.385 330.87 379.635 338.37 382.135Z" fill="#231F20"/>
<path fill-rule="evenodd" clip-rule="evenodd" d="M341.37 396.51C331.62 396.76 319.62 396.51 310.37 395.76C315.745 389.885 334.995 393.51 341.37 396.51Z" fill="#231F20"/>
<path fill-rule="evenodd" clip-rule="evenodd" d="M264.495 435.51C265.87 447.635 270.745 460.01 270.12 473.385C264.745 475.135 261.62 476.76 254.495 476.76C253.995 465.385 252.495 448.135 252.87 437.26C256.495 437.51 261.745 434.76 264.495 435.51Z" fill="#DCD9D8"/>
<path fill-rule="evenodd" clip-rule="evenodd" d="M248.87 256.01C243.995 259.135 239.87 263.135 235.12 266.51C224.745 267.01 219.12 265.76 211.495 259.885C211.62 259.385 212.37 259.635 212.37 259.01C223.62 264.01 237.62 257.01 248.87 256.01Z" fill="#F0D6B7"/>
<path fill-rule="evenodd" clip-rule="evenodd" d="M190.62 331.76C193.62 318.51 205.62 311.635 216.495 304.385C227.745 318.635 234.495 336.885 241.995 354.51C224.245 349.135 206.12 340.51 190.62 331.76Z" fill="#81B0C4"/>
<path fill-rule="evenodd" clip-rule="evenodd" d="M252.995 437.26C252.495 448.01 254.12 465.385 254.62 476.76C261.745 476.76 264.87 475.135 270.245 473.385C270.87 460.01 265.995 447.76 264.62 435.51C261.745 434.76 256.495 437.51 252.995 437.26ZM141.12 375.885C145.87 419.385 152.745 456.01 165.245 494.635C193.12 503.135 226.87 503.885 251.495 496.26C246.995 474.51 248.995 448.01 246.245 424.76C244.245 407.26 245.245 389.76 242.495 371.885C212.745 365.635 170.37 370.385 141.12 375.885ZM249.745 372.135C249.495 390.885 250.62 409.26 251.995 428.01C259.12 426.885 263.995 426.26 270.745 424.76C268.62 406.76 268.87 386.385 264.37 370.51C259.245 370.51 254.745 370.385 249.745 372.135ZM286.12 369.135C282.745 368.385 278.745 369.135 275.495 369.135C276.995 384.385 280.745 401.26 281.995 417.26C287.12 417.385 289.87 415.01 294.12 414.135C294.37 400.01 292.87 380.76 286.12 369.135ZM341.37 419.51C351.995 416.885 358.745 403.885 355.745 390.385C353.745 381.385 350.12 364.385 346.37 358.635C343.495 354.385 335.87 348.76 329.745 352.635C319.745 359.01 302.245 360.885 294.995 368.51C298.62 380.635 299.745 397.26 301.245 412.635C313.62 413.385 328.995 409.26 339.245 413.635C331.995 416.01 322.62 416.01 316.495 419.385C321.62 421.885 333.495 421.385 341.37 419.51ZM241.995 354.51C234.495 336.885 227.62 318.635 216.495 304.385C205.62 311.635 193.745 318.51 190.62 331.76C206.12 340.51 224.245 349.135 241.995 354.51ZM260.495 299.885C259.745 317.51 257.745 340.635 253.12 354.51C264.37 340.26 273.37 323.635 282.87 307.385C278.745 300.885 270.37 295.26 260.495 299.885ZM239.495 292.385C235.245 291.885 231.62 297.26 226.12 295.01C224.87 296.385 223.745 297.885 222.37 299.26C234.62 314.01 240.12 334.885 249.62 352.135C254.62 335.51 254.12 317.385 255.245 299.26C248.245 299.635 244.37 293.01 239.495 292.385ZM225.995 274.635C225.495 279.635 226.745 281.26 227.745 287.135C244.37 292.26 241.37 264.385 225.995 274.635ZM207.62 268.635C200.495 264.76 189.745 260.51 180.495 258.76C169.12 256.635 170.12 274.385 170.62 284.885C170.995 293.26 175.37 302.135 177.245 307.76C178.12 310.385 178.37 313.135 180.62 313.635C184.495 314.51 197.495 309.385 201.245 307.385C209.12 303.135 215.12 296.385 221.745 291.76C221.87 289.51 221.87 287.385 221.995 285.135C217.995 283.135 213.37 281.76 207.495 281.51C211.495 279.51 217.37 279.51 220.995 277.135C220.995 276.26 221.12 275.385 221.12 274.51C214.495 273.885 211.995 271.01 207.62 268.635ZM139.495 256.26C133.62 262.26 156.12 270.51 163.245 270.885C163.245 267.135 165.37 263.51 164.995 260.76C156.495 259.26 145.245 260.26 139.495 256.26ZM212.495 259.01C212.495 259.635 211.745 259.385 211.62 259.885C219.245 265.885 224.87 267.01 235.245 266.51C239.87 263.135 244.12 259.135 248.995 256.01C237.62 257.01 223.62 264.01 212.495 259.01ZM279.37 279.385C278.995 272.76 277.245 259.01 273.12 256.51C264.495 251.51 248.995 266.76 242.495 269.01C243.245 271.01 244.37 272.635 244.495 275.26C248.37 274.26 252.995 275.01 256.37 276.635C252.495 277.01 248.245 277.01 245.62 278.885C244.62 281.635 245.87 285.26 245.245 289.01C254.37 291.635 264.87 293.01 276.495 293.26C278.87 290.51 279.745 284.885 279.37 279.385ZM129.495 262.01C127.62 260.635 114.995 244.26 113.37 245.01C90.62 254.01 69.37 269.51 50.245 284.135C68.37 323.01 75.745 370.76 76.995 416.635C97.745 426.385 115.995 440.385 144.245 441.885C140.995 418.76 137.995 398.26 136.12 376.51C128.995 373.51 118.87 376.635 112.245 375.635C112.245 367.635 122.37 372.135 123.245 366.76C123.87 362.635 117.62 362.385 119.62 356.01C124.745 357.885 127.495 362.01 132.995 363.635C137.995 352.635 132.87 333.01 133.62 323.76C133.745 322.01 134.495 314.135 138.37 315.51C141.87 316.76 138.12 336.385 138.495 345.135C138.87 353.135 137.495 361.01 140.745 366.01C167.995 362.26 195.62 359.885 225.12 359.135C218.62 356.385 210.87 353.76 202.495 349.01C197.87 346.385 183.495 341.01 182.12 336.76C179.995 329.885 187.62 326.135 188.995 320.135C175.245 327.635 172.62 312.885 169.245 302.51C166.245 293.135 164.62 286.01 163.87 280.635C152.37 275.01 139.745 269.26 129.495 262.01ZM267.37 247.01C286.37 237.76 289.745 281.385 282.37 295.385C283.495 299.51 287.495 301.135 289.12 304.885C278.495 323.885 266.745 341.51 255.995 360.26C263.995 355.26 275.495 359.385 284.995 355.635C288.495 354.26 290.995 346.385 293.62 340.01C300.87 322.635 308.37 300.635 311.745 284.01C312.495 280.26 314.62 272.01 314.12 268.635C313.245 262.635 305.12 258.135 300.995 254.385C293.37 247.51 288.495 241.385 280.495 235.01C276.995 239.885 269.995 243.135 267.37 247.01ZM86.12 78.7601C77.12 88.7601 78.995 107.385 80.12 120.635C96.495 110.385 118.12 121.51 117.995 138.885C125.745 138.635 120.87 129.135 119.495 123.01C114.87 102.885 127.245 81.1352 119.995 62.7602C105.995 63.8852 94.495 69.6351 86.12 78.7601ZM150.87 21.1352C130.37 26.8852 104.245 41.7602 95.745 60.1352C102.245 59.1352 106.745 55.8852 113.245 55.5102C115.62 55.3852 118.87 56.5102 121.62 55.8852C127.12 54.5102 131.87 42.0102 136.12 37.3852C140.245 32.8852 145.12 30.8852 148.495 26.7602C150.62 25.7602 153.87 25.7601 153.995 22.5101C152.87 21.5101 151.995 20.7602 150.87 21.1352ZM257.37 26.5102C236.12 14.5102 200.12 5.51018 177.62 16.7602C159.37 25.8852 134.745 40.8852 126.37 59.8852C134.245 78.2602 123.995 95.1351 123.37 113.76C122.995 123.635 127.995 132.385 128.37 143.135C125.745 147.51 117.495 148.135 111.745 147.76C109.87 138.135 106.495 127.385 96.62 126.385C82.62 124.885 72.495 136.385 71.87 148.51C71.12 162.635 82.745 186.135 99.245 184.51C105.62 183.885 107.245 177.51 114.12 177.51C117.87 185.01 108.37 187.385 107.37 192.76C107.12 194.135 108.12 199.51 108.745 202.135C111.745 214.51 118.37 230.51 124.995 240.01C133.37 252.01 149.745 253.76 167.37 254.885C170.495 248.135 182.12 248.635 189.745 250.385C180.62 246.76 172.245 238.135 165.245 230.385C157.245 221.51 149.12 212.01 148.745 200.51C163.87 221.51 176.37 239.885 203.995 249.135C224.87 256.135 249.245 245.885 265.245 234.635C271.87 230.01 275.87 222.51 280.62 215.76C298.245 190.385 306.495 154.01 304.745 118.885C303.995 104.385 303.995 89.8852 299.12 80.1352C293.995 69.8852 276.87 60.7601 266.745 70.0101C264.87 60.1351 275.12 53.8851 287.12 57.5101C278.495 46.7601 269.495 33.3852 257.37 26.5102ZM296.87 354.01C313.495 345.76 344.495 331.76 354.87 354.01C358.745 362.26 363.245 376.01 365.245 384.51C367.995 396.385 362.245 421.51 349.87 425.51C338.995 429.01 326.37 428.885 313.37 426.26C311.87 425.01 310.12 422.76 308.87 420.385C299.495 420.01 290.87 420.885 283.495 424.76C284.245 431.635 279.495 432.76 275.12 434.135C271.87 447.01 281.62 463.76 279.245 475.51C277.62 483.885 267.37 485.135 259.745 486.76C259.495 491.385 260.12 495.26 260.62 499.135C258.87 505.51 251.12 509.135 243.87 510.01C219.745 512.885 183.12 514.26 159.87 505.885C153.37 490.01 148.245 470.635 142.87 452.51C120.245 454.885 101.87 442.76 84.62 434.76C78.62 432.01 70.37 430.51 68.12 425.76C65.995 421.135 66.87 412.385 66.245 404.01C64.87 382.76 63.745 362.135 58.12 340.385C55.62 330.635 51.245 322.01 48.12 312.51C45.245 303.76 40.37 293.01 38.995 284.26C37.12 271.385 49.245 270.635 56.995 265.01C68.995 256.385 78.495 251.51 91.495 243.76C95.37 241.385 106.995 235.635 108.245 232.885C110.87 227.51 103.745 220.01 101.87 215.76C98.87 209.135 97.245 203.51 96.87 197.01C85.995 195.26 77.62 188.76 72.62 181.51C64.37 169.385 58.62 146.885 65.745 129.885C66.245 128.51 69.12 125.885 69.495 123.885C70.37 119.76 67.995 114.385 67.87 110.135C67.12 88.0102 71.62 68.8852 86.62 62.1352C92.745 38.0102 114.37 30.0102 134.87 18.0102C142.495 13.5102 150.995 10.6351 159.62 7.51015C190.87 -3.98985 238.745 -1.86484 264.62 17.7602C275.62 26.0102 293.12 43.6351 299.495 56.2601C316.12 89.7601 314.87 145.76 303.245 186.635C301.745 192.135 299.37 200.135 296.245 206.76C293.995 211.385 287.245 220.51 287.995 224.635C288.87 228.885 303.62 240.01 306.745 243.135C312.495 248.635 323.245 255.885 324.12 262.885C325.12 270.26 320.87 280.385 318.745 287.51C311.87 310.885 304.995 332.76 296.87 354.01Z" fill="#231F20"/>
<path fill-rule="evenodd" clip-rule="evenodd" d="M186.12 189.51C186.995 188.26 191.995 186.51 198.87 189.885C198.87 189.885 190.62 191.26 191.37 204.885L187.995 204.26C187.995 204.26 184.495 191.76 186.12 189.51Z" fill="#F7E4CD"/>
<path fill-rule="evenodd" clip-rule="evenodd" d="M246.12 307.135C246.12 309.26 244.495 310.885 242.37 310.885C240.245 310.885 238.62 309.26 238.62 307.135C238.62 305.01 240.245 303.385 242.37 303.385C244.495 303.385 246.12 305.135 246.12 307.135Z" fill="#1D1919"/>
<path fill-rule="evenodd" clip-rule="evenodd" d="M249.87 324.635C249.87 326.76 248.245 328.385 246.12 328.385C243.995 328.385 242.37 326.76 242.37 324.635C242.37 322.51 243.995 320.885 246.12 320.885C248.245 320.885 249.87 322.51 249.87 324.635Z" fill="#1D1919"/>
</g>
<defs>
<clipPath id="clip0_1284_3227">
<rect width="370.25" height="511.73" fill="white" transform="translate(0.5 0.5)"/>
</clipPath>
</defs>
</svg>
