<svg width="257" height="257" viewBox="0 0 257 257" fill="none" xmlns="http://www.w3.org/2000/svg">
<g clip-path="url(#clip0_1272_3227)">
<path d="M244.822 0.49707H121.871C121.871 15.2172 127.719 29.3344 138.127 39.7431C148.536 50.1518 162.653 55.9993 177.373 55.9993H200.022V77.866C200.042 108.491 224.864 133.313 255.489 133.333V11.1637C255.489 5.2727 250.713 0.49707 244.822 0.49707Z" fill="#2684FF"/>
<path d="M183.987 61.7593H61.0354C61.055 92.3845 85.8768 117.206 116.502 117.226H139.151V139.164C139.19 169.789 164.028 194.595 194.653 194.595V72.4259C194.653 66.5349 189.878 61.7593 183.987 61.7593Z" fill="url(#paint0_linear_1272_3227)"/>
<path d="M123.115 122.986H0.164307C0.164307 153.639 25.0135 178.488 55.6665 178.488H78.3865V200.355C78.4061 230.952 103.185 255.763 133.782 255.821V133.653C133.782 127.761 129.006 122.986 123.115 122.986Z" fill="url(#paint1_linear_1272_3227)"/>
</g>
<defs>
<linearGradient id="paint0_linear_1272_3227" x1="13159.7" y1="83.0933" x2="7961.31" y2="5507.37" gradientUnits="userSpaceOnUse">
<stop offset="0.18" stop-color="#0052CC"/>
<stop offset="1" stop-color="#2684FF"/>
</linearGradient>
<linearGradient id="paint1_linear_1272_3227" x1="13450.8" y1="183.429" x2="7437.56" y2="6099.62" gradientUnits="userSpaceOnUse">
<stop offset="0.18" stop-color="#0052CC"/>
<stop offset="1" stop-color="#2684FF"/>
</linearGradient>
<clipPath id="clip0_1272_3227">
<rect width="256" height="256" fill="white" transform="translate(0.164307 0.49707)"/>
</clipPath>
</defs>
</svg>
