<svg width="65" height="65" viewBox="0 0 65 65" fill="none" xmlns="http://www.w3.org/2000/svg">
<g clip-path="url(#clip0_121_2)">
<path d="M29.4089 1.65683C31.0089 0.750831 33.0489 0.746831 34.6089 1.65683L58.4969 15.1228C59.9909 15.9628 60.9909 17.6288 60.9769 19.3508V46.3508C60.9869 48.1448 59.8889 49.8468 58.3129 50.6708L34.5529 64.0748C33.7403 64.5239 32.8222 64.7472 31.894 64.7216C30.9659 64.6959 30.0615 64.4222 29.2749 63.9288L22.1449 59.8088C21.6589 59.5188 21.1129 59.2888 20.7689 58.8188C21.0729 58.4108 21.6129 58.3588 22.0529 58.1788C23.0449 57.8628 23.9529 57.3788 24.8649 56.8668C25.0949 56.7068 25.3769 56.7668 25.5969 56.9108L31.6769 60.4268C32.1109 60.6768 32.5509 60.3468 32.9229 60.1368L56.2529 46.9708C56.5409 46.8308 56.7009 46.5268 56.6769 46.2108V19.4708C56.7089 19.1108 56.5029 18.7828 56.1769 18.6368L32.4769 5.29083C32.3404 5.19637 32.1783 5.1456 32.0122 5.14524C31.8462 5.14488 31.6839 5.19495 31.5469 5.28883L7.88094 18.6628C7.56094 18.8088 7.34094 19.1328 7.38094 19.4928V46.2328C7.35294 46.5488 7.52094 46.8468 7.81094 46.9828L14.1349 50.5528C15.3229 51.1928 16.7809 51.5528 18.0889 51.0828C18.6613 50.8671 19.1541 50.4816 19.5012 49.9779C19.8483 49.4742 20.0331 48.8765 20.0309 48.2648L20.0369 21.6848C20.0089 21.2908 20.3809 20.9648 20.7629 21.0048H23.8029C24.2029 20.9948 24.5169 21.4188 24.4629 21.8148L24.4569 48.5628C24.4589 50.9388 23.4829 53.5228 21.2849 54.6888C18.5769 56.0888 15.2289 55.7948 12.5529 54.4488L5.75294 50.6888C4.15294 49.8888 3.07894 48.1608 3.08894 46.3688V19.3688C3.09559 18.4913 3.33684 17.6315 3.78767 16.8786C4.2385 16.1257 4.88251 15.507 5.65294 15.0868L29.4089 1.65683ZM36.2969 20.3728C39.7509 20.1728 43.4489 20.2408 46.5569 21.9428C48.9629 23.2468 50.2969 25.9828 50.3409 28.6588C50.2729 29.0188 49.8969 29.2188 49.5529 29.1928C48.5529 29.1908 47.5489 29.2068 46.5449 29.1868C46.1189 29.2028 45.8729 28.8108 45.8189 28.4348C45.5309 27.1548 44.8329 25.8888 43.6289 25.2708C41.7809 24.3448 39.6369 24.3908 37.6209 24.4108C36.1489 24.4908 34.5669 24.6168 33.3209 25.4808C32.3609 26.1368 32.0729 27.4808 32.4149 28.5248C32.7349 29.2908 33.6209 29.5368 34.3429 29.7648C38.5069 30.8528 42.9169 30.7648 47.0029 32.1788C48.6929 32.7628 50.3469 33.8988 50.9269 35.6688C51.6829 38.0408 51.3529 40.8768 49.6669 42.7808C48.2989 44.3488 46.3069 45.1808 44.3169 45.6648C41.6709 46.2548 38.9269 46.2688 36.2409 46.0048C33.7149 45.7168 31.0869 45.0528 29.1369 43.3328C27.4689 41.8848 26.6569 39.6288 26.7369 37.4528C26.7569 37.0848 27.1229 36.8288 27.4769 36.8588H30.4769C30.8809 36.8308 31.1769 37.1788 31.1969 37.5588C31.3829 38.7588 31.8409 40.0588 32.9049 40.7588C34.9569 42.0828 37.5309 41.9908 39.8789 42.0288C41.8249 41.9428 44.0089 41.9168 45.5989 40.6288C46.4389 39.8948 46.6849 38.6688 46.4589 37.6128C46.2129 36.7208 45.2589 36.3068 44.4589 36.0128C40.3489 34.7128 35.8889 35.1848 31.8189 33.7128C30.1669 33.1288 28.5689 32.0248 27.9349 30.3268C27.0489 27.9268 27.4549 24.9528 29.3209 23.1128C31.1209 21.2828 33.7609 20.5768 36.2609 20.3248L36.2969 20.3728Z" fill="#8CC84B"/>
</g>
<defs>
<clipPath id="clip0_121_2">
<rect width="64" height="64" fill="white" transform="translate(0.0966797 0.802734)"/>
</clipPath>
</defs>
</svg>
