<svg width="256" height="192" viewBox="0 0 256 192" fill="none" xmlns="http://www.w3.org/2000/svg">
<g clip-path="url(#clip0_1272_3240)">
<path d="M84.3803 108.351C74.8238 111.063 68.5543 115.819 64.4242 120.57C68.38 117.108 73.6788 113.931 80.8265 111.905C88.1373 109.833 94.3742 109.848 99.5277 110.842V106.813C95.1314 106.411 90.0914 106.731 84.3803 108.351ZM63.9874 74.4746L28.4965 83.8248C28.4965 83.8248 29.1433 84.7385 30.341 85.9577L60.4329 78.0284C60.4329 78.0284 60.0064 83.523 56.3034 88.4384C63.3081 83.1389 63.9874 74.4746 63.9874 74.4746ZM93.6956 157.884C43.7505 171.337 17.3261 113.455 9.32589 83.4125C5.6297 69.5451 4.01617 59.0424 3.58611 52.2648C3.53991 51.561 3.56127 50.9677 3.61103 50.4241C1.02013 50.5806 -0.220285 51.9274 0.0320857 55.8194C0.462146 62.5932 2.07567 73.0952 5.77186 86.9671C13.7685 117.005 40.1964 174.887 90.1418 161.435C101.013 158.506 109.18 153.171 115.311 146.362C109.66 151.466 102.588 155.485 93.6956 157.884ZM103.081 39.0508V42.6053H122.672C122.27 41.3468 121.865 40.2129 121.463 39.0508H103.081Z" fill="#2D4552"/>
<path d="M127.05 68.3254C135.861 70.8276 140.52 77.0045 142.983 82.4709L152.806 85.2609C152.806 85.2609 151.466 66.1295 134.162 61.2141C117.973 56.6147 108.011 70.2091 106.799 71.9682C111.508 68.6132 118.385 65.8663 127.05 68.3254ZM205.247 82.5592C189.043 77.939 179.085 91.5616 177.891 93.2963C182.604 89.9449 189.477 87.1972 198.138 89.6675C206.934 92.1735 211.59 98.3429 214.061 103.813L223.898 106.613C223.898 106.613 222.536 87.4783 205.247 82.5592ZM195.487 133.002L113.769 110.157C113.769 110.157 114.653 114.642 118.048 120.45L186.851 139.684C192.515 136.407 195.487 133.002 195.487 133.002ZM138.832 182.176C74.1266 164.828 81.9492 82.3857 92.4192 43.319C96.7302 27.2194 101.162 15.253 104.838 7.23147C102.645 6.78005 100.828 7.93519 99.0337 11.5852C95.1313 19.5 90.141 32.3869 85.3116 50.4274C74.8445 89.4933 67.022 171.933 131.724 189.281C162.221 197.451 185.979 185.034 203.69 165.532C186.879 180.758 165.416 189.295 138.832 182.176Z" fill="#2D4552"/>
<path d="M103.081 138.564V121.928L56.8577 135.035C56.8577 135.035 60.2733 115.19 84.3801 108.351C91.691 106.279 97.9287 106.293 103.081 107.288V39.0505H126.226C123.706 31.2636 121.268 25.2684 119.22 21.1028C115.833 14.208 112.361 18.7786 104.479 25.3715C98.9269 30.0096 84.8956 39.9041 63.7811 45.5938C42.6664 51.2871 25.5963 49.7772 18.474 48.5439C8.37689 46.8019 3.09557 44.5845 3.58964 52.2646C4.01962 59.0385 5.63322 69.5412 9.32941 83.4123C17.326 113.451 43.7539 171.333 93.6992 157.88C106.746 154.365 115.954 147.417 122.337 138.561H103.081V138.564ZM28.4929 83.8246L63.9873 74.4744C63.9873 74.4744 62.9528 88.1289 49.6465 91.6367C36.3366 95.1409 28.4929 83.8246 28.4929 83.8246Z" fill="#E2574C"/>
<path d="M236.664 39.84C227.438 41.4575 205.303 43.4724 177.948 36.1401C150.585 28.8123 132.431 15.996 125.238 9.97192C115.041 1.43152 110.556 -4.50375 106.142 4.47383C102.24 12.3922 97.2494 25.2792 92.4193 43.3197C81.9529 82.3856 74.1304 164.825 138.832 182.173C203.519 199.506 237.958 124.195 248.425 85.1258C253.255 67.0891 255.373 53.4308 255.956 44.6242C256.62 34.648 249.768 37.544 236.664 39.84ZM106.668 72.161C106.668 72.161 116.864 56.3023 134.158 61.2177C151.463 66.1331 152.803 85.2645 152.803 85.2645L106.668 72.161ZM148.883 143.324C118.464 134.413 113.772 110.157 113.772 110.157L195.487 133.003C195.487 132.999 178.993 152.123 148.883 143.324ZM177.774 93.4741C177.774 93.4741 187.956 77.6266 205.247 82.5561C222.537 87.4789 223.898 106.61 223.898 106.61L177.774 93.4741Z" fill="#2EAD33"/>
<path d="M86.9285 126.51L56.8579 135.032C56.8579 135.032 60.1244 116.424 82.2763 109.049L65.2489 45.1475L63.7776 45.5947C42.663 51.2887 25.5929 49.7781 18.4706 48.5448C8.37353 46.8035 3.09222 44.5853 3.58621 52.2662C4.01627 59.0401 5.62979 69.542 9.32599 83.4139C17.3226 113.452 43.7506 171.333 93.6957 157.881L95.167 157.419L86.9285 126.51ZM28.493 83.8262L63.9874 74.4752C63.9874 74.4752 62.9529 88.1298 49.6467 91.6376C36.3368 95.1417 28.493 83.8262 28.493 83.8262Z" fill="#D65348"/>
<path d="M150.255 143.658L148.879 143.323C118.46 134.413 113.769 110.157 113.769 110.157L155.906 121.935L178.214 36.2113L177.944 36.1401C150.582 28.8123 132.428 15.996 125.234 9.97192C115.038 1.43152 110.552 -4.50375 106.138 4.47383C102.24 12.3922 97.2494 25.2792 92.4193 43.3197C81.9529 82.3856 74.1304 164.825 138.832 182.172L140.158 182.471L150.255 143.658ZM106.668 72.161C106.668 72.161 116.864 56.3023 134.158 61.2177C151.463 66.1331 152.803 85.2645 152.803 85.2645L106.668 72.161Z" fill="#1D8D22"/>
<path d="M88.4607 126.072L80.3964 128.361C82.3016 139.101 85.6596 149.408 90.9303 158.513C91.8477 158.311 92.7576 158.137 93.692 157.881C96.1408 157.22 98.4117 156.402 100.598 155.51C94.7088 146.771 90.8131 136.706 88.4607 126.072ZM85.3118 50.4279C81.1677 65.895 77.4604 88.1574 78.4808 110.487C80.3074 109.695 82.2371 108.956 84.3804 108.348L85.8732 108.014C84.0533 84.1624 87.9876 59.8568 92.4194 43.3196C93.543 39.1362 94.6695 35.2449 95.7923 31.6162C93.9835 32.7672 92.036 33.9471 89.8179 35.1626C88.322 39.7799 86.8114 44.8265 85.3118 50.4279Z" fill="#C04B41"/>
</g>
<defs>
<clipPath id="clip0_1272_3240">
<rect width="256" height="192" fill="white"/>
</clipPath>
</defs>
</svg>
