<svg width="256" height="256" viewBox="0 0 256 256" fill="none" xmlns="http://www.w3.org/2000/svg">
<g clip-path="url(#clip0_1272_3254)">
<path d="M254.953 144.253C263.912 74.1217 214.384 10.0053 144.381 1.04688C74.3777 -7.9115 10.0053 41.6156 1.04688 111.619C-7.9115 181.622 41.6156 245.867 111.619 254.953C181.75 263.912 245.867 214.384 254.953 144.253Z" fill="#FF6C37"/>
<path d="M174.2 82.1845L120.193 136.191L104.964 120.962C158.075 67.8511 163.322 72.4582 174.2 82.1845Z" fill="white"/>
<path d="M120.193 137.471C119.809 137.471 119.554 137.343 119.298 137.087L103.94 121.857C103.428 121.345 103.428 120.578 103.94 120.066C157.947 66.0594 163.578 71.1785 174.968 81.4166C175.223 81.6726 175.351 81.9285 175.351 82.3125C175.351 82.6964 175.223 82.9523 174.968 83.2083L120.961 137.087C120.833 137.343 120.449 137.471 120.193 137.471ZM106.756 120.961L120.193 134.399L172.28 82.3125C162.81 73.866 156.411 71.3064 106.756 120.961Z" fill="#FF6C37"/>
<path d="M135.679 151.676L120.961 136.958L174.968 82.9521C189.429 97.5415 167.801 121.217 135.679 151.676Z" fill="white"/>
<path d="M135.679 152.956C135.295 152.956 135.039 152.828 134.783 152.572L120.066 137.855C119.81 137.599 119.81 137.343 119.81 136.959C119.81 136.575 119.938 136.319 120.194 136.063L174.2 82.0568C174.712 81.5449 175.48 81.5449 175.991 82.0568C179.319 85.1282 181.111 89.4794 180.983 93.9586C180.727 108.164 164.602 126.209 136.703 152.572C136.319 152.828 135.935 152.956 135.679 152.956ZM122.753 136.959C130.944 145.277 134.399 148.605 135.679 149.885C157.179 129.408 178.039 108.42 178.167 93.9586C178.295 90.6312 177.015 87.3038 174.84 84.7443L122.753 136.959Z" fill="#FF6C37"/>
<path d="M105.22 121.346L116.098 132.224C116.354 132.48 116.354 132.736 116.098 132.991C115.97 133.119 115.97 133.119 115.842 133.119L93.3182 137.983C92.1665 138.111 91.1426 137.343 90.8867 136.191C90.7587 135.551 91.0147 134.911 91.3986 134.527L104.452 121.474C104.708 121.218 105.092 121.09 105.22 121.346Z" fill="white"/>
<path d="M92.9343 139.262C91.0147 139.262 89.6069 137.727 89.6069 135.807C89.6069 134.911 89.9909 134.015 90.6307 133.375L103.684 120.322C104.452 119.682 105.476 119.682 106.244 120.322L117.122 131.2C117.89 131.84 117.89 132.991 117.122 133.759C116.866 134.015 116.61 134.143 116.226 134.271L93.7022 139.134C93.4462 139.134 93.1903 139.262 92.9343 139.262ZM104.836 122.753L92.2944 135.295C92.0385 135.551 91.9105 135.935 92.1665 136.319C92.2945 136.703 92.6784 136.831 93.0623 136.703L114.179 132.096L104.836 122.753Z" fill="#FF6C37"/>
<path d="M202.739 52.2376C194.548 44.303 181.367 44.559 173.432 52.8775C165.497 61.196 165.753 74.2496 174.072 82.1842C180.855 88.711 191.093 89.8628 199.155 84.9997L184.566 70.4103L202.739 52.2376Z" fill="white"/>
<path d="M188.405 89.2233C176.247 89.2233 166.393 79.3691 166.393 67.2113C166.393 55.0534 176.247 45.1992 188.405 45.1992C194.036 45.1992 199.539 47.3748 203.634 51.3421C203.89 51.5981 204.018 51.854 204.018 52.238C204.018 52.6219 203.89 52.8778 203.634 53.1338L186.357 70.4107L199.923 83.9762C200.435 84.4881 200.435 85.256 199.923 85.7679C199.795 85.8959 199.795 85.8959 199.667 86.0239C196.34 88.0715 192.372 89.2233 188.405 89.2233ZM188.405 47.8867C177.655 47.8867 168.953 56.5892 169.081 67.3392C169.081 78.0893 177.783 86.7917 188.533 86.6637C191.477 86.6637 194.42 86.0239 197.108 84.6161L183.67 71.3065C183.414 71.0506 183.286 70.7946 183.286 70.4107C183.286 70.0267 183.414 69.7708 183.67 69.5148L200.819 52.3659C197.363 49.4225 193.012 47.8867 188.405 47.8867Z" fill="#FF6C37"/>
<path d="M203.123 52.6222L202.867 52.3662L184.566 70.411L199.027 84.8723C200.435 83.9765 201.843 82.9527 202.995 81.8009C211.185 73.7384 211.185 60.6847 203.123 52.6222Z" fill="white"/>
<path d="M199.155 86.2796C198.771 86.2796 198.515 86.1517 198.259 85.8957L183.67 71.3063C183.414 71.0504 183.286 70.7944 183.286 70.4105C183.286 70.0266 183.414 69.7706 183.67 69.5147L201.843 51.3419C202.355 50.83 203.123 50.83 203.634 51.3419L204.018 51.5979C212.593 60.1723 212.593 73.9939 204.146 82.6963C202.867 83.9761 201.459 85.1279 199.923 86.0237C199.539 86.1517 199.283 86.2796 199.155 86.2796ZM186.358 70.4105L199.283 83.3362C200.307 82.6963 201.331 81.8004 202.099 81.0326C209.393 73.7379 209.777 61.836 202.739 54.1574L186.358 70.4105Z" fill="#FF6C37"/>
<path d="M176.375 84.4882C173.304 81.4167 168.313 81.4167 165.241 84.4882L116.994 132.735L125.057 140.798L176.119 96.0061C179.447 93.1906 179.703 88.1995 176.887 84.8721C176.631 84.7441 176.503 84.6161 176.375 84.4882Z" fill="white"/>
<path d="M124.929 142.077C124.545 142.077 124.289 141.949 124.033 141.693L115.97 133.631C115.458 133.119 115.458 132.351 115.97 131.839L164.217 83.5918C167.801 80.0085 173.56 80.0085 177.143 83.5918C180.726 87.1752 180.726 92.9341 177.143 96.5175C177.015 96.6455 176.887 96.7734 176.759 96.9014L125.696 141.693C125.568 141.949 125.312 142.077 124.929 142.077ZM118.786 132.735L125.056 139.006L175.223 94.9818C178.039 92.6782 178.295 88.4549 175.991 85.6394C173.688 82.824 169.464 82.568 166.649 84.8716C166.521 84.9996 166.393 85.1275 166.137 85.2555L118.786 132.735Z" fill="#FF6C37"/>
<path d="M80.0087 187.637C79.4968 187.893 79.2409 188.405 79.3688 188.917L81.5444 198.132C82.0564 199.411 81.2885 200.947 79.8807 201.331C78.8569 201.715 77.7051 201.331 77.0653 200.563L62.9878 186.614L108.932 140.67L124.801 140.926L135.551 151.676C132.991 153.852 117.506 168.825 80.0087 187.637Z" fill="white"/>
<path d="M78.9849 202.611C77.9611 202.611 76.9373 202.227 76.2974 201.459L62.3479 187.51C62.092 187.254 61.964 186.998 61.964 186.614C61.964 186.23 62.092 185.974 62.3479 185.718L108.292 139.775C108.548 139.519 108.932 139.391 109.187 139.391L125.057 139.647C125.441 139.647 125.696 139.775 125.952 140.031L136.703 150.781C136.958 151.037 137.086 151.42 137.086 151.804C137.086 152.188 136.958 152.444 136.575 152.7L135.679 153.468C122.113 165.37 103.684 177.272 80.7766 188.662L82.9522 197.748C83.3361 199.412 82.5683 201.203 81.0326 202.099C80.2647 202.483 79.6248 202.611 78.9849 202.611ZM64.9075 186.614L78.0891 199.668C78.473 200.308 79.2409 200.564 79.8808 200.18C80.5206 199.796 80.7766 199.028 80.3927 198.388L78.2171 189.174C77.9611 188.022 78.473 186.998 79.4968 186.486C102.149 175.096 120.449 163.322 133.887 151.676L124.417 142.206L109.699 141.95L64.9075 186.614Z" fill="#FF6C37"/>
<path d="M52.1097 197.619L63.1157 186.613L79.4967 202.994L53.3894 201.203C52.2377 201.075 51.4698 200.051 51.5978 198.899C51.5978 198.387 51.7257 197.875 52.1097 197.619Z" fill="white"/>
<path d="M79.4968 204.147L53.2615 202.355C51.3419 202.227 50.0621 200.563 50.1901 198.644C50.3181 197.876 50.574 197.108 51.2139 196.596L62.2199 185.59C62.7318 185.078 63.4997 185.078 64.0116 185.59L80.3926 201.971C80.7766 202.355 80.9045 202.867 80.6486 203.379C80.3926 203.891 80.0087 204.147 79.4968 204.147ZM63.1157 188.405L53.0056 198.516C52.6216 198.772 52.6216 199.411 53.0056 199.667C53.1335 199.795 53.2615 199.923 53.5175 199.923L76.1694 201.459L63.1157 188.405Z" fill="#FF6C37"/>
<path d="M104.452 146.557C103.684 146.557 103.172 145.917 103.172 145.278C103.172 144.894 103.3 144.638 103.556 144.382L115.97 131.968C116.482 131.456 117.25 131.456 117.762 131.968L125.824 140.03C126.208 140.414 126.336 140.798 126.208 141.31C126.08 141.694 125.696 142.078 125.185 142.206L104.708 146.557C104.58 146.557 104.452 146.557 104.452 146.557ZM116.866 134.655L108.42 143.102L122.241 140.158L116.866 134.655Z" fill="#FF6C37"/>
<path d="M124.801 140.926L110.723 143.997C109.699 144.253 108.676 143.613 108.42 142.589C108.292 141.95 108.42 141.31 108.932 140.798L116.738 132.991L124.801 140.926Z" fill="white"/>
<path d="M110.467 145.278C108.676 145.278 107.268 143.87 107.268 142.078C107.268 141.182 107.652 140.414 108.164 139.775L115.97 131.968C116.482 131.456 117.25 131.456 117.762 131.968L125.824 140.03C126.208 140.414 126.336 140.798 126.208 141.31C126.08 141.694 125.696 142.078 125.185 142.206L111.107 145.278C110.851 145.278 110.595 145.278 110.467 145.278ZM116.866 134.655L109.955 141.566C109.699 141.822 109.699 142.078 109.827 142.334C109.955 142.59 110.211 142.718 110.595 142.718L122.369 140.158L116.866 134.655Z" fill="#FF6C37"/>
<path d="M203.25 64.9074C202.994 64.1396 202.099 63.7556 201.331 64.0116C200.563 64.2675 200.179 65.1634 200.435 65.9312C200.435 66.0592 200.563 66.1872 200.563 66.3152C201.331 67.8509 201.075 69.7705 200.051 71.1783C199.539 71.8182 199.667 72.714 200.179 73.2259C200.819 73.7378 201.715 73.6099 202.227 72.97C204.146 70.5384 204.53 67.467 203.25 64.9074Z" fill="#FF6C37"/>
</g>
<defs>
<clipPath id="clip0_1272_3254">
<rect width="256" height="256" fill="white"/>
</clipPath>
</defs>
</svg>
