<svg width="65" height="65" viewBox="0 0 65 65" fill="none" xmlns="http://www.w3.org/2000/svg">
<g clip-path="url(#clip0_117_8)">
<path d="M48.9865 3.8142H8.82904C6.1343 3.8142 3.94727 6.02076 3.94727 8.69597V52.9834C3.94727 55.6781 6.15383 57.8652 8.82904 57.8652H35.2882C34.9953 44.7039 39.4865 19.1625 48.9962 3.77515L48.9865 3.8142Z" fill="#0F80CC"/>
<path d="M47.5222 5.24927H8.82934C6.91568 5.24927 5.36328 6.81143 5.36328 8.71532V49.771C14.1309 46.4026 27.2824 43.5028 36.382 43.6395C39.1873 30.5955 42.9036 17.7666 47.5222 5.24927Z" fill="url(#paint0_linear_117_8)"/>
<path d="M58.3599 2.3692C55.6066 -0.0716832 52.2772 0.904671 48.9869 3.81421L47.5223 5.23968C41.8985 11.1954 36.7825 22.2478 35.0641 30.6932C35.6763 32.0308 36.1601 33.4235 36.5091 34.8525L36.7239 35.8288L36.9387 36.8247C36.9387 36.8247 36.8899 36.6295 36.6848 36.0436L36.5481 35.6531C36.5207 35.5808 36.4914 35.5091 36.4603 35.4383C36.0892 34.5889 35.0934 32.7826 34.6345 32.0015C34.2793 33.0397 33.944 34.0846 33.6288 35.1356C34.9176 37.4984 35.6987 41.5405 35.6987 41.5405C35.6987 41.5405 35.6304 41.2769 35.3082 40.3689C35.0153 39.5585 33.5898 37.0493 33.2578 36.4635C32.672 38.6115 32.4474 40.0565 32.6525 40.408C33.043 41.0914 33.4336 42.3607 33.7753 43.5713C34.3026 45.7183 34.7326 47.8881 35.0641 50.0739L35.1129 50.6792C35.0117 53.1208 35.0606 55.5663 35.2593 58.0019C35.5132 61.0578 35.9916 63.6842 36.5969 65.0902L37.007 64.8656C36.1283 62.0928 35.7573 58.4705 35.9135 54.2819C36.1576 47.8868 37.6221 40.1736 40.3461 32.1382C44.9643 19.9045 51.3301 10.1605 57.1687 5.51306C51.8476 10.3167 44.6519 25.8603 42.5039 31.611C40.0923 38.0549 38.3837 44.1083 37.3487 49.8981C39.1257 44.4696 44.8667 42.1263 44.8667 42.1263C44.8667 42.1263 47.6981 38.6505 50.9786 33.6809L44.6812 35.3602L42.6503 36.2584C42.6503 36.2584 47.825 33.1048 52.287 31.6696C58.4087 22.033 65.0772 8.33472 58.3599 2.35944" fill="#003B57"/>
</g>
<defs>
<linearGradient id="paint0_linear_117_8" x1="29.6843" y1="6.15728" x2="29.6843" y2="47.3008" gradientUnits="userSpaceOnUse">
<stop stop-color="#97D9F6"/>
<stop offset="0.92024" stop-color="#0F80CC"/>
<stop offset="1" stop-color="#0F80CC"/>
</linearGradient>
<clipPath id="clip0_117_8">
<rect width="64" height="64" fill="white" transform="translate(0.554688 0.982666)"/>
</clipPath>
</defs>
</svg>
