<svg width="257" height="257" viewBox="0 0 257 257" fill="none" xmlns="http://www.w3.org/2000/svg">
<g clip-path="url(#clip0_1272_3249)">
<path d="M128.951 249.958C61.7367 249.958 7.05188 195.278 7.05188 128.062C7.05188 60.8447 61.7367 6.16504 128.951 6.16504C196.165 6.16504 250.85 60.8498 250.85 128.064C250.85 195.278 196.165 249.958 128.951 249.958Z" fill="#85EA2D"/>
<path d="M128.951 12.2644C192.905 12.2644 244.748 64.1066 244.748 128.061C244.748 192.013 192.905 243.858 128.951 243.858C64.9988 243.858 13.1541 192.013 13.1541 128.061C13.1541 64.1092 64.9988 12.2644 128.951 12.2644ZM128.951 0.0625C58.3721 0.0625 0.952148 57.4824 0.952148 128.061C0.952148 198.64 58.3721 256.06 128.951 256.06C199.53 256.06 256.952 198.64 256.952 128.061C256.952 57.4824 199.53 0.0625 128.951 0.0625Z" fill="#173647"/>
<path d="M81.5504 86.6813C81.1564 91.0616 81.6962 95.5904 81.4046 100.019C81.0592 104.451 80.5167 108.831 79.6315 113.211C78.4008 119.462 74.5117 124.188 69.1489 128.125C79.5854 134.918 80.7649 145.45 81.4532 156.132C81.7986 161.891 81.6502 167.699 82.2412 173.407C82.6839 177.836 84.4058 178.97 88.9857 179.116C90.856 179.164 92.7724 179.116 94.9421 179.116V192.799C81.4071 195.112 70.2337 191.274 67.4756 179.806C66.5878 175.623 65.9967 171.34 65.8023 167.008C65.5055 162.431 65.9967 157.854 65.6539 153.276C64.6688 140.724 63.0441 136.492 51.0366 135.901V120.299C51.9219 120.102 52.7586 119.953 53.6438 119.856C60.2399 119.511 63.0441 117.492 64.4718 110.996C65.1626 107.355 65.5566 103.663 65.7025 99.9221C66.1963 92.7861 65.9993 85.5018 67.2274 78.4145C68.9493 68.2262 75.2511 63.3035 85.7363 62.7124C88.6889 62.564 91.6927 62.7124 95.0879 62.7124V76.6926C93.6602 76.7924 92.4295 76.9868 91.1502 76.9868C82.6352 76.69 82.19 79.594 81.5504 86.6813ZM97.9407 119.068H97.7437C92.821 118.822 88.5891 122.66 88.3409 127.583C88.0953 132.554 91.9332 136.789 96.8559 137.032H97.4469C102.321 137.329 106.502 133.585 106.799 128.714V128.223C106.898 123.251 102.912 119.168 97.9407 119.068ZM128.802 119.068C124.028 118.92 120.039 122.66 119.893 127.386C119.893 127.683 119.893 127.928 119.945 128.223C119.945 133.588 123.586 137.034 129.099 137.034C134.513 137.034 137.911 133.491 137.911 127.928C137.86 122.563 134.265 119.019 128.802 119.068ZM160.404 119.068C155.384 118.968 151.198 122.957 151.052 127.977C151.052 132.997 155.087 137.032 160.107 137.032H160.207C164.735 137.82 169.313 133.44 169.609 128.174C169.853 123.3 165.424 119.068 160.404 119.068ZM203.767 119.805C198.056 119.559 195.201 117.64 193.775 112.224C192.888 108.78 192.348 105.185 192.151 101.641C191.757 95.0454 191.805 88.4007 191.363 81.8047C190.329 66.1537 179.01 60.6912 162.568 63.3956V76.9817C165.175 76.9817 167.194 76.9817 169.213 77.0303C172.708 77.0789 175.366 78.4094 175.709 82.2985C176.055 85.8421 176.055 89.4344 176.4 93.0292C177.091 100.168 177.482 107.401 178.713 114.44C179.798 120.248 183.784 124.579 188.753 128.123C180.043 133.979 177.482 142.346 177.04 151.749C176.794 158.197 176.646 164.693 176.303 171.192C176.006 177.097 173.941 179.016 167.985 179.164C166.311 179.213 164.687 179.361 162.816 179.461V193.39C166.311 193.39 169.51 193.587 172.708 193.39C182.651 192.799 188.656 187.976 190.626 178.328C191.462 173.011 191.954 167.648 192.102 162.283C192.445 157.36 192.399 152.389 192.89 147.517C193.627 139.887 197.122 136.738 204.752 136.246C205.491 136.147 206.179 136.001 206.87 135.755V120.15C205.588 120.002 204.701 119.856 203.767 119.805Z" fill="#173647"/>
</g>
<defs>
<clipPath id="clip0_1272_3249">
<rect width="256" height="256" fill="white" transform="translate(0.952148 0.0625)"/>
</clipPath>
</defs>
</svg>
