<svg width="201" height="170" viewBox="0 0 201 170" fill="none" xmlns="http://www.w3.org/2000/svg">
<g clip-path="url(#clip0_117_12)">
<path d="M100.055 170C97.8645 170 81.8545 157.2 78.7545 153.55C76.3145 157.28 72.3145 161.51 72.3145 161.51C61.2645 155.94 47.1445 141.45 44.4845 136.38C41.8645 131.38 32.3545 73.8001 32.0945 57.0801C31.7545 47.6701 37.9445 28.5901 100.055 28.5901C162.165 28.5901 168.345 47.6701 168.015 57.0801C167.765 73.8001 158.255 131.38 155.625 136.38C152.965 141.45 138.845 155.94 127.795 161.51C127.795 161.51 123.795 157.28 121.355 153.55C118.255 157.2 102.245 170 100.055 170Z" fill="#1EBCA1"/>
<path d="M100.055 132.92C79.3247 132.92 66.0947 121.97 66.0947 121.97L68.0047 95.3001L46.2547 93.3601L42.3447 61.8101H157.775L153.865 93.3601L132.115 95.3001L134.025 121.97C134.025 121.97 120.795 132.92 100.065 132.92H100.055Z" fill="#183134"/>
<path d="M121.535 75.79L200.055 48.61C195.385 20.67 170.895 0 170.895 0V30.78L156.355 34.53L147.245 23.56L139.445 38.9L100.065 49.06L60.6847 38.9L52.8847 23.56L43.7747 34.53L29.2347 30.78V0C29.2347 0 4.72469 20.67 0.0546875 48.61L78.5747 75.79L75.7747 113.18C82.4747 114.88 89.5247 116.57 100.055 116.57C110.585 116.57 117.625 114.88 124.325 113.18L121.525 75.79H121.535Z" fill="#4FF8D2"/>
</g>
<defs>
<clipPath id="clip0_117_12">
<rect width="201" height="170" fill="white"/>
</clipPath>
</defs>
</svg>
